<svg width="373" height="542" viewBox="0 0 373 542" fill="none" xmlns="http://www.w3.org/2000/svg">
<rect x="20.0437" y="386" width="56" height="80" rx="4" fill="#F2AF29" fill-opacity="0.2"/>
<path d="M20.0437 434H76.0437V462C76.0437 464.209 74.2528 466 72.0437 466H24.0437C21.8346 466 20.0437 464.209 20.0437 462V434Z" fill="#F2AF29"/>
<line x1="86.5437" y1="434.262" x2="86.5437" y2="465.738" stroke="#E0E0E0"/>
<line x1="80.0437" y1="434.225" x2="93.0437" y2="434.225" stroke="#E0E0E0"/>
<line x1="80.0437" y1="465.238" x2="93.0437" y2="465.238" stroke="#E0E0E0"/>
<path d="M99.3367 443.871C99.0474 443.871 98.7674 443.81 98.4967 443.689C98.226 443.568 97.9647 443.428 97.7127 443.269C97.4654 443.11 97.2297 442.97 97.0057 442.849C96.7817 442.728 96.5717 442.667 96.3757 442.667C96.1377 442.667 95.9814 442.772 95.9067 442.982C95.832 443.187 95.8344 443.418 95.9137 443.675H94.7307C94.6234 443.236 94.6117 442.84 94.6957 442.485C94.7844 442.126 94.9594 441.841 95.2207 441.631C95.4867 441.421 95.832 441.316 96.2567 441.316C96.5507 441.316 96.833 441.377 97.1037 441.498C97.379 441.619 97.6404 441.759 97.8877 441.918C98.1397 442.077 98.3777 442.217 98.6017 442.338C98.8257 442.459 99.0357 442.52 99.2317 442.52C99.451 442.52 99.6027 442.42 99.6867 442.219C99.7754 442.014 99.7777 441.771 99.6937 441.491H100.877C100.984 441.925 100.996 442.322 100.912 442.681C100.828 443.04 100.653 443.33 100.387 443.549C100.125 443.764 99.7754 443.871 99.3367 443.871ZM107.753 447V445.145H103.119V443.962L106.444 436.92H107.858L104.533 443.962H107.753V441.127H109.013V443.962H110.063V445.145H109.013V447H107.753ZM115.001 447.21C114.348 447.21 113.765 447.063 113.251 446.769C112.743 446.47 112.339 446.067 112.04 445.558C111.746 445.045 111.599 444.461 111.599 443.808V440.112C111.599 439.459 111.746 438.875 112.04 438.362C112.339 437.849 112.743 437.445 113.251 437.151C113.765 436.857 114.348 436.71 115.001 436.71C115.655 436.71 116.238 436.857 116.751 437.151C117.265 437.445 117.668 437.849 117.962 438.362C118.256 438.875 118.403 439.459 118.403 440.112V443.808C118.403 444.461 118.256 445.045 117.962 445.558C117.668 446.067 117.265 446.47 116.751 446.769C116.238 447.063 115.655 447.21 115.001 447.21ZM115.001 446.013C115.398 446.013 115.757 445.917 116.079 445.726C116.401 445.535 116.658 445.278 116.849 444.956C117.041 444.629 117.136 444.27 117.136 443.878V440.035C117.136 439.638 117.041 439.279 116.849 438.957C116.658 438.635 116.401 438.378 116.079 438.187C115.757 437.996 115.398 437.9 115.001 437.9C114.609 437.9 114.25 437.996 113.923 438.187C113.601 438.378 113.345 438.635 113.153 438.957C112.962 439.279 112.866 439.638 112.866 440.035V443.878C112.866 444.27 112.962 444.629 113.153 444.956C113.345 445.278 113.601 445.535 113.923 445.726C114.25 445.917 114.609 446.013 115.001 446.013ZM121.343 447L120.503 446.16L129.757 436.92L130.597 437.76L121.343 447ZM128.497 447.21C128.035 447.21 127.613 447.098 127.23 446.874C126.852 446.645 126.549 446.342 126.32 445.964C126.091 445.581 125.977 445.157 125.977 444.69C125.977 444.233 126.094 443.813 126.327 443.43C126.56 443.047 126.868 442.742 127.251 442.513C127.634 442.284 128.049 442.17 128.497 442.17C128.959 442.17 129.381 442.284 129.764 442.513C130.147 442.737 130.45 443.04 130.674 443.423C130.903 443.801 131.017 444.223 131.017 444.69C131.017 445.157 130.903 445.581 130.674 445.964C130.45 446.342 130.147 446.645 129.764 446.874C129.381 447.098 128.959 447.21 128.497 447.21ZM128.497 446.111C128.754 446.111 128.989 446.046 129.204 445.915C129.423 445.784 129.596 445.612 129.722 445.397C129.853 445.182 129.918 444.947 129.918 444.69C129.918 444.433 129.853 444.198 129.722 443.983C129.596 443.764 129.423 443.591 129.204 443.465C128.989 443.334 128.754 443.269 128.497 443.269C128.24 443.269 128.005 443.334 127.79 443.465C127.575 443.591 127.403 443.764 127.272 443.983C127.141 444.198 127.076 444.433 127.076 444.69C127.076 444.947 127.141 445.182 127.272 445.397C127.403 445.612 127.575 445.784 127.79 445.915C128.005 446.046 128.24 446.111 128.497 446.111ZM122.603 441.75C122.141 441.75 121.719 441.638 121.336 441.414C120.953 441.185 120.648 440.882 120.419 440.504C120.195 440.121 120.083 439.697 120.083 439.23C120.083 438.773 120.2 438.353 120.433 437.97C120.666 437.587 120.974 437.282 121.357 437.053C121.74 436.824 122.155 436.71 122.603 436.71C123.065 436.71 123.485 436.824 123.863 437.053C124.246 437.277 124.551 437.58 124.78 437.963C125.009 438.341 125.123 438.763 125.123 439.23C125.123 439.697 125.009 440.121 124.78 440.504C124.551 440.882 124.246 441.185 123.863 441.414C123.485 441.638 123.065 441.75 122.603 441.75ZM122.603 440.651C122.86 440.651 123.095 440.586 123.31 440.455C123.529 440.324 123.702 440.152 123.828 439.937C123.959 439.722 124.024 439.487 124.024 439.23C124.024 438.973 123.959 438.738 123.828 438.523C123.702 438.304 123.529 438.131 123.31 438.005C123.095 437.874 122.86 437.809 122.603 437.809C122.346 437.809 122.111 437.874 121.896 438.005C121.681 438.131 121.509 438.304 121.378 438.523C121.247 438.738 121.182 438.973 121.182 439.23C121.182 439.487 121.247 439.722 121.378 439.937C121.509 440.152 121.681 440.324 121.896 440.455C122.111 440.586 122.346 440.651 122.603 440.651ZM95.0737 466.36L96.5367 462.384L96.5577 463.56L93.2537 455.44H94.5627L97.1527 461.971H96.7047L99.1337 455.44H100.401L96.2847 466.36H95.0737ZM101.557 454.103V452.815H102.803V454.103H101.557ZM101.557 463V455.44H102.803V463H101.557ZM108.039 463.21C107.297 463.21 106.649 463.047 106.093 462.72C105.543 462.389 105.113 461.929 104.805 461.341C104.497 460.748 104.343 460.058 104.343 459.269C104.343 458.443 104.495 457.729 104.798 457.127C105.102 456.52 105.524 456.054 106.065 455.727C106.611 455.396 107.251 455.23 107.983 455.23C108.744 455.23 109.39 455.405 109.922 455.755C110.459 456.105 110.86 456.604 111.126 457.253C111.397 457.902 111.514 458.674 111.476 459.57H110.216V459.122C110.202 458.193 110.013 457.5 109.649 457.043C109.285 456.581 108.744 456.35 108.025 456.35C107.255 456.35 106.67 456.597 106.268 457.092C105.867 457.587 105.666 458.296 105.666 459.22C105.666 460.111 105.867 460.802 106.268 461.292C106.67 461.782 107.241 462.027 107.983 462.027C108.483 462.027 108.917 461.913 109.285 461.684C109.654 461.455 109.943 461.126 110.153 460.697L111.35 461.11C111.056 461.777 110.613 462.295 110.02 462.664C109.432 463.028 108.772 463.21 108.039 463.21ZM105.246 459.57V458.569H110.832V459.57H105.246ZM113.035 463V452.71H114.281V463H113.035ZM119.209 463.21C118.504 463.21 117.9 463.035 117.396 462.685C116.892 462.33 116.502 461.852 116.227 461.25C115.956 460.648 115.821 459.969 115.821 459.213C115.821 458.457 115.956 457.778 116.227 457.176C116.502 456.574 116.892 456.1 117.396 455.755C117.9 455.405 118.502 455.23 119.202 455.23C119.916 455.23 120.516 455.403 121.001 455.748C121.486 456.093 121.853 456.567 122.1 457.169C122.352 457.771 122.478 458.452 122.478 459.213C122.478 459.964 122.352 460.643 122.1 461.25C121.853 461.852 121.486 462.33 121.001 462.685C120.516 463.035 119.918 463.21 119.209 463.21ZM119.363 462.069C119.872 462.069 120.289 461.948 120.616 461.705C120.943 461.458 121.183 461.119 121.337 460.69C121.496 460.256 121.575 459.764 121.575 459.213C121.575 458.653 121.496 458.161 121.337 457.736C121.183 457.307 120.945 456.973 120.623 456.735C120.301 456.492 119.893 456.371 119.398 456.371C118.885 456.371 118.46 456.497 118.124 456.749C117.793 457.001 117.545 457.342 117.382 457.771C117.223 458.2 117.144 458.681 117.144 459.213C117.144 459.75 117.226 460.235 117.389 460.669C117.552 461.098 117.797 461.439 118.124 461.691C118.455 461.943 118.868 462.069 119.363 462.069ZM121.575 463V457.435H121.435V452.92H122.688V463H121.575Z" fill="#726C6B"/>
<path d="M25.2097 495V493.334H20.7437V491.759L23.9707 484.92H25.8957L22.6687 491.759H25.2097V489.134H26.9177V491.759H27.8627V493.334H26.9177V495H25.2097ZM33.0273 495.21C32.3133 495.21 31.6833 495.058 31.1373 494.755C30.5913 494.447 30.1643 494.02 29.8563 493.474C29.5529 492.928 29.4013 492.298 29.4013 491.584V488.336C29.4013 487.622 29.5529 486.992 29.8563 486.446C30.1643 485.9 30.5913 485.475 31.1373 485.172C31.6833 484.864 32.3133 484.71 33.0273 484.71C33.7413 484.71 34.3689 484.864 34.9103 485.172C35.4563 485.475 35.8833 485.9 36.1913 486.446C36.4993 486.992 36.6533 487.622 36.6533 488.336V491.584C36.6533 492.298 36.4993 492.928 36.1913 493.474C35.8833 494.02 35.4563 494.447 34.9103 494.755C34.3689 495.058 33.7413 495.21 33.0273 495.21ZM33.0273 493.607C33.3819 493.607 33.7039 493.523 33.9933 493.355C34.2826 493.182 34.5113 492.954 34.6793 492.669C34.8473 492.38 34.9313 492.058 34.9313 491.703V488.21C34.9313 487.851 34.8473 487.529 34.6793 487.244C34.5113 486.955 34.2826 486.726 33.9933 486.558C33.7039 486.385 33.3819 486.299 33.0273 486.299C32.6726 486.299 32.3506 486.385 32.0613 486.558C31.7719 486.726 31.5433 486.955 31.3753 487.244C31.2073 487.529 31.1233 487.851 31.1233 488.21V491.703C31.1233 492.058 31.2073 492.38 31.3753 492.669C31.5433 492.954 31.7719 493.182 32.0613 493.355C32.3506 493.523 32.6726 493.607 33.0273 493.607ZM42.1021 495.21C41.3881 495.21 40.7581 495.058 40.2121 494.755C39.6661 494.447 39.2391 494.02 38.9311 493.474C38.6278 492.928 38.4761 492.298 38.4761 491.584V488.336C38.4761 487.622 38.6278 486.992 38.9311 486.446C39.2391 485.9 39.6661 485.475 40.2121 485.172C40.7581 484.864 41.3881 484.71 42.1021 484.71C42.8161 484.71 43.4438 484.864 43.9851 485.172C44.5311 485.475 44.9581 485.9 45.2661 486.446C45.5741 486.992 45.7281 487.622 45.7281 488.336V491.584C45.7281 492.298 45.5741 492.928 45.2661 493.474C44.9581 494.02 44.5311 494.447 43.9851 494.755C43.4438 495.058 42.8161 495.21 42.1021 495.21ZM42.1021 493.607C42.4568 493.607 42.7788 493.523 43.0681 493.355C43.3575 493.182 43.5861 492.954 43.7541 492.669C43.9221 492.38 44.0061 492.058 44.0061 491.703V488.21C44.0061 487.851 43.9221 487.529 43.7541 487.244C43.5861 486.955 43.3575 486.726 43.0681 486.558C42.7788 486.385 42.4568 486.299 42.1021 486.299C41.7475 486.299 41.4255 486.385 41.1361 486.558C40.8468 486.726 40.6181 486.955 40.4501 487.244C40.2821 487.529 40.1981 487.851 40.1981 488.21V491.703C40.1981 492.058 40.2821 492.38 40.4501 492.669C40.6181 492.954 40.8468 493.182 41.1361 493.355C41.4255 493.523 41.7475 493.607 42.1021 493.607ZM53.3917 498.57C52.9717 498.57 52.568 498.505 52.1807 498.374C51.798 498.243 51.4527 498.054 51.1447 497.807C50.8367 497.564 50.5847 497.27 50.3887 496.925L51.9427 496.155C52.0874 496.43 52.2904 496.633 52.5517 496.764C52.8177 496.899 53.1 496.967 53.3987 496.967C53.7487 496.967 54.0614 496.904 54.3367 496.778C54.612 496.657 54.8244 496.475 54.9737 496.232C55.1277 495.994 55.2 495.695 55.1907 495.336V493.187H55.4007V487.44H56.8777V495.364C56.8777 495.555 56.8684 495.737 56.8497 495.91C56.8357 496.087 56.81 496.26 56.7727 496.428C56.6607 496.918 56.446 497.319 56.1287 497.632C55.8114 497.949 55.417 498.185 54.9457 498.339C54.479 498.493 53.961 498.57 53.3917 498.57ZM53.2447 495.21C52.5494 495.21 51.9427 495.035 51.4247 494.685C50.9067 494.335 50.5054 493.859 50.2207 493.257C49.936 492.655 49.7937 491.976 49.7937 491.22C49.7937 490.455 49.936 489.773 50.2207 489.176C50.51 488.574 50.9184 488.1 51.4457 487.755C51.973 487.405 52.5937 487.23 53.3077 487.23C54.0264 487.23 54.6284 487.405 55.1137 487.755C55.6037 488.1 55.9747 488.574 56.2267 489.176C56.4787 489.778 56.6047 490.459 56.6047 491.22C56.6047 491.971 56.4787 492.65 56.2267 493.257C55.9747 493.859 55.599 494.335 55.0997 494.685C54.6004 495.035 53.982 495.21 53.2447 495.21ZM53.5037 493.698C53.9564 493.698 54.3204 493.595 54.5957 493.39C54.8757 493.18 55.0787 492.888 55.2047 492.515C55.3354 492.142 55.4007 491.71 55.4007 491.22C55.4007 490.725 55.3354 490.294 55.2047 489.925C55.0787 489.552 54.8804 489.262 54.6097 489.057C54.339 488.847 53.989 488.742 53.5597 488.742C53.107 488.742 52.7337 488.854 52.4397 489.078C52.1457 489.297 51.9287 489.596 51.7887 489.974C51.6487 490.347 51.5787 490.763 51.5787 491.22C51.5787 491.682 51.6464 492.102 51.7817 492.48C51.9217 492.853 52.134 493.15 52.4187 493.369C52.7034 493.588 53.065 493.698 53.5037 493.698ZM67.7797 495V490.408C67.7797 489.89 67.6513 489.486 67.3947 489.197C67.138 488.903 66.7903 488.756 66.3517 488.756C66.081 488.756 65.8383 488.819 65.6237 488.945C65.409 489.066 65.2387 489.248 65.1127 489.491C64.9867 489.729 64.9237 490.014 64.9237 490.345L64.1747 489.904C64.17 489.381 64.2867 488.922 64.5247 488.525C64.7673 488.124 65.094 487.811 65.5047 487.587C65.9153 487.363 66.3727 487.251 66.8767 487.251C67.712 487.251 68.3513 487.503 68.7947 488.007C69.2427 488.506 69.4667 489.164 69.4667 489.981V495H67.7797ZM58.6867 495V487.44H60.1777V489.785H60.3877V495H58.6867ZM63.2437 495V490.429C63.2437 489.902 63.1153 489.491 62.8587 489.197C62.602 488.903 62.252 488.756 61.8087 488.756C61.3793 488.756 61.034 488.903 60.7727 489.197C60.516 489.491 60.3877 489.874 60.3877 490.345L59.6317 489.841C59.6317 489.351 59.753 488.91 59.9957 488.518C60.2383 488.126 60.565 487.818 60.9757 487.594C61.391 487.365 61.8553 487.251 62.3687 487.251C62.9333 487.251 63.4047 487.372 63.7827 487.615C64.1653 487.853 64.45 488.18 64.6367 488.595C64.828 489.006 64.9237 489.47 64.9237 489.988V495H63.2437Z" fill="#433B39"/>
<path d="M22.7807 517V508.068L20.8837 509.209V508.054L22.7807 506.92H23.8237V517H22.7807ZM29.5588 517.21C28.9381 517.21 28.3781 517.065 27.8788 516.776C27.3841 516.487 26.9921 516.095 26.7028 515.6C26.4134 515.101 26.2688 514.541 26.2688 513.92V510C26.2688 509.379 26.4134 508.822 26.7028 508.327C26.9921 507.828 27.3841 507.433 27.8788 507.144C28.3781 506.855 28.9381 506.71 29.5588 506.71C30.1794 506.71 30.7371 506.855 31.2318 507.144C31.7311 507.433 32.1254 507.828 32.4148 508.327C32.7041 508.822 32.8488 509.379 32.8488 510V513.92C32.8488 514.541 32.7041 515.101 32.4148 515.6C32.1254 516.095 31.7311 516.487 31.2318 516.776C30.7371 517.065 30.1794 517.21 29.5588 517.21ZM29.5588 516.216C29.9741 516.216 30.3521 516.116 30.6928 515.915C31.0334 515.71 31.3041 515.437 31.5048 515.096C31.7054 514.755 31.8058 514.38 31.8058 513.969V509.951C31.8058 509.536 31.7054 509.158 31.5048 508.817C31.3041 508.476 31.0334 508.206 30.6928 508.005C30.3521 507.8 29.9741 507.697 29.5588 507.697C29.1434 507.697 28.7654 507.8 28.4248 508.005C28.0841 508.206 27.8134 508.476 27.6128 508.817C27.4121 509.158 27.3118 509.536 27.3118 509.951V513.969C27.3118 514.38 27.4121 514.755 27.6128 515.096C27.8134 515.437 28.0841 515.71 28.4248 515.915C28.7654 516.116 29.1434 516.216 29.5588 516.216ZM37.8937 517.21C37.273 517.21 36.713 517.065 36.2137 516.776C35.719 516.487 35.327 516.095 35.0377 515.6C34.7484 515.101 34.6037 514.541 34.6037 513.92V510C34.6037 509.379 34.7484 508.822 35.0377 508.327C35.327 507.828 35.719 507.433 36.2137 507.144C36.713 506.855 37.273 506.71 37.8937 506.71C38.5144 506.71 39.072 506.855 39.5667 507.144C40.066 507.433 40.4604 507.828 40.7497 508.327C41.039 508.822 41.1837 509.379 41.1837 510V513.92C41.1837 514.541 41.039 515.101 40.7497 515.6C40.4604 516.095 40.066 516.487 39.5667 516.776C39.072 517.065 38.5144 517.21 37.8937 517.21ZM37.8937 516.216C38.309 516.216 38.687 516.116 39.0277 515.915C39.3684 515.71 39.639 515.437 39.8397 515.096C40.0404 514.755 40.1407 514.38 40.1407 513.969V509.951C40.1407 509.536 40.0404 509.158 39.8397 508.817C39.639 508.476 39.3684 508.206 39.0277 508.005C38.687 507.8 38.309 507.697 37.8937 507.697C37.4784 507.697 37.1004 507.8 36.7597 508.005C36.419 508.206 36.1484 508.476 35.9477 508.817C35.747 509.158 35.6467 509.536 35.6467 509.951V513.969C35.6467 514.38 35.747 514.755 35.9477 515.096C36.1484 515.437 36.419 515.71 36.7597 515.915C37.1004 516.116 37.4784 516.216 37.8937 516.216ZM43.9186 517L43.2186 516.3L52.6196 506.92L53.3196 507.613L43.9186 517ZM51.2196 517.21C50.7576 517.21 50.3353 517.098 49.9526 516.874C49.5746 516.645 49.2713 516.342 49.0426 515.964C48.814 515.581 48.6996 515.157 48.6996 514.69C48.6996 514.233 48.8163 513.813 49.0496 513.43C49.283 513.047 49.591 512.742 49.9736 512.513C50.3563 512.284 50.7716 512.17 51.2196 512.17C51.6816 512.17 52.104 512.284 52.4866 512.513C52.8693 512.737 53.1726 513.04 53.3966 513.423C53.6253 513.801 53.7396 514.223 53.7396 514.69C53.7396 515.157 53.6253 515.581 53.3966 515.964C53.1726 516.342 52.8693 516.645 52.4866 516.874C52.104 517.098 51.6816 517.21 51.2196 517.21ZM51.2196 516.279C51.5043 516.279 51.768 516.207 52.0106 516.062C52.2533 515.917 52.447 515.726 52.5916 515.488C52.7363 515.245 52.8086 514.979 52.8086 514.69C52.8086 514.401 52.7363 514.137 52.5916 513.899C52.447 513.656 52.2533 513.463 52.0106 513.318C51.768 513.173 51.5043 513.101 51.2196 513.101C50.9303 513.101 50.6643 513.173 50.4216 513.318C50.1836 513.463 49.99 513.656 49.8406 513.899C49.696 514.137 49.6236 514.401 49.6236 514.69C49.6236 514.979 49.696 515.245 49.8406 515.488C49.99 515.726 50.1836 515.917 50.4216 516.062C50.6643 516.207 50.9303 516.279 51.2196 516.279ZM45.3186 511.75C44.8566 511.75 44.4343 511.638 44.0516 511.414C43.669 511.185 43.3633 510.882 43.1346 510.504C42.9106 510.121 42.7986 509.697 42.7986 509.23C42.7986 508.773 42.9153 508.353 43.1486 507.97C43.382 507.587 43.69 507.282 44.0726 507.053C44.4553 506.824 44.8706 506.71 45.3186 506.71C45.7806 506.71 46.2006 506.824 46.5786 507.053C46.9613 507.277 47.267 507.58 47.4956 507.963C47.7243 508.341 47.8386 508.763 47.8386 509.23C47.8386 509.697 47.7243 510.121 47.4956 510.504C47.267 510.882 46.9613 511.185 46.5786 511.414C46.2006 511.638 45.7806 511.75 45.3186 511.75ZM45.3186 510.819C45.608 510.819 45.8716 510.747 46.1096 510.602C46.3523 510.457 46.546 510.266 46.6906 510.028C46.8353 509.785 46.9076 509.519 46.9076 509.23C46.9076 508.941 46.8353 508.677 46.6906 508.439C46.546 508.196 46.3523 508.003 46.1096 507.858C45.8716 507.713 45.608 507.641 45.3186 507.641C45.0293 507.641 44.7633 507.713 44.5206 507.858C44.2826 508.003 44.0913 508.196 43.9466 508.439C43.802 508.677 43.7296 508.941 43.7296 509.23C43.7296 509.519 43.802 509.785 43.9466 510.028C44.0913 510.266 44.2826 510.457 44.5206 510.602C44.7633 510.747 45.0293 510.819 45.3186 510.819ZM61.3355 517.21C60.6402 517.21 60.0522 517.035 59.5715 516.685C59.0908 516.33 58.7268 515.852 58.4795 515.25C58.2322 514.643 58.1085 513.964 58.1085 513.213C58.1085 512.448 58.2322 511.766 58.4795 511.169C58.7315 510.567 59.1002 510.093 59.5855 509.748C60.0708 509.403 60.6682 509.23 61.3775 509.23C62.0682 509.23 62.6608 509.405 63.1555 509.755C63.6502 510.105 64.0282 510.581 64.2895 511.183C64.5555 511.785 64.6885 512.462 64.6885 513.213C64.6885 513.969 64.5555 514.648 64.2895 515.25C64.0235 515.852 63.6408 516.33 63.1415 516.685C62.6422 517.035 62.0402 517.21 61.3355 517.21ZM57.9335 520.36V509.44H58.8575V515.131H58.9695V520.36H57.9335ZM61.2305 516.251C61.7578 516.251 62.1965 516.118 62.5465 515.852C62.8965 515.586 63.1578 515.224 63.3305 514.767C63.5078 514.305 63.5965 513.787 63.5965 513.213C63.5965 512.644 63.5102 512.13 63.3375 511.673C63.1648 511.216 62.9012 510.854 62.5465 510.588C62.1965 510.322 61.7508 510.189 61.2095 510.189C60.6822 510.189 60.2435 510.317 59.8935 510.574C59.5482 510.831 59.2892 511.188 59.1165 511.645C58.9438 512.098 58.8575 512.62 58.8575 513.213C58.8575 513.796 58.9438 514.319 59.1165 514.781C59.2892 515.238 59.5505 515.598 59.9005 515.859C60.2505 516.12 60.6938 516.251 61.2305 516.251ZM68.9067 517.189C68.454 517.189 68.0573 517.119 67.7167 516.979C67.3807 516.839 67.0937 516.65 66.8557 516.412C66.6223 516.174 66.4333 515.903 66.2887 515.6C66.144 515.292 66.039 514.968 65.9737 514.627C65.9083 514.282 65.8757 513.939 65.8757 513.598V509.44H66.9117V513.297C66.9117 513.712 66.9513 514.097 67.0307 514.452C67.11 514.807 67.236 515.117 67.4087 515.383C67.586 515.644 67.8123 515.847 68.0877 515.992C68.3677 516.137 68.706 516.209 69.1027 516.209C69.4667 516.209 69.7863 516.146 70.0617 516.02C70.3417 515.894 70.575 515.714 70.7617 515.481C70.953 515.243 71.0977 514.956 71.1957 514.62C71.2937 514.279 71.3427 513.897 71.3427 513.472L72.0707 513.633C72.0707 514.408 71.9353 515.059 71.6647 515.586C71.394 516.113 71.0207 516.512 70.5447 516.783C70.0687 517.054 69.5227 517.189 68.9067 517.189ZM71.4477 517V515.138H71.3427V509.44H72.3717V517H71.4477ZM74.1182 517V509.44H75.0422V511.26L74.8602 511.022C74.9442 510.798 75.0538 510.593 75.1892 510.406C75.3245 510.215 75.4715 510.058 75.6302 509.937C75.8262 509.764 76.0548 509.634 76.3162 509.545C76.5775 509.452 76.8412 509.398 77.1072 509.384C77.3732 509.365 77.6158 509.384 77.8352 509.44V510.406C77.5598 510.336 77.2588 510.32 76.9322 510.357C76.6055 510.394 76.3045 510.525 76.0292 510.749C75.7772 510.945 75.5882 511.181 75.4622 511.456C75.3362 511.727 75.2522 512.016 75.2102 512.324C75.1682 512.627 75.1472 512.928 75.1472 513.227V517H74.1182ZM82.0154 517.21C81.278 517.21 80.6387 517.047 80.0974 516.72C79.5607 516.393 79.143 515.934 78.8444 515.341C78.5457 514.748 78.3964 514.053 78.3964 513.255C78.3964 512.429 78.5434 511.715 78.8374 511.113C79.1314 510.511 79.5444 510.047 80.0764 509.72C80.613 509.393 81.2454 509.23 81.9734 509.23C82.72 509.23 83.357 509.403 83.8844 509.748C84.4117 510.089 84.8107 510.579 85.0814 511.218C85.352 511.857 85.4757 512.62 85.4524 513.507H84.4024V513.143C84.3837 512.163 84.1714 511.423 83.7654 510.924C83.364 510.425 82.776 510.175 82.0014 510.175C81.1894 510.175 80.5664 510.439 80.1324 510.966C79.703 511.493 79.4884 512.245 79.4884 513.22C79.4884 514.172 79.703 514.912 80.1324 515.439C80.5664 515.962 81.18 516.223 81.9734 516.223C82.5147 516.223 82.986 516.099 83.3874 515.852C83.7934 515.6 84.113 515.238 84.3464 514.767L85.3054 515.138C85.0067 515.796 84.5657 516.307 83.9824 516.671C83.4037 517.03 82.748 517.21 82.0154 517.21ZM79.1244 513.507V512.646H84.8994V513.507H79.1244ZM24.1597 537.21C23.399 537.21 22.755 537.04 22.2277 536.699C21.7004 536.358 21.299 535.889 21.0237 535.292C20.753 534.69 20.613 533.999 20.6037 533.22C20.613 532.427 20.7577 531.731 21.0377 531.134C21.3177 530.532 21.7214 530.065 22.2487 529.734C22.776 529.398 23.4154 529.23 24.1667 529.23C24.932 529.23 25.597 529.417 26.1617 529.79C26.731 530.163 27.1207 530.674 27.3307 531.323L26.3227 531.645C26.1454 531.192 25.863 530.842 25.4757 530.595C25.093 530.343 24.6544 530.217 24.1597 530.217C23.6044 530.217 23.1447 530.345 22.7807 530.602C22.4167 530.854 22.146 531.206 21.9687 531.659C21.7914 532.112 21.7004 532.632 21.6957 533.22C21.705 534.125 21.915 534.853 22.3257 535.404C22.7364 535.95 23.3477 536.223 24.1597 536.223C24.673 536.223 25.1094 536.106 25.4687 535.873C25.8327 535.635 26.108 535.29 26.2947 534.837L27.3307 535.145C27.0507 535.817 26.64 536.33 26.0987 536.685C25.5574 537.035 24.911 537.21 24.1597 537.21ZM31.5176 537.21C30.7662 537.21 30.1246 537.04 29.5926 536.699C29.0606 536.358 28.6522 535.887 28.3676 535.285C28.0829 534.683 27.9406 533.992 27.9406 533.213C27.9406 532.42 28.0852 531.724 28.3746 531.127C28.6639 530.53 29.0746 530.065 29.6066 529.734C30.1432 529.398 30.7802 529.23 31.5176 529.23C32.2736 529.23 32.9176 529.4 33.4496 529.741C33.9862 530.077 34.3946 530.546 34.6746 531.148C34.9592 531.745 35.1016 532.434 35.1016 533.213C35.1016 534.006 34.9592 534.704 34.6746 535.306C34.3899 535.903 33.9792 536.37 33.4426 536.706C32.9059 537.042 32.2642 537.21 31.5176 537.21ZM31.5176 536.223C32.3576 536.223 32.9829 535.945 33.3936 535.39C33.8042 534.83 34.0096 534.104 34.0096 533.213C34.0096 532.298 33.8019 531.57 33.3866 531.029C32.9759 530.488 32.3529 530.217 31.5176 530.217C30.9529 530.217 30.4862 530.345 30.1176 530.602C29.7536 530.854 29.4806 531.206 29.2986 531.659C29.1212 532.107 29.0326 532.625 29.0326 533.213C29.0326 534.123 29.2426 534.853 29.6626 535.404C30.0826 535.95 30.7009 536.223 31.5176 536.223ZM36.5757 537V526.71H37.6047V537H36.5757ZM42.4263 537.21C41.7216 537.21 41.1196 537.035 40.6203 536.685C40.121 536.33 39.7383 535.852 39.4723 535.25C39.2063 534.648 39.0733 533.969 39.0733 533.213C39.0733 532.462 39.204 531.785 39.4653 531.183C39.7313 530.581 40.1116 530.105 40.6063 529.755C41.101 529.405 41.6936 529.23 42.3843 529.23C43.0936 529.23 43.691 529.403 44.1763 529.748C44.6616 530.093 45.028 530.567 45.2753 531.169C45.5273 531.766 45.6533 532.448 45.6533 533.213C45.6533 533.964 45.5296 534.643 45.2823 535.25C45.035 535.852 44.671 536.33 44.1903 536.685C43.7096 537.035 43.1216 537.21 42.4263 537.21ZM42.5313 536.251C43.068 536.251 43.5113 536.12 43.8613 535.859C44.2113 535.598 44.4726 535.238 44.6453 534.781C44.818 534.319 44.9043 533.796 44.9043 533.213C44.9043 532.62 44.818 532.098 44.6453 531.645C44.4726 531.188 44.2113 530.831 43.8613 530.574C43.516 530.317 43.0796 530.189 42.5523 530.189C42.011 530.189 41.563 530.322 41.2083 530.588C40.8536 530.854 40.59 531.216 40.4173 531.673C40.2493 532.13 40.1653 532.644 40.1653 533.213C40.1653 533.787 40.2516 534.305 40.4243 534.767C40.6016 535.224 40.8653 535.586 41.2153 535.852C41.5653 536.118 42.004 536.251 42.5313 536.251ZM44.9043 537V531.309H44.7923V526.92H45.8283V537H44.9043ZM53.5699 537.21C52.8745 537.21 52.2865 537.035 51.8059 536.685C51.3252 536.33 50.9612 535.852 50.7139 535.25C50.4665 534.643 50.3429 533.964 50.3429 533.213C50.3429 532.448 50.4665 531.766 50.7139 531.169C50.9659 530.567 51.3345 530.093 51.8199 529.748C52.3052 529.403 52.9025 529.23 53.6119 529.23C54.3025 529.23 54.8952 529.405 55.3899 529.755C55.8845 530.105 56.2625 530.581 56.5239 531.183C56.7899 531.785 56.9229 532.462 56.9229 533.213C56.9229 533.969 56.7899 534.648 56.5239 535.25C56.2579 535.852 55.8752 536.33 55.3759 536.685C54.8765 537.035 54.2745 537.21 53.5699 537.21ZM50.1679 540.36V529.44H51.0919V535.131H51.2039V540.36H50.1679ZM53.4649 536.251C53.9922 536.251 54.4309 536.118 54.7809 535.852C55.1309 535.586 55.3922 535.224 55.5649 534.767C55.7422 534.305 55.8309 533.787 55.8309 533.213C55.8309 532.644 55.7445 532.13 55.5719 531.673C55.3992 531.216 55.1355 530.854 54.7809 530.588C54.4309 530.322 53.9852 530.189 53.4439 530.189C52.9165 530.189 52.4779 530.317 52.1279 530.574C51.7825 530.831 51.5235 531.188 51.3509 531.645C51.1782 532.098 51.0919 532.62 51.0919 533.213C51.0919 533.796 51.1782 534.319 51.3509 534.781C51.5235 535.238 51.7849 535.598 52.1349 535.859C52.4849 536.12 52.9282 536.251 53.4649 536.251ZM58.25 537V529.44H59.174V531.26L58.992 531.022C59.076 530.798 59.1857 530.593 59.321 530.406C59.4564 530.215 59.6034 530.058 59.762 529.937C59.958 529.764 60.1867 529.634 60.448 529.545C60.7094 529.452 60.973 529.398 61.239 529.384C61.505 529.365 61.7477 529.384 61.967 529.44V530.406C61.6917 530.336 61.3907 530.32 61.064 530.357C60.7374 530.394 60.4364 530.525 60.161 530.749C59.909 530.945 59.72 531.181 59.594 531.456C59.468 531.727 59.384 532.016 59.342 532.324C59.3 532.627 59.279 532.928 59.279 533.227V537H58.25ZM66.1472 537.21C65.4099 537.21 64.7706 537.047 64.2292 536.72C63.6926 536.393 63.2749 535.934 62.9762 535.341C62.6776 534.748 62.5282 534.053 62.5282 533.255C62.5282 532.429 62.6752 531.715 62.9692 531.113C63.2632 530.511 63.6762 530.047 64.2082 529.72C64.7449 529.393 65.3772 529.23 66.1052 529.23C66.8519 529.23 67.4889 529.403 68.0162 529.748C68.5436 530.089 68.9426 530.579 69.2132 531.218C69.4839 531.857 69.6076 532.62 69.5842 533.507H68.5342V533.143C68.5156 532.163 68.3032 531.423 67.8972 530.924C67.4959 530.425 66.9079 530.175 66.1332 530.175C65.3212 530.175 64.6982 530.439 64.2642 530.966C63.8349 531.493 63.6202 532.245 63.6202 533.22C63.6202 534.172 63.8349 534.912 64.2642 535.439C64.6982 535.962 65.3119 536.223 66.1052 536.223C66.6466 536.223 67.1179 536.099 67.5192 535.852C67.9252 535.6 68.2449 535.238 68.4782 534.767L69.4372 535.138C69.1386 535.796 68.6976 536.307 68.1142 536.671C67.5356 537.03 66.8799 537.21 66.1472 537.21ZM63.2562 533.507V532.646H69.0312V533.507H63.2562ZM73.7487 537.203C72.862 537.203 72.1317 537.012 71.5577 536.629C70.9884 536.246 70.6384 535.714 70.5077 535.033L71.5577 534.858C71.6697 535.287 71.924 535.63 72.3207 535.887C72.722 536.139 73.2167 536.265 73.8047 536.265C74.3787 536.265 74.8314 536.146 75.1627 535.908C75.494 535.665 75.6597 535.336 75.6597 534.921C75.6597 534.688 75.606 534.499 75.4987 534.354C75.396 534.205 75.1837 534.067 74.8617 533.941C74.5397 533.815 74.059 533.666 73.4197 533.493C72.7337 533.306 72.197 533.12 71.8097 532.933C71.4224 532.746 71.147 532.532 70.9837 532.289C70.8204 532.042 70.7387 531.741 70.7387 531.386C70.7387 530.957 70.86 530.581 71.1027 530.259C71.3454 529.932 71.6814 529.68 72.1107 529.503C72.54 529.321 73.0394 529.23 73.6087 529.23C74.178 529.23 74.6867 529.323 75.1347 529.51C75.5874 529.692 75.9514 529.949 76.2267 530.28C76.502 530.611 76.6654 530.996 76.7167 531.435L75.6667 531.624C75.5967 531.181 75.375 530.831 75.0017 530.574C74.633 530.313 74.164 530.177 73.5947 530.168C73.058 530.154 72.6217 530.257 72.2857 530.476C71.9497 530.691 71.7817 530.978 71.7817 531.337C71.7817 531.538 71.8424 531.71 71.9637 531.855C72.085 531.995 72.3044 532.128 72.6217 532.254C72.9437 532.38 73.401 532.518 73.9937 532.667C74.689 532.844 75.235 533.031 75.6317 533.227C76.0284 533.423 76.3107 533.654 76.4787 533.92C76.6467 534.186 76.7307 534.515 76.7307 534.907C76.7307 535.621 76.4647 536.183 75.9327 536.594C75.4054 537 74.6774 537.203 73.7487 537.203ZM80.8942 537.203C80.0075 537.203 79.2772 537.012 78.7032 536.629C78.1338 536.246 77.7838 535.714 77.6532 535.033L78.7032 534.858C78.8152 535.287 79.0695 535.63 79.4662 535.887C79.8675 536.139 80.3622 536.265 80.9502 536.265C81.5242 536.265 81.9768 536.146 82.3082 535.908C82.6395 535.665 82.8052 535.336 82.8052 534.921C82.8052 534.688 82.7515 534.499 82.6442 534.354C82.5415 534.205 82.3292 534.067 82.0072 533.941C81.6852 533.815 81.2045 533.666 80.5652 533.493C79.8792 533.306 79.3425 533.12 78.9552 532.933C78.5678 532.746 78.2925 532.532 78.1292 532.289C77.9658 532.042 77.8842 531.741 77.8842 531.386C77.8842 530.957 78.0055 530.581 78.2482 530.259C78.4908 529.932 78.8268 529.68 79.2562 529.503C79.6855 529.321 80.1848 529.23 80.7542 529.23C81.3235 529.23 81.8322 529.323 82.2802 529.51C82.7328 529.692 83.0968 529.949 83.3722 530.28C83.6475 530.611 83.8108 530.996 83.8622 531.435L82.8122 531.624C82.7422 531.181 82.5205 530.831 82.1472 530.574C81.7785 530.313 81.3095 530.177 80.7402 530.168C80.2035 530.154 79.7672 530.257 79.4312 530.476C79.0952 530.691 78.9272 530.978 78.9272 531.337C78.9272 531.538 78.9878 531.71 79.1092 531.855C79.2305 531.995 79.4498 532.128 79.7672 532.254C80.0892 532.38 80.5465 532.518 81.1392 532.667C81.8345 532.844 82.3805 533.031 82.7772 533.227C83.1738 533.423 83.4562 533.654 83.6242 533.92C83.7922 534.186 83.8762 534.515 83.8762 534.907C83.8762 535.621 83.6102 536.183 83.0782 536.594C82.5508 537 81.8228 537.203 80.8942 537.203ZM88.4176 537.21C87.6803 537.21 87.041 537.047 86.4996 536.72C85.963 536.393 85.5453 535.934 85.2466 535.341C84.948 534.748 84.7986 534.053 84.7986 533.255C84.7986 532.429 84.9456 531.715 85.2396 531.113C85.5336 530.511 85.9466 530.047 86.4786 529.72C87.0153 529.393 87.6476 529.23 88.3756 529.23C89.1223 529.23 89.7593 529.403 90.2866 529.748C90.814 530.089 91.213 530.579 91.4836 531.218C91.7543 531.857 91.878 532.62 91.8546 533.507H90.8046V533.143C90.786 532.163 90.5736 531.423 90.1676 530.924C89.7663 530.425 89.1783 530.175 88.4036 530.175C87.5916 530.175 86.9686 530.439 86.5346 530.966C86.1053 531.493 85.8906 532.245 85.8906 533.22C85.8906 534.172 86.1053 534.912 86.5346 535.439C86.9686 535.962 87.5823 536.223 88.3756 536.223C88.917 536.223 89.3883 536.099 89.7896 535.852C90.1956 535.6 90.5153 535.238 90.7486 534.767L91.7076 535.138C91.409 535.796 90.968 536.307 90.3846 536.671C89.806 537.03 89.1503 537.21 88.4176 537.21ZM85.5266 533.507V532.646H91.3016V533.507H85.5266ZM96.1311 537.21C95.4264 537.21 94.8244 537.035 94.3251 536.685C93.8257 536.33 93.4431 535.852 93.1771 535.25C92.9111 534.648 92.7781 533.969 92.7781 533.213C92.7781 532.462 92.9087 531.785 93.1701 531.183C93.4361 530.581 93.8164 530.105 94.3111 529.755C94.8057 529.405 95.3984 529.23 96.0891 529.23C96.7984 529.23 97.3957 529.403 97.8811 529.748C98.3664 530.093 98.7327 530.567 98.9801 531.169C99.2321 531.766 99.3581 532.448 99.3581 533.213C99.3581 533.964 99.2344 534.643 98.9871 535.25C98.7397 535.852 98.3757 536.33 97.8951 536.685C97.4144 537.035 96.8264 537.21 96.1311 537.21ZM96.2361 536.251C96.7727 536.251 97.2161 536.12 97.5661 535.859C97.9161 535.598 98.1774 535.238 98.3501 534.781C98.5227 534.319 98.6091 533.796 98.6091 533.213C98.6091 532.62 98.5227 532.098 98.3501 531.645C98.1774 531.188 97.9161 530.831 97.5661 530.574C97.2207 530.317 96.7844 530.189 96.2571 530.189C95.7157 530.189 95.2677 530.322 94.9131 530.588C94.5584 530.854 94.2947 531.216 94.1221 531.673C93.9541 532.13 93.8701 532.644 93.8701 533.213C93.8701 533.787 93.9564 534.305 94.1291 534.767C94.3064 535.224 94.5701 535.586 94.9201 535.852C95.2701 536.118 95.7087 536.251 96.2361 536.251ZM98.6091 537V531.309H98.4971V526.92H99.5331V537H98.6091ZM107.037 537.21C106.285 537.21 105.644 537.04 105.112 536.699C104.58 536.358 104.171 535.887 103.887 535.285C103.602 534.683 103.46 533.992 103.46 533.213C103.46 532.42 103.604 531.724 103.894 531.127C104.183 530.53 104.594 530.065 105.126 529.734C105.662 529.398 106.299 529.23 107.037 529.23C107.793 529.23 108.437 529.4 108.969 529.741C109.505 530.077 109.914 530.546 110.194 531.148C110.478 531.745 110.621 532.434 110.621 533.213C110.621 534.006 110.478 534.704 110.194 535.306C109.909 535.903 109.498 536.37 108.962 536.706C108.425 537.042 107.783 537.21 107.037 537.21ZM107.037 536.223C107.877 536.223 108.502 535.945 108.913 535.39C109.323 534.83 109.529 534.104 109.529 533.213C109.529 532.298 109.321 531.57 108.906 531.029C108.495 530.488 107.872 530.217 107.037 530.217C106.472 530.217 106.005 530.345 105.637 530.602C105.273 530.854 105 531.206 104.818 531.659C104.64 532.107 104.552 532.625 104.552 533.213C104.552 534.123 104.762 534.853 105.182 535.404C105.602 535.95 106.22 536.223 107.037 536.223ZM112.095 528.005V526.85H113.124V528.005H112.095ZM112.095 537V529.44H113.124V537H112.095ZM115.152 537V526.71H116.181V537H115.152Z" fill="#433B39"/>
<rect x="182.219" y="386" width="56" height="80" rx="4" fill="#F2AF29" fill-opacity="0.2"/>
<path d="M182.219 394H238.219V462C238.219 464.209 236.428 466 234.219 466H186.219C184.01 466 182.219 464.209 182.219 462V394Z" fill="#F2AF29"/>
<line x1="248.719" y1="393.894" x2="248.719" y2="466" stroke="#E0E0E0"/>
<line x1="242.219" y1="393.865" x2="255.219" y2="393.865" stroke="#E0E0E0"/>
<line x1="242.219" y1="465.5" x2="255.219" y2="465.5" stroke="#E0E0E0"/>
<path d="M261.512 423.818C261.222 423.818 260.942 423.757 260.672 423.636C260.401 423.514 260.14 423.374 259.888 423.216C259.64 423.057 259.405 422.917 259.181 422.796C258.957 422.674 258.747 422.614 258.551 422.614C258.313 422.614 258.156 422.719 258.082 422.929C258.007 423.134 258.009 423.365 258.089 423.622H256.906C256.798 423.183 256.787 422.786 256.871 422.432C256.959 422.072 257.134 421.788 257.396 421.578C257.662 421.368 258.007 421.263 258.432 421.263C258.726 421.263 259.008 421.323 259.279 421.445C259.554 421.566 259.815 421.706 260.063 421.865C260.315 422.023 260.553 422.163 260.777 422.285C261.001 422.406 261.211 422.467 261.407 422.467C261.626 422.467 261.778 422.366 261.862 422.166C261.95 421.96 261.953 421.718 261.869 421.438H263.052C263.159 421.872 263.171 422.268 263.087 422.628C263.003 422.987 262.828 423.276 262.562 423.496C262.3 423.71 261.95 423.818 261.512 423.818ZM268.871 416.664C269.515 416.664 270.096 416.818 270.614 417.126C271.132 417.434 271.543 417.854 271.846 418.386C272.154 418.918 272.308 419.522 272.308 420.199V423.552C272.308 424.256 272.157 424.879 271.853 425.421C271.55 425.962 271.13 426.387 270.593 426.695C270.061 427.003 269.45 427.157 268.759 427.157C268.209 427.157 267.693 427.042 267.212 426.814C266.736 426.585 266.333 426.261 266.001 425.841L266.932 425.015C267.138 425.304 267.401 425.537 267.723 425.715C268.045 425.887 268.391 425.974 268.759 425.974C269.207 425.974 269.602 425.866 269.942 425.652C270.288 425.437 270.556 425.157 270.747 424.812C270.943 424.466 271.041 424.093 271.041 423.692V421.669L271.314 421.977C271.025 422.397 270.654 422.733 270.201 422.985C269.749 423.237 269.256 423.363 268.724 423.363C268.099 423.363 267.539 423.216 267.044 422.922C266.55 422.628 266.158 422.231 265.868 421.732C265.579 421.228 265.434 420.663 265.434 420.038C265.434 419.412 265.591 418.845 265.903 418.337C266.216 417.823 266.631 417.417 267.149 417.119C267.672 416.815 268.246 416.664 268.871 416.664ZM268.871 417.868C268.47 417.868 268.104 417.966 267.772 418.162C267.446 418.353 267.184 418.614 266.988 418.946C266.792 419.272 266.694 419.636 266.694 420.038C266.694 420.439 266.79 420.805 266.981 421.137C267.177 421.463 267.439 421.725 267.765 421.921C268.097 422.117 268.463 422.215 268.864 422.215C269.266 422.215 269.632 422.117 269.963 421.921C270.295 421.725 270.556 421.463 270.747 421.137C270.943 420.805 271.041 420.439 271.041 420.038C271.041 419.641 270.943 419.279 270.747 418.953C270.556 418.621 270.295 418.358 269.963 418.162C269.637 417.966 269.273 417.868 268.871 417.868ZM277.532 427.157C276.878 427.157 276.295 427.01 275.782 426.716C275.273 426.417 274.869 426.013 274.571 425.505C274.277 424.991 274.13 424.408 274.13 423.755V420.059C274.13 419.405 274.277 418.822 274.571 418.309C274.869 417.795 275.273 417.392 275.782 417.098C276.295 416.804 276.878 416.657 277.532 416.657C278.185 416.657 278.768 416.804 279.282 417.098C279.795 417.392 280.199 417.795 280.493 418.309C280.787 418.822 280.934 419.405 280.934 420.059V423.755C280.934 424.408 280.787 424.991 280.493 425.505C280.199 426.013 279.795 426.417 279.282 426.716C278.768 427.01 278.185 427.157 277.532 427.157ZM277.532 425.96C277.928 425.96 278.288 425.864 278.61 425.673C278.932 425.481 279.188 425.225 279.38 424.903C279.571 424.576 279.667 424.217 279.667 423.825V419.982C279.667 419.585 279.571 419.226 279.38 418.904C279.188 418.582 278.932 418.325 278.61 418.134C278.288 417.942 277.928 417.847 277.532 417.847C277.14 417.847 276.78 417.942 276.454 418.134C276.132 418.325 275.875 418.582 275.684 418.904C275.492 419.226 275.397 419.585 275.397 419.982V423.825C275.397 424.217 275.492 424.576 275.684 424.903C275.875 425.225 276.132 425.481 276.454 425.673C276.78 425.864 277.14 425.96 277.532 425.96ZM283.873 426.947L283.033 426.107L292.287 416.867L293.127 417.707L283.873 426.947ZM291.027 427.157C290.565 427.157 290.143 427.045 289.76 426.821C289.382 426.592 289.079 426.289 288.85 425.911C288.622 425.528 288.507 425.103 288.507 424.637C288.507 424.179 288.624 423.759 288.857 423.377C289.091 422.994 289.399 422.688 289.781 422.46C290.164 422.231 290.579 422.117 291.027 422.117C291.489 422.117 291.912 422.231 292.294 422.46C292.677 422.684 292.98 422.987 293.204 423.37C293.433 423.748 293.547 424.17 293.547 424.637C293.547 425.103 293.433 425.528 293.204 425.911C292.98 426.289 292.677 426.592 292.294 426.821C291.912 427.045 291.489 427.157 291.027 427.157ZM291.027 426.058C291.284 426.058 291.52 425.992 291.734 425.862C291.954 425.731 292.126 425.558 292.252 425.344C292.383 425.129 292.448 424.893 292.448 424.637C292.448 424.38 292.383 424.144 292.252 423.93C292.126 423.71 291.954 423.538 291.734 423.412C291.52 423.281 291.284 423.216 291.027 423.216C290.771 423.216 290.535 423.281 290.32 423.412C290.106 423.538 289.933 423.71 289.802 423.93C289.672 424.144 289.606 424.38 289.606 424.637C289.606 424.893 289.672 425.129 289.802 425.344C289.933 425.558 290.106 425.731 290.32 425.862C290.535 425.992 290.771 426.058 291.027 426.058ZM285.133 421.697C284.671 421.697 284.249 421.585 283.866 421.361C283.484 421.132 283.178 420.829 282.949 420.451C282.725 420.068 282.613 419.643 282.613 419.177C282.613 418.719 282.73 418.299 282.963 417.917C283.197 417.534 283.505 417.228 283.887 417C284.27 416.771 284.685 416.657 285.133 416.657C285.595 416.657 286.015 416.771 286.393 417C286.776 417.224 287.082 417.527 287.31 417.91C287.539 418.288 287.653 418.71 287.653 419.177C287.653 419.643 287.539 420.068 287.31 420.451C287.082 420.829 286.776 421.132 286.393 421.361C286.015 421.585 285.595 421.697 285.133 421.697ZM285.133 420.598C285.39 420.598 285.626 420.532 285.84 420.402C286.06 420.271 286.232 420.098 286.358 419.884C286.489 419.669 286.554 419.433 286.554 419.177C286.554 418.92 286.489 418.684 286.358 418.47C286.232 418.25 286.06 418.078 285.84 417.952C285.626 417.821 285.39 417.756 285.133 417.756C284.877 417.756 284.641 417.821 284.426 417.952C284.212 418.078 284.039 418.25 283.908 418.47C283.778 418.684 283.712 418.92 283.712 419.177C283.712 419.433 283.778 419.669 283.908 419.884C284.039 420.098 284.212 420.271 284.426 420.402C284.641 420.532 284.877 420.598 285.133 420.598ZM257.249 446.307L258.712 442.331L258.733 443.507L255.429 435.387H256.738L259.328 441.918H258.88L261.309 435.387H262.576L258.46 446.307H257.249ZM263.732 434.05V432.762H264.978V434.05H263.732ZM263.732 442.947V435.387H264.978V442.947H263.732ZM270.214 443.157C269.472 443.157 268.824 442.993 268.268 442.667C267.718 442.335 267.288 441.876 266.98 441.288C266.672 440.695 266.518 440.004 266.518 439.216C266.518 438.39 266.67 437.676 266.973 437.074C267.277 436.467 267.699 436 268.24 435.674C268.786 435.342 269.426 435.177 270.158 435.177C270.919 435.177 271.565 435.352 272.097 435.702C272.634 436.052 273.035 436.551 273.301 437.2C273.572 437.848 273.689 438.621 273.651 439.517H272.391V439.069C272.377 438.14 272.188 437.447 271.824 436.99C271.46 436.528 270.919 436.297 270.2 436.297C269.43 436.297 268.845 436.544 268.443 437.039C268.042 437.533 267.841 438.243 267.841 439.167C267.841 440.058 268.042 440.749 268.443 441.239C268.845 441.729 269.416 441.974 270.158 441.974C270.658 441.974 271.092 441.859 271.46 441.631C271.829 441.402 272.118 441.073 272.328 440.644L273.525 441.057C273.231 441.724 272.788 442.242 272.195 442.611C271.607 442.975 270.947 443.157 270.214 443.157ZM267.421 439.517V438.516H273.007V439.517H267.421ZM275.21 442.947V432.657H276.456V442.947H275.21ZM281.384 443.157C280.679 443.157 280.075 442.982 279.571 442.632C279.067 442.277 278.677 441.799 278.402 441.197C278.131 440.595 277.996 439.916 277.996 439.16C277.996 438.404 278.131 437.725 278.402 437.123C278.677 436.521 279.067 436.047 279.571 435.702C280.075 435.352 280.677 435.177 281.377 435.177C282.091 435.177 282.691 435.349 283.176 435.695C283.661 436.04 284.028 436.514 284.275 437.116C284.527 437.718 284.653 438.399 284.653 439.16C284.653 439.911 284.527 440.59 284.275 441.197C284.028 441.799 283.661 442.277 283.176 442.632C282.691 442.982 282.093 443.157 281.384 443.157ZM281.538 442.016C282.047 442.016 282.464 441.894 282.791 441.652C283.118 441.404 283.358 441.066 283.512 440.637C283.671 440.203 283.75 439.71 283.75 439.16C283.75 438.6 283.671 438.107 283.512 437.683C283.358 437.253 283.12 436.92 282.798 436.682C282.476 436.439 282.068 436.318 281.573 436.318C281.06 436.318 280.635 436.444 280.299 436.696C279.968 436.948 279.72 437.288 279.557 437.718C279.398 438.147 279.319 438.628 279.319 439.16C279.319 439.696 279.401 440.182 279.564 440.616C279.727 441.045 279.972 441.386 280.299 441.638C280.63 441.89 281.043 442.016 281.538 442.016ZM283.75 442.947V437.382H283.61V432.867H284.863V442.947H283.75Z" fill="#726C6B"/>
<path d="M186.454 484.724C187.112 484.724 187.704 484.88 188.232 485.193C188.759 485.501 189.174 485.93 189.478 486.481C189.786 487.027 189.94 487.657 189.94 488.371V491.444C189.94 492.205 189.786 492.87 189.478 493.439C189.174 494.004 188.747 494.44 188.197 494.748C187.646 495.056 187.002 495.21 186.265 495.21C185.756 495.21 185.275 495.124 184.823 494.951C184.37 494.774 183.964 494.503 183.605 494.139L184.816 492.956C184.998 493.166 185.215 493.332 185.467 493.453C185.723 493.57 185.989 493.628 186.265 493.628C186.657 493.628 187 493.537 187.294 493.355C187.588 493.168 187.816 492.928 187.98 492.634C188.143 492.335 188.225 492.016 188.225 491.675V490.002L188.526 490.338C188.241 490.674 187.896 490.938 187.49 491.129C187.084 491.316 186.657 491.409 186.209 491.409C185.579 491.409 185.019 491.264 184.529 490.975C184.043 490.686 183.661 490.294 183.381 489.799C183.105 489.3 182.968 488.735 182.968 488.105C182.968 487.475 183.126 486.906 183.444 486.397C183.761 485.884 184.183 485.478 184.711 485.179C185.243 484.876 185.824 484.724 186.454 484.724ZM186.454 486.334C186.127 486.334 185.828 486.413 185.558 486.572C185.287 486.731 185.072 486.945 184.914 487.216C184.755 487.482 184.676 487.778 184.676 488.105C184.676 488.432 184.753 488.73 184.907 489.001C185.065 489.272 185.278 489.486 185.544 489.645C185.814 489.804 186.113 489.883 186.44 489.883C186.766 489.883 187.065 489.804 187.336 489.645C187.606 489.486 187.821 489.272 187.98 489.001C188.143 488.73 188.225 488.432 188.225 488.105C188.225 487.788 188.145 487.496 187.987 487.23C187.828 486.959 187.613 486.742 187.343 486.579C187.077 486.416 186.78 486.334 186.454 486.334ZM195.38 495.21C194.666 495.21 194.036 495.058 193.49 494.755C192.944 494.447 192.517 494.02 192.209 493.474C191.906 492.928 191.754 492.298 191.754 491.584V488.336C191.754 487.622 191.906 486.992 192.209 486.446C192.517 485.9 192.944 485.475 193.49 485.172C194.036 484.864 194.666 484.71 195.38 484.71C196.094 484.71 196.722 484.864 197.263 485.172C197.809 485.475 198.236 485.9 198.544 486.446C198.852 486.992 199.006 487.622 199.006 488.336V491.584C199.006 492.298 198.852 492.928 198.544 493.474C198.236 494.02 197.809 494.447 197.263 494.755C196.722 495.058 196.094 495.21 195.38 495.21ZM195.38 493.607C195.735 493.607 196.057 493.523 196.346 493.355C196.635 493.182 196.864 492.954 197.032 492.669C197.2 492.38 197.284 492.058 197.284 491.703V488.21C197.284 487.851 197.2 487.529 197.032 487.244C196.864 486.955 196.635 486.726 196.346 486.558C196.057 486.385 195.735 486.299 195.38 486.299C195.025 486.299 194.703 486.385 194.414 486.558C194.125 486.726 193.896 486.955 193.728 487.244C193.56 487.529 193.476 487.851 193.476 488.21V491.703C193.476 492.058 193.56 492.38 193.728 492.669C193.896 492.954 194.125 493.182 194.414 493.355C194.703 493.523 195.025 493.607 195.38 493.607ZM204.455 495.21C203.741 495.21 203.111 495.058 202.565 494.755C202.019 494.447 201.592 494.02 201.284 493.474C200.981 492.928 200.829 492.298 200.829 491.584V488.336C200.829 487.622 200.981 486.992 201.284 486.446C201.592 485.9 202.019 485.475 202.565 485.172C203.111 484.864 203.741 484.71 204.455 484.71C205.169 484.71 205.797 484.864 206.338 485.172C206.884 485.475 207.311 485.9 207.619 486.446C207.927 486.992 208.081 487.622 208.081 488.336V491.584C208.081 492.298 207.927 492.928 207.619 493.474C207.311 494.02 206.884 494.447 206.338 494.755C205.797 495.058 205.169 495.21 204.455 495.21ZM204.455 493.607C204.81 493.607 205.132 493.523 205.421 493.355C205.71 493.182 205.939 492.954 206.107 492.669C206.275 492.38 206.359 492.058 206.359 491.703V488.21C206.359 487.851 206.275 487.529 206.107 487.244C205.939 486.955 205.71 486.726 205.421 486.558C205.132 486.385 204.81 486.299 204.455 486.299C204.1 486.299 203.778 486.385 203.489 486.558C203.2 486.726 202.971 486.955 202.803 487.244C202.635 487.529 202.551 487.851 202.551 488.21V491.703C202.551 492.058 202.635 492.38 202.803 492.669C202.971 492.954 203.2 493.182 203.489 493.355C203.778 493.523 204.1 493.607 204.455 493.607ZM215.744 498.57C215.324 498.57 214.921 498.505 214.533 498.374C214.151 498.243 213.805 498.054 213.497 497.807C213.189 497.564 212.937 497.27 212.741 496.925L214.295 496.155C214.44 496.43 214.643 496.633 214.904 496.764C215.17 496.899 215.453 496.967 215.751 496.967C216.101 496.967 216.414 496.904 216.689 496.778C216.965 496.657 217.177 496.475 217.326 496.232C217.48 495.994 217.553 495.695 217.543 495.336V493.187H217.753V487.44H219.23V495.364C219.23 495.555 219.221 495.737 219.202 495.91C219.188 496.087 219.163 496.26 219.125 496.428C219.013 496.918 218.799 497.319 218.481 497.632C218.164 497.949 217.77 498.185 217.298 498.339C216.832 498.493 216.314 498.57 215.744 498.57ZM215.597 495.21C214.902 495.21 214.295 495.035 213.777 494.685C213.259 494.335 212.858 493.859 212.573 493.257C212.289 492.655 212.146 491.976 212.146 491.22C212.146 490.455 212.289 489.773 212.573 489.176C212.863 488.574 213.271 488.1 213.798 487.755C214.326 487.405 214.946 487.23 215.66 487.23C216.379 487.23 216.981 487.405 217.466 487.755C217.956 488.1 218.327 488.574 218.579 489.176C218.831 489.778 218.957 490.459 218.957 491.22C218.957 491.971 218.831 492.65 218.579 493.257C218.327 493.859 217.952 494.335 217.452 494.685C216.953 495.035 216.335 495.21 215.597 495.21ZM215.856 493.698C216.309 493.698 216.673 493.595 216.948 493.39C217.228 493.18 217.431 492.888 217.557 492.515C217.688 492.142 217.753 491.71 217.753 491.22C217.753 490.725 217.688 490.294 217.557 489.925C217.431 489.552 217.233 489.262 216.962 489.057C216.692 488.847 216.342 488.742 215.912 488.742C215.46 488.742 215.086 488.854 214.792 489.078C214.498 489.297 214.281 489.596 214.141 489.974C214.001 490.347 213.931 490.763 213.931 491.22C213.931 491.682 213.999 492.102 214.134 492.48C214.274 492.853 214.487 493.15 214.771 493.369C215.056 493.588 215.418 493.698 215.856 493.698ZM230.132 495V490.408C230.132 489.89 230.004 489.486 229.747 489.197C229.491 488.903 229.143 488.756 228.704 488.756C228.434 488.756 228.191 488.819 227.976 488.945C227.762 489.066 227.591 489.248 227.465 489.491C227.339 489.729 227.276 490.014 227.276 490.345L226.527 489.904C226.523 489.381 226.639 488.922 226.877 488.525C227.12 488.124 227.447 487.811 227.857 487.587C228.268 487.363 228.725 487.251 229.229 487.251C230.065 487.251 230.704 487.503 231.147 488.007C231.595 488.506 231.819 489.164 231.819 489.981V495H230.132ZM221.039 495V487.44H222.53V489.785H222.74V495H221.039ZM225.596 495V490.429C225.596 489.902 225.468 489.491 225.211 489.197C224.955 488.903 224.605 488.756 224.161 488.756C223.732 488.756 223.387 488.903 223.125 489.197C222.869 489.491 222.74 489.874 222.74 490.345L221.984 489.841C221.984 489.351 222.106 488.91 222.348 488.518C222.591 488.126 222.918 487.818 223.328 487.594C223.744 487.365 224.208 487.251 224.721 487.251C225.286 487.251 225.757 487.372 226.135 487.615C226.518 487.853 226.803 488.18 226.989 488.595C227.181 489.006 227.276 489.47 227.276 489.988V495H225.596Z" fill="#433B39"/>
<path d="M183.199 517V506.92H187.091C187.189 506.92 187.298 506.925 187.42 506.934C187.546 506.939 187.672 506.953 187.798 506.976C188.325 507.055 188.771 507.24 189.135 507.529C189.503 507.814 189.781 508.173 189.968 508.607C190.159 509.041 190.255 509.522 190.255 510.049C190.255 510.81 190.054 511.47 189.653 512.03C189.251 512.59 188.677 512.942 187.931 513.087L187.574 513.171H184.228V517H183.199ZM189.303 517L187.315 512.898L188.302 512.52L190.486 517H189.303ZM184.228 512.191H187.063C187.147 512.191 187.245 512.186 187.357 512.177C187.469 512.168 187.578 512.151 187.686 512.128C188.031 512.053 188.313 511.911 188.533 511.701C188.757 511.491 188.922 511.241 189.03 510.952C189.142 510.663 189.198 510.362 189.198 510.049C189.198 509.736 189.142 509.435 189.03 509.146C188.922 508.852 188.757 508.6 188.533 508.39C188.313 508.18 188.031 508.038 187.686 507.963C187.578 507.94 187.469 507.926 187.357 507.921C187.245 507.912 187.147 507.907 187.063 507.907H184.228V512.191ZM195.02 517.21C194.282 517.21 193.643 517.047 193.102 516.72C192.565 516.393 192.147 515.934 191.849 515.341C191.55 514.748 191.401 514.053 191.401 513.255C191.401 512.429 191.548 511.715 191.842 511.113C192.136 510.511 192.549 510.047 193.081 509.72C193.617 509.393 194.25 509.23 194.978 509.23C195.724 509.23 196.361 509.403 196.889 509.748C197.416 510.089 197.815 510.579 198.086 511.218C198.356 511.857 198.48 512.62 198.457 513.507H197.407V513.143C197.388 512.163 197.176 511.423 196.77 510.924C196.368 510.425 195.78 510.175 195.006 510.175C194.194 510.175 193.571 510.439 193.137 510.966C192.707 511.493 192.493 512.245 192.493 513.22C192.493 514.172 192.707 514.912 193.137 515.439C193.571 515.962 194.184 516.223 194.978 516.223C195.519 516.223 195.99 516.099 196.392 515.852C196.798 515.6 197.117 515.238 197.351 514.767L198.31 515.138C198.011 515.796 197.57 516.307 196.987 516.671C196.408 517.03 195.752 517.21 195.02 517.21ZM192.129 513.507V512.646H197.904V513.507H192.129ZM200.549 517V508.88C200.549 508.684 200.559 508.49 200.577 508.299C200.601 508.108 200.645 507.926 200.71 507.753C200.776 507.576 200.878 507.412 201.018 507.263C201.172 507.095 201.34 506.974 201.522 506.899C201.704 506.82 201.893 506.768 202.089 506.745C202.29 506.722 202.486 506.71 202.677 506.71H203.643V507.578H202.747C202.355 507.578 202.061 507.674 201.865 507.865C201.674 508.056 201.578 508.357 201.578 508.768V517H200.549ZM199.24 510.322V509.44H203.643V510.322H199.24ZM205.113 508.005V506.85H206.142V508.005H205.113ZM205.113 517V509.44H206.142V517H205.113ZM213.486 517V513.143C213.486 512.723 213.446 512.338 213.367 511.988C213.287 511.633 213.159 511.325 212.982 511.064C212.809 510.798 212.583 510.593 212.303 510.448C212.027 510.303 211.691 510.231 211.295 510.231C210.931 510.231 210.609 510.294 210.329 510.42C210.053 510.546 209.82 510.728 209.629 510.966C209.442 511.199 209.3 511.484 209.202 511.82C209.104 512.156 209.055 512.539 209.055 512.968L208.327 512.807C208.327 512.032 208.462 511.381 208.733 510.854C209.003 510.327 209.377 509.928 209.853 509.657C210.329 509.386 210.875 509.251 211.491 509.251C211.943 509.251 212.338 509.321 212.674 509.461C213.014 509.601 213.301 509.79 213.535 510.028C213.773 510.266 213.964 510.539 214.109 510.847C214.253 511.15 214.358 511.475 214.424 511.82C214.489 512.161 214.522 512.501 214.522 512.842V517H213.486ZM208.019 517V509.44H208.95V511.302H209.055V517H208.019ZM219.286 517.21C218.549 517.21 217.91 517.047 217.368 516.72C216.832 516.393 216.414 515.934 216.115 515.341C215.817 514.748 215.667 514.053 215.667 513.255C215.667 512.429 215.814 511.715 216.108 511.113C216.402 510.511 216.815 510.047 217.347 509.72C217.884 509.393 218.516 509.23 219.244 509.23C219.991 509.23 220.628 509.403 221.155 509.748C221.683 510.089 222.082 510.579 222.352 511.218C222.623 511.857 222.747 512.62 222.723 513.507H221.673V513.143C221.655 512.163 221.442 511.423 221.036 510.924C220.635 510.425 220.047 510.175 219.272 510.175C218.46 510.175 217.837 510.439 217.403 510.966C216.974 511.493 216.759 512.245 216.759 513.22C216.759 514.172 216.974 514.912 217.403 515.439C217.837 515.962 218.451 516.223 219.244 516.223C219.786 516.223 220.257 516.099 220.658 515.852C221.064 515.6 221.384 515.238 221.617 514.767L222.576 515.138C222.278 515.796 221.837 516.307 221.253 516.671C220.675 517.03 220.019 517.21 219.286 517.21ZM216.395 513.507V512.646H222.17V513.507H216.395ZM227 517.21C226.295 517.21 225.693 517.035 225.194 516.685C224.694 516.33 224.312 515.852 224.046 515.25C223.78 514.648 223.647 513.969 223.647 513.213C223.647 512.462 223.777 511.785 224.039 511.183C224.305 510.581 224.685 510.105 225.18 509.755C225.674 509.405 226.267 509.23 226.958 509.23C227.667 509.23 228.264 509.403 228.75 509.748C229.235 510.093 229.601 510.567 229.849 511.169C230.101 511.766 230.227 512.448 230.227 513.213C230.227 513.964 230.103 514.643 229.856 515.25C229.608 515.852 229.244 516.33 228.764 516.685C228.283 517.035 227.695 517.21 227 517.21ZM227.105 516.251C227.641 516.251 228.085 516.12 228.435 515.859C228.785 515.598 229.046 515.238 229.219 514.781C229.391 514.319 229.478 513.796 229.478 513.213C229.478 512.62 229.391 512.098 229.219 511.645C229.046 511.188 228.785 510.831 228.435 510.574C228.089 510.317 227.653 510.189 227.126 510.189C226.584 510.189 226.136 510.322 225.782 510.588C225.427 510.854 225.163 511.216 224.991 511.673C224.823 512.13 224.739 512.644 224.739 513.213C224.739 513.787 224.825 514.305 224.998 514.767C225.175 515.224 225.439 515.586 225.789 515.852C226.139 516.118 226.577 516.251 227.105 516.251ZM229.478 517V511.309H229.366V506.92H230.402V517H229.478ZM237.905 517.21C237.154 517.21 236.512 517.04 235.98 516.699C235.448 516.358 235.04 515.887 234.755 515.285C234.471 514.683 234.328 513.992 234.328 513.213C234.328 512.42 234.473 511.724 234.762 511.127C235.052 510.53 235.462 510.065 235.994 509.734C236.531 509.398 237.168 509.23 237.905 509.23C238.661 509.23 239.305 509.4 239.837 509.741C240.374 510.077 240.782 510.546 241.062 511.148C241.347 511.745 241.489 512.434 241.489 513.213C241.489 514.006 241.347 514.704 241.062 515.306C240.778 515.903 240.367 516.37 239.83 516.706C239.294 517.042 238.652 517.21 237.905 517.21ZM237.905 516.223C238.745 516.223 239.371 515.945 239.781 515.39C240.192 514.83 240.397 514.104 240.397 513.213C240.397 512.298 240.19 511.57 239.774 511.029C239.364 510.488 238.741 510.217 237.905 510.217C237.341 510.217 236.874 510.345 236.505 510.602C236.141 510.854 235.868 511.206 235.686 511.659C235.509 512.107 235.42 512.625 235.42 513.213C235.42 514.123 235.63 514.853 236.05 515.404C236.47 515.95 237.089 516.223 237.905 516.223ZM242.963 508.005V506.85H243.992V508.005H242.963ZM242.963 517V509.44H243.992V517H242.963ZM246.021 517V506.71H247.05V517H246.021Z" fill="#433B39"/>
<rect x="114.044" width="56" height="80" rx="4" fill="#F2AF29"/>
<path d="M188.774 33V24.761L186.884 25.916V24.054L188.774 22.92H190.496V33H188.774ZM196.648 33.21C195.934 33.21 195.304 33.0583 194.758 32.755C194.212 32.447 193.785 32.02 193.477 31.474C193.174 30.928 193.022 30.298 193.022 29.584V26.336C193.022 25.622 193.174 24.992 193.477 24.446C193.785 23.9 194.212 23.4753 194.758 23.172C195.304 22.864 195.934 22.71 196.648 22.71C197.362 22.71 197.99 22.864 198.531 23.172C199.077 23.4753 199.504 23.9 199.812 24.446C200.12 24.992 200.274 25.622 200.274 26.336V29.584C200.274 30.298 200.12 30.928 199.812 31.474C199.504 32.02 199.077 32.447 198.531 32.755C197.99 33.0583 197.362 33.21 196.648 33.21ZM196.648 31.607C197.003 31.607 197.325 31.523 197.614 31.355C197.904 31.1823 198.132 30.9537 198.3 30.669C198.468 30.3797 198.552 30.0577 198.552 29.703V26.21C198.552 25.8507 198.468 25.5287 198.3 25.244C198.132 24.9547 197.904 24.726 197.614 24.558C197.325 24.3853 197.003 24.299 196.648 24.299C196.294 24.299 195.972 24.3853 195.682 24.558C195.393 24.726 195.164 24.9547 194.996 25.244C194.828 25.5287 194.744 25.8507 194.744 26.21V29.703C194.744 30.0577 194.828 30.3797 194.996 30.669C195.164 30.9537 195.393 31.1823 195.682 31.355C195.972 31.523 196.294 31.607 196.648 31.607ZM205.723 33.21C205.009 33.21 204.379 33.0583 203.833 32.755C203.287 32.447 202.86 32.02 202.552 31.474C202.249 30.928 202.097 30.298 202.097 29.584V26.336C202.097 25.622 202.249 24.992 202.552 24.446C202.86 23.9 203.287 23.4753 203.833 23.172C204.379 22.864 205.009 22.71 205.723 22.71C206.437 22.71 207.065 22.864 207.606 23.172C208.152 23.4753 208.579 23.9 208.887 24.446C209.195 24.992 209.349 25.622 209.349 26.336V29.584C209.349 30.298 209.195 30.928 208.887 31.474C208.579 32.02 208.152 32.447 207.606 32.755C207.065 33.0583 206.437 33.21 205.723 33.21ZM205.723 31.607C206.078 31.607 206.4 31.523 206.689 31.355C206.979 31.1823 207.207 30.9537 207.375 30.669C207.543 30.3797 207.627 30.0577 207.627 29.703V26.21C207.627 25.8507 207.543 25.5287 207.375 25.244C207.207 24.9547 206.979 24.726 206.689 24.558C206.4 24.3853 206.078 24.299 205.723 24.299C205.369 24.299 205.047 24.3853 204.757 24.558C204.468 24.726 204.239 24.9547 204.071 25.244C203.903 25.5287 203.819 25.8507 203.819 26.21V29.703C203.819 30.0577 203.903 30.3797 204.071 30.669C204.239 30.9537 204.468 31.1823 204.757 31.355C205.047 31.523 205.369 31.607 205.723 31.607ZM214.798 33.21C214.084 33.21 213.454 33.0583 212.908 32.755C212.362 32.447 211.935 32.02 211.627 31.474C211.324 30.928 211.172 30.298 211.172 29.584V26.336C211.172 25.622 211.324 24.992 211.627 24.446C211.935 23.9 212.362 23.4753 212.908 23.172C213.454 22.864 214.084 22.71 214.798 22.71C215.512 22.71 216.14 22.864 216.681 23.172C217.227 23.4753 217.654 23.9 217.962 24.446C218.27 24.992 218.424 25.622 218.424 26.336V29.584C218.424 30.298 218.27 30.928 217.962 31.474C217.654 32.02 217.227 32.447 216.681 32.755C216.14 33.0583 215.512 33.21 214.798 33.21ZM214.798 31.607C215.153 31.607 215.475 31.523 215.764 31.355C216.053 31.1823 216.282 30.9537 216.45 30.669C216.618 30.3797 216.702 30.0577 216.702 29.703V26.21C216.702 25.8507 216.618 25.5287 216.45 25.244C216.282 24.9547 216.053 24.726 215.764 24.558C215.475 24.3853 215.153 24.299 214.798 24.299C214.443 24.299 214.121 24.3853 213.832 24.558C213.543 24.726 213.314 24.9547 213.146 25.244C212.978 25.5287 212.894 25.8507 212.894 26.21V29.703C212.894 30.0577 212.978 30.3797 213.146 30.669C213.314 30.9537 213.543 31.1823 213.832 31.355C214.121 31.523 214.443 31.607 214.798 31.607ZM223.425 36.57C223.005 36.57 222.601 36.5047 222.214 36.374C221.831 36.2433 221.486 36.0543 221.178 35.807C220.87 35.5643 220.618 35.2703 220.422 34.925L221.976 34.155C222.121 34.4303 222.324 34.6333 222.585 34.764C222.851 34.8993 223.133 34.967 223.432 34.967C223.782 34.967 224.095 34.904 224.37 34.778C224.645 34.6567 224.858 34.4747 225.007 34.232C225.161 33.994 225.233 33.6953 225.224 33.336V31.187H225.434V25.44H226.911V33.364C226.911 33.5553 226.902 33.7373 226.883 33.91C226.869 34.0873 226.843 34.26 226.806 34.428C226.694 34.918 226.479 35.3193 226.162 35.632C225.845 35.9493 225.45 36.185 224.979 36.339C224.512 36.493 223.994 36.57 223.425 36.57ZM223.278 33.21C222.583 33.21 221.976 33.035 221.458 32.685C220.94 32.335 220.539 31.859 220.254 31.257C219.969 30.655 219.827 29.976 219.827 29.22C219.827 28.4547 219.969 27.7733 220.254 27.176C220.543 26.574 220.952 26.1003 221.479 25.755C222.006 25.405 222.627 25.23 223.341 25.23C224.06 25.23 224.662 25.405 225.147 25.755C225.637 26.1003 226.008 26.574 226.26 27.176C226.512 27.778 226.638 28.4593 226.638 29.22C226.638 29.9713 226.512 30.6503 226.26 31.257C226.008 31.859 225.632 32.335 225.133 32.685C224.634 33.035 224.015 33.21 223.278 33.21ZM223.537 31.698C223.99 31.698 224.354 31.5953 224.629 31.39C224.909 31.18 225.112 30.8883 225.238 30.515C225.369 30.1417 225.434 29.71 225.434 29.22C225.434 28.7253 225.369 28.2937 225.238 27.925C225.112 27.5517 224.914 27.2623 224.643 27.057C224.372 26.847 224.022 26.742 223.593 26.742C223.14 26.742 222.767 26.854 222.473 27.078C222.179 27.2973 221.962 27.596 221.822 27.974C221.682 28.3473 221.612 28.7627 221.612 29.22C221.612 29.682 221.68 30.102 221.815 30.48C221.955 30.8533 222.167 31.1497 222.452 31.369C222.737 31.5883 223.098 31.698 223.537 31.698ZM237.813 33V28.408C237.813 27.89 237.685 27.4863 237.428 27.197C237.171 26.903 236.824 26.756 236.385 26.756C236.114 26.756 235.872 26.819 235.657 26.945C235.442 27.0663 235.272 27.2483 235.146 27.491C235.02 27.729 234.957 28.0137 234.957 28.345L234.208 27.904C234.203 27.3813 234.32 26.9217 234.558 26.525C234.801 26.1237 235.127 25.811 235.538 25.587C235.949 25.363 236.406 25.251 236.91 25.251C237.745 25.251 238.385 25.503 238.828 26.007C239.276 26.5063 239.5 27.1643 239.5 27.981V33H237.813ZM228.72 33V25.44H230.211V27.785H230.421V33H228.72ZM233.277 33V28.429C233.277 27.9017 233.149 27.491 232.892 27.197C232.635 26.903 232.285 26.756 231.842 26.756C231.413 26.756 231.067 26.903 230.806 27.197C230.549 27.491 230.421 27.8737 230.421 28.345L229.665 27.841C229.665 27.351 229.786 26.91 230.029 26.518C230.272 26.126 230.598 25.818 231.009 25.594C231.424 25.3653 231.889 25.251 232.402 25.251C232.967 25.251 233.438 25.3723 233.816 25.615C234.199 25.853 234.483 26.1797 234.67 26.595C234.861 27.0057 234.957 27.47 234.957 27.988V33H233.277Z" fill="#433B39"/>
<path d="M191.063 55.21C190.353 55.21 189.714 55.0863 189.145 54.839C188.575 54.5917 188.09 54.2393 187.689 53.782C187.292 53.3247 186.989 52.774 186.779 52.13C186.569 51.4813 186.464 50.758 186.464 49.96C186.464 48.9053 186.646 47.986 187.01 47.202C187.378 46.4133 187.906 45.802 188.592 45.368C189.278 44.934 190.101 44.717 191.063 44.717C192.136 44.717 193.009 44.969 193.681 45.473C194.357 45.9723 194.829 46.6443 195.095 47.489L194.059 47.741C193.839 47.125 193.478 46.6327 192.974 46.264C192.474 45.8953 191.851 45.711 191.105 45.711C190.316 45.7063 189.66 45.8837 189.138 46.243C188.615 46.5977 188.221 47.097 187.955 47.741C187.693 48.3803 187.56 49.12 187.556 49.96C187.551 50.8 187.679 51.5397 187.941 52.179C188.207 52.8137 188.603 53.313 189.131 53.677C189.658 54.0363 190.316 54.2183 191.105 54.223C191.828 54.223 192.425 54.083 192.897 53.803C193.368 53.523 193.725 53.1217 193.968 52.599C194.215 52.0763 194.355 51.458 194.388 50.744H192.064V49.862H195.466C195.48 49.9693 195.487 50.0837 195.487 50.205C195.491 50.3217 195.494 50.4057 195.494 50.457C195.494 51.367 195.33 52.1813 195.004 52.9C194.677 53.614 194.185 54.1787 193.527 54.594C192.873 55.0047 192.052 55.21 191.063 55.21ZM196.685 55V47.44H197.609V49.26L197.427 49.022C197.511 48.798 197.62 48.5927 197.756 48.406C197.891 48.2147 198.038 48.0583 198.197 47.937C198.393 47.7643 198.621 47.6337 198.883 47.545C199.144 47.4517 199.408 47.398 199.674 47.384C199.94 47.3653 200.182 47.384 200.402 47.44V48.406C200.126 48.336 199.825 48.3197 199.499 48.357C199.172 48.3943 198.871 48.525 198.596 48.749C198.344 48.945 198.155 49.1807 198.029 49.456C197.903 49.7267 197.819 50.016 197.777 50.324C197.735 50.6273 197.714 50.9283 197.714 51.227V55H196.685ZM204.54 55.21C203.789 55.21 203.147 55.0397 202.615 54.699C202.083 54.3583 201.675 53.887 201.39 53.285C201.105 52.683 200.963 51.9923 200.963 51.213C200.963 50.4197 201.108 49.7243 201.397 49.127C201.686 48.5297 202.097 48.0653 202.629 47.734C203.166 47.398 203.803 47.23 204.54 47.23C205.296 47.23 205.94 47.4003 206.472 47.741C207.009 48.077 207.417 48.546 207.697 49.148C207.982 49.7453 208.124 50.4337 208.124 51.213C208.124 52.0063 207.982 52.704 207.697 53.306C207.412 53.9033 207.002 54.37 206.465 54.706C205.928 55.042 205.287 55.21 204.54 55.21ZM204.54 54.223C205.38 54.223 206.005 53.9453 206.416 53.39C206.827 52.83 207.032 52.1043 207.032 51.213C207.032 50.2983 206.824 49.5703 206.409 49.029C205.998 48.4877 205.375 48.217 204.54 48.217C203.975 48.217 203.509 48.3453 203.14 48.602C202.776 48.854 202.503 49.2063 202.321 49.659C202.144 50.107 202.055 50.625 202.055 51.213C202.055 52.123 202.265 52.8533 202.685 53.404C203.105 53.95 203.723 54.223 204.54 54.223ZM212.349 55.189C211.896 55.189 211.5 55.119 211.159 54.979C210.823 54.839 210.536 54.65 210.298 54.412C210.065 54.174 209.876 53.9033 209.731 53.6C209.586 53.292 209.481 52.9677 209.416 52.627C209.351 52.2817 209.318 51.9387 209.318 51.598V47.44H210.354V51.297C210.354 51.7123 210.394 52.0973 210.473 52.452C210.552 52.8067 210.678 53.117 210.851 53.383C211.028 53.6443 211.255 53.8473 211.53 53.992C211.81 54.1367 212.148 54.209 212.545 54.209C212.909 54.209 213.229 54.146 213.504 54.02C213.784 53.894 214.017 53.7143 214.204 53.481C214.395 53.243 214.54 52.956 214.638 52.62C214.736 52.2793 214.785 51.8967 214.785 51.472L215.513 51.633C215.513 52.4077 215.378 53.0587 215.107 53.586C214.836 54.1133 214.463 54.5123 213.987 54.783C213.511 55.0537 212.965 55.189 212.349 55.189ZM214.89 55V53.138H214.785V47.44H215.814V55H214.89ZM223.021 55V51.143C223.021 50.723 222.981 50.338 222.902 49.988C222.822 49.6333 222.694 49.3253 222.517 49.064C222.344 48.798 222.118 48.5927 221.838 48.448C221.562 48.3033 221.226 48.231 220.83 48.231C220.466 48.231 220.144 48.294 219.864 48.42C219.588 48.546 219.355 48.728 219.164 48.966C218.977 49.1993 218.835 49.484 218.737 49.82C218.639 50.156 218.59 50.5387 218.59 50.968L217.862 50.807C217.862 50.0323 217.997 49.3813 218.268 48.854C218.538 48.3267 218.912 47.9277 219.388 47.657C219.864 47.3863 220.41 47.251 221.026 47.251C221.478 47.251 221.873 47.321 222.209 47.461C222.549 47.601 222.836 47.79 223.07 48.028C223.308 48.266 223.499 48.539 223.644 48.847C223.788 49.1503 223.893 49.4747 223.959 49.82C224.024 50.1607 224.057 50.5013 224.057 50.842V55H223.021ZM217.554 55V47.44H218.485V49.302H218.59V55H217.554ZM228.555 55.21C227.85 55.21 227.248 55.035 226.749 54.685C226.25 54.3303 225.867 53.852 225.601 53.25C225.335 52.648 225.202 51.969 225.202 51.213C225.202 50.4617 225.333 49.785 225.594 49.183C225.86 48.581 226.24 48.105 226.735 47.755C227.23 47.405 227.822 47.23 228.513 47.23C229.222 47.23 229.82 47.4027 230.305 47.748C230.79 48.0933 231.157 48.567 231.404 49.169C231.656 49.7663 231.782 50.4477 231.782 51.213C231.782 51.9643 231.658 52.6433 231.411 53.25C231.164 53.852 230.8 54.3303 230.319 54.685C229.838 55.035 229.25 55.21 228.555 55.21ZM228.66 54.251C229.197 54.251 229.64 54.1203 229.99 53.859C230.34 53.5977 230.601 53.2383 230.774 52.781C230.947 52.319 231.033 51.7963 231.033 51.213C231.033 50.6203 230.947 50.0977 230.774 49.645C230.601 49.1877 230.34 48.8307 229.99 48.574C229.645 48.3173 229.208 48.189 228.681 48.189C228.14 48.189 227.692 48.322 227.337 48.588C226.982 48.854 226.719 49.2157 226.546 49.673C226.378 50.1303 226.294 50.6437 226.294 51.213C226.294 51.787 226.38 52.305 226.553 52.767C226.73 53.2243 226.994 53.586 227.344 53.852C227.694 54.118 228.133 54.251 228.66 54.251ZM231.033 55V49.309H230.921V44.92H231.957V55H231.033ZM239.171 55V51.143C239.171 50.723 239.131 50.338 239.052 49.988C238.973 49.6333 238.844 49.3253 238.667 49.064C238.494 48.798 238.268 48.5927 237.988 48.448C237.713 48.3033 237.377 48.231 236.98 48.231C236.616 48.231 236.294 48.294 236.014 48.42C235.739 48.546 235.505 48.728 235.314 48.966C235.127 49.1993 234.985 49.484 234.887 49.82C234.789 50.156 234.74 50.5387 234.74 50.968L234.012 50.807C234.012 50.0323 234.147 49.3813 234.418 48.854C234.689 48.3267 235.062 47.9277 235.538 47.657C236.014 47.3863 236.56 47.251 237.176 47.251C237.629 47.251 238.023 47.321 238.359 47.461C238.7 47.601 238.987 47.79 239.22 48.028C239.458 48.266 239.649 48.539 239.794 48.847C239.939 49.1503 240.044 49.4747 240.109 49.82C240.174 50.1607 240.207 50.5013 240.207 50.842V55H239.171ZM233.704 55V47.44H234.635V49.302H234.74V55H233.704ZM244.704 55.189C244.252 55.189 243.855 55.119 243.514 54.979C243.178 54.839 242.891 54.65 242.653 54.412C242.42 54.174 242.231 53.9033 242.086 53.6C241.942 53.292 241.837 52.9677 241.771 52.627C241.706 52.2817 241.673 51.9387 241.673 51.598V47.44H242.709V51.297C242.709 51.7123 242.749 52.0973 242.828 52.452C242.908 52.8067 243.034 53.117 243.206 53.383C243.384 53.6443 243.61 53.8473 243.885 53.992C244.165 54.1367 244.504 54.209 244.9 54.209C245.264 54.209 245.584 54.146 245.859 54.02C246.139 53.894 246.373 53.7143 246.559 53.481C246.751 53.243 246.895 52.956 246.993 52.62C247.091 52.2793 247.14 51.8967 247.14 51.472L247.868 51.633C247.868 52.4077 247.733 53.0587 247.462 53.586C247.192 54.1133 246.818 54.5123 246.342 54.783C245.866 55.0537 245.32 55.189 244.704 55.189ZM247.245 55V53.138H247.14V47.44H248.169V55H247.245ZM254.032 55C253.607 55.0887 253.187 55.1237 252.772 55.105C252.361 55.0863 251.993 54.9977 251.666 54.839C251.344 54.6803 251.099 54.433 250.931 54.097C250.796 53.817 250.721 53.5347 250.707 53.25C250.698 52.9607 250.693 52.6317 250.693 52.263V45.34H251.715V52.221C251.715 52.5383 251.717 52.8043 251.722 53.019C251.731 53.229 251.78 53.4157 251.869 53.579C252.037 53.8917 252.303 54.0783 252.667 54.139C253.036 54.1997 253.491 54.1857 254.032 54.097V55ZM249.076 48.322V47.44H254.032V48.322H249.076ZM258.132 55.203C257.246 55.203 256.515 55.0117 255.941 54.629C255.372 54.2463 255.022 53.7143 254.891 53.033L255.941 52.858C256.053 53.2873 256.308 53.6303 256.704 53.887C257.106 54.139 257.6 54.265 258.188 54.265C258.762 54.265 259.215 54.146 259.546 53.908C259.878 53.6653 260.043 53.3363 260.043 52.921C260.043 52.6877 259.99 52.4987 259.882 52.354C259.78 52.2047 259.567 52.067 259.245 51.941C258.923 51.815 258.443 51.6657 257.803 51.493C257.117 51.3063 256.581 51.1197 256.193 50.933C255.806 50.7463 255.531 50.5317 255.367 50.289C255.204 50.0417 255.122 49.7407 255.122 49.386C255.122 48.9567 255.244 48.581 255.486 48.259C255.729 47.9323 256.065 47.6803 256.494 47.503C256.924 47.321 257.423 47.23 257.992 47.23C258.562 47.23 259.07 47.3233 259.518 47.51C259.971 47.692 260.335 47.9487 260.61 48.28C260.886 48.6113 261.049 48.9963 261.1 49.435L260.05 49.624C259.98 49.1807 259.759 48.8307 259.385 48.574C259.017 48.3127 258.548 48.1773 257.978 48.168C257.442 48.154 257.005 48.2567 256.669 48.476C256.333 48.6907 256.165 48.9777 256.165 49.337C256.165 49.5377 256.226 49.7103 256.347 49.855C256.469 49.995 256.688 50.128 257.005 50.254C257.327 50.38 257.785 50.5177 258.377 50.667C259.073 50.8443 259.619 51.031 260.015 51.227C260.412 51.423 260.694 51.654 260.862 51.92C261.03 52.186 261.114 52.515 261.114 52.907C261.114 53.621 260.848 54.1833 260.316 54.594C259.789 55 259.061 55.203 258.132 55.203Z" fill="#433B39"/>
<path d="M219.025 370.083C219.416 370.474 220.049 370.474 220.439 370.083L226.803 363.72C227.194 363.329 227.194 362.696 226.803 362.305C226.413 361.915 225.78 361.915 225.389 362.305L219.732 367.962L214.075 362.305C213.685 361.915 213.052 361.915 212.661 362.305C212.271 362.696 212.271 363.329 212.661 363.72L219.025 370.083ZM141.044 93.6465L141.044 168.033L143.044 168.033L143.044 93.6465L141.044 93.6465ZM150.044 177.033L211.732 177.033L211.732 175.033L150.044 175.033L150.044 177.033ZM218.732 184.033L218.732 369.376L220.732 369.376L220.732 184.033L218.732 184.033ZM211.732 177.033C215.598 177.033 218.732 180.167 218.732 184.033L220.732 184.033C220.732 179.063 216.703 175.033 211.732 175.033L211.732 177.033ZM141.044 168.033C141.044 173.004 145.073 177.033 150.044 177.033L150.044 175.033C146.178 175.033 143.044 171.899 143.044 168.033L141.044 168.033Z" fill="#D0CECE"/>
<path d="M65.0623 368.631C64.6718 369.022 64.0386 369.022 63.6481 368.631L57.2841 362.267C56.8936 361.877 56.8936 361.243 57.2841 360.853C57.6747 360.462 58.3078 360.462 58.6983 360.853L64.3552 366.51L70.0121 360.853C70.4026 360.462 71.0357 360.462 71.4263 360.853C71.8168 361.243 71.8168 361.877 71.4263 362.267L65.0623 368.631ZM143.044 93.6465L143.044 168.033L141.044 168.033L141.044 93.6465L143.044 93.6465ZM134.044 177.033L72.3552 177.033L72.3552 175.033L134.044 175.033L134.044 177.033ZM65.3552 184.033L65.3552 367.924L63.3552 367.924L63.3552 184.033L65.3552 184.033ZM72.3552 177.033C68.4892 177.033 65.3552 180.167 65.3552 184.033L63.3552 184.033C63.3552 179.063 67.3847 175.033 72.3552 175.033L72.3552 177.033ZM143.044 168.033C143.044 173.004 139.014 177.033 134.044 177.033L134.044 175.033C137.91 175.033 141.044 171.899 141.044 168.033L143.044 168.033Z" fill="#D0CECE"/>
<rect x="154.584" y="253" width="97.2262" height="32" rx="16" fill="#FBF4F4"/>
<path d="M177.331 267.79C177.49 268.59 177.49 269.414 177.33 270.214L175.946 270.982L175.753 271.088L175.649 271.282C175.565 271.438 175.486 271.579 175.405 271.709L175.288 271.896L175.291 272.117L175.314 273.702C174.702 274.242 173.989 274.655 173.217 274.918L171.851 274.1L171.673 273.994H171.466H170.928H170.72L170.542 274.101L169.181 274.919C168.409 274.655 167.695 274.244 167.08 273.708L167.109 272.12L167.114 271.888L166.986 271.693C166.904 271.569 166.829 271.44 166.763 271.306L166.66 271.095L166.455 270.982L165.063 270.21C164.904 269.411 164.904 268.589 165.063 267.79L166.449 267.018L166.641 266.911L166.745 266.718C166.83 266.561 166.904 266.43 166.984 266.31L167.114 266.115L167.109 265.88L167.08 264.297C167.693 263.757 168.407 263.344 169.18 263.081L170.542 263.899L170.732 264.014L170.954 264.006C171.118 264 171.276 264 171.44 264.006L171.662 264.014L171.852 263.899L173.213 263.081C173.986 263.344 174.7 263.755 175.314 264.292L175.291 265.883L175.288 266.108L175.409 266.298C175.489 266.423 175.562 266.554 175.629 266.691L175.733 266.904L175.939 267.018L177.331 267.79ZM166.996 264.373C166.995 264.374 166.994 264.375 166.994 264.375L166.994 264.375L166.996 264.373ZM175.4 273.625L175.398 273.627L175.4 273.625L175.4 273.625ZM174.107 270.945C174.492 270.369 174.697 269.692 174.697 269C174.697 268.072 174.328 267.182 173.672 266.525C173.015 265.869 172.125 265.5 171.197 265.5C170.505 265.5 169.828 265.705 169.252 266.09C168.677 266.474 168.228 267.021 167.963 267.661C167.699 268.3 167.629 269.004 167.764 269.683C167.899 270.362 168.233 270.985 168.722 271.475C169.212 271.964 169.835 272.298 170.514 272.433C171.193 272.568 171.897 272.499 172.536 272.234C173.176 271.969 173.723 271.52 174.107 270.945Z" fill="#B61F1F" stroke="#B61F1F" stroke-width="1.5"/>
<path d="M184.037 274V265.36H187.685C187.769 265.36 187.881 265.364 188.021 265.372C188.165 265.376 188.293 265.388 188.405 265.408C188.921 265.488 189.343 265.658 189.671 265.918C190.003 266.178 190.247 266.506 190.403 266.902C190.559 267.294 190.637 267.732 190.637 268.216C190.637 268.94 190.457 269.56 190.097 270.076C189.737 270.588 189.173 270.904 188.405 271.024L187.685 271.072H185.669V274H184.037ZM188.909 274L187.205 270.484L188.885 270.16L190.757 274H188.909ZM185.669 269.548H187.613C187.697 269.548 187.789 269.544 187.889 269.536C187.989 269.528 188.081 269.512 188.165 269.488C188.385 269.428 188.555 269.328 188.675 269.188C188.795 269.044 188.877 268.886 188.921 268.714C188.969 268.538 188.993 268.372 188.993 268.216C188.993 268.06 188.969 267.896 188.921 267.724C188.877 267.548 188.795 267.39 188.675 267.25C188.555 267.106 188.385 267.004 188.165 266.944C188.081 266.92 187.989 266.904 187.889 266.896C187.789 266.888 187.697 266.884 187.613 266.884H185.669V269.548ZM192.676 274V265.36H198.316V266.884H194.308V268.732H197.596V270.256H194.308V272.476H198.316V274H192.676ZM200.354 274V265.36H205.634V266.992H201.986V268.864H204.914V270.496H201.986V274H200.354ZM207.437 274V265.36H209.069V274H207.437ZM211.468 274V265.36H213.124L216.88 271.12V265.36H218.536V274H216.88L213.124 268.24V274H211.468ZM220.93 274V265.36H222.562V274H220.93ZM224.961 274V265.36H226.617L230.373 271.12V265.36H232.029V274H230.373L226.617 268.24V274H224.961ZM237.903 274.18C237.359 274.18 236.841 274.084 236.349 273.892C235.857 273.696 235.421 273.408 235.041 273.028C234.665 272.648 234.367 272.178 234.147 271.618C233.931 271.058 233.823 270.412 233.823 269.68C233.823 268.724 234.005 267.912 234.369 267.244C234.737 266.572 235.229 266.06 235.845 265.708C236.465 265.356 237.151 265.18 237.903 265.18C239.015 265.18 239.889 265.438 240.525 265.954C241.161 266.47 241.587 267.2 241.803 268.144L240.135 268.384C239.979 267.88 239.723 267.478 239.367 267.178C239.015 266.874 238.563 266.72 238.011 266.716C237.463 266.708 237.007 266.826 236.643 267.07C236.279 267.314 236.005 267.66 235.821 268.108C235.641 268.556 235.551 269.08 235.551 269.68C235.551 270.28 235.641 270.8 235.821 271.24C236.005 271.68 236.279 272.022 236.643 272.266C237.007 272.51 237.463 272.636 238.011 272.644C238.383 272.652 238.719 272.588 239.019 272.452C239.323 272.316 239.579 272.102 239.787 271.81C239.995 271.518 240.143 271.144 240.231 270.688H238.863V269.428H241.971C241.979 269.48 241.985 269.572 241.989 269.704C241.993 269.836 241.995 269.912 241.995 269.932C241.995 270.76 241.827 271.494 241.491 272.134C241.155 272.774 240.681 273.276 240.069 273.64C239.457 274 238.735 274.18 237.903 274.18Z" fill="#B61F1F"/>
<rect x="154.584" y="253" width="97.2262" height="32" rx="16" stroke="white" stroke-width="4"/>
<rect x="2" y="253" width="139.955" height="32" rx="16" fill="#E9F3E9"/>
<path d="M24.1115 267.79C24.2703 268.59 24.27 269.414 24.1107 270.214L22.726 270.982L22.5337 271.088L22.4294 271.282C22.3452 271.438 22.2664 271.579 22.185 271.709L22.0678 271.896L22.0711 272.117L22.0944 273.702C21.4823 274.242 20.7697 274.655 19.9975 274.918L18.6311 274.1L18.4532 273.994H18.246H17.7085H17.5005L17.3222 274.101L15.961 274.919C15.1891 274.655 14.4757 274.244 13.8604 273.708L13.8896 272.12L13.8939 271.888L13.7659 271.693C13.6838 271.569 13.6096 271.44 13.5437 271.306L13.4399 271.095L13.2348 270.982L11.843 270.21C11.6845 269.411 11.6845 268.589 11.8431 267.79L13.2297 267.018L13.4212 266.911L13.5251 266.718C13.61 266.561 13.684 266.43 13.7638 266.31L13.8939 266.115L13.8896 265.88L13.8605 264.297C14.4735 263.757 15.1873 263.344 15.9607 263.081L17.3222 263.899L17.5125 264.014L17.7344 264.006C17.8984 264 18.0561 264 18.2202 264.006L18.442 264.014L18.6323 263.899L19.9938 263.081C20.7664 263.344 21.48 263.755 22.0945 264.292L22.0711 265.883L22.0678 266.108L22.189 266.298C22.2691 266.423 22.3425 266.554 22.4093 266.691L22.5129 266.904L22.7197 267.018L24.1115 267.79ZM13.7759 264.373C13.7753 264.374 13.7747 264.375 13.7741 264.375L13.7741 264.375L13.7759 264.373ZM22.1805 273.625L22.1786 273.627L22.1805 273.625L22.1805 273.625ZM20.8874 270.945C21.272 270.369 21.4773 269.692 21.4773 269C21.4773 268.072 21.1085 267.182 20.4521 266.525C19.7958 265.869 18.9055 265.5 17.9773 265.5C17.285 265.5 16.6083 265.705 16.0328 266.09C15.4572 266.474 15.0086 267.021 14.7437 267.661C14.4788 268.3 14.4095 269.004 14.5445 269.683C14.6796 270.362 15.0129 270.985 15.5024 271.475C15.9919 271.964 16.6155 272.298 17.2944 272.433C17.9734 272.568 18.6771 272.499 19.3167 272.234C19.9562 271.969 20.5028 271.52 20.8874 270.945Z" fill="#228B22" stroke="#228B22" stroke-width="1.5"/>
<path d="M34.5253 274.18C33.6613 274.18 32.9153 273.992 32.2873 273.616C31.6633 273.24 31.1813 272.714 30.8413 272.038C30.5053 271.362 30.3373 270.576 30.3373 269.68C30.3373 268.784 30.5053 267.998 30.8413 267.322C31.1813 266.646 31.6633 266.12 32.2873 265.744C32.9153 265.368 33.6613 265.18 34.5253 265.18C35.5173 265.18 36.3493 265.426 37.0213 265.918C37.6973 266.41 38.1733 267.076 38.4493 267.916L36.8053 268.372C36.6453 267.848 36.3753 267.442 35.9953 267.154C35.6153 266.862 35.1253 266.716 34.5253 266.716C33.9773 266.716 33.5193 266.838 33.1513 267.082C32.7873 267.326 32.5133 267.67 32.3293 268.114C32.1453 268.558 32.0533 269.08 32.0533 269.68C32.0533 270.28 32.1453 270.802 32.3293 271.246C32.5133 271.69 32.7873 272.034 33.1513 272.278C33.5193 272.522 33.9773 272.644 34.5253 272.644C35.1253 272.644 35.6153 272.498 35.9953 272.206C36.3753 271.914 36.6453 271.508 36.8053 270.988L38.4493 271.444C38.1733 272.284 37.6973 272.95 37.0213 273.442C36.3493 273.934 35.5173 274.18 34.5253 274.18ZM44.0784 274.18C43.2144 274.18 42.4684 273.992 41.8404 273.616C41.2164 273.24 40.7344 272.714 40.3944 272.038C40.0584 271.362 39.8904 270.576 39.8904 269.68C39.8904 268.784 40.0584 267.998 40.3944 267.322C40.7344 266.646 41.2164 266.12 41.8404 265.744C42.4684 265.368 43.2144 265.18 44.0784 265.18C44.9424 265.18 45.6864 265.368 46.3104 265.744C46.9384 266.12 47.4204 266.646 47.7564 267.322C48.0964 267.998 48.2664 268.784 48.2664 269.68C48.2664 270.576 48.0964 271.362 47.7564 272.038C47.4204 272.714 46.9384 273.24 46.3104 273.616C45.6864 273.992 44.9424 274.18 44.0784 274.18ZM44.0784 272.644C44.6264 272.652 45.0824 272.534 45.4464 272.29C45.8104 272.046 46.0824 271.7 46.2624 271.252C46.4464 270.804 46.5384 270.28 46.5384 269.68C46.5384 269.08 46.4464 268.56 46.2624 268.12C46.0824 267.68 45.8104 267.338 45.4464 267.094C45.0824 266.85 44.6264 266.724 44.0784 266.716C43.5304 266.708 43.0744 266.826 42.7104 267.07C42.3464 267.314 42.0724 267.66 41.8884 268.108C41.7084 268.556 41.6184 269.08 41.6184 269.68C41.6184 270.28 41.7084 270.8 41.8884 271.24C42.0724 271.68 42.3464 272.022 42.7104 272.266C43.0744 272.51 43.5304 272.636 44.0784 272.644ZM50.1842 274V265.36H51.8162V272.476H55.5362V274H50.1842ZM57.1564 274V265.36H59.9524C60.0204 265.36 60.1604 265.362 60.3724 265.366C60.5844 265.37 60.7884 265.384 60.9844 265.408C61.6804 265.492 62.2704 265.734 62.7544 266.134C63.2384 266.534 63.6064 267.042 63.8584 267.658C64.1104 268.274 64.2364 268.948 64.2364 269.68C64.2364 270.412 64.1104 271.086 63.8584 271.702C63.6064 272.318 63.2384 272.826 62.7544 273.226C62.2704 273.626 61.6804 273.868 60.9844 273.952C60.7884 273.976 60.5844 273.99 60.3724 273.994C60.1604 273.998 60.0204 274 59.9524 274H57.1564ZM58.8124 272.464H59.9524C60.0604 272.464 60.2064 272.462 60.3904 272.458C60.5744 272.45 60.7404 272.432 60.8884 272.404C61.2644 272.328 61.5704 272.152 61.8064 271.876C62.0464 271.6 62.2224 271.268 62.3344 270.88C62.4504 270.492 62.5084 270.092 62.5084 269.68C62.5084 269.248 62.4484 268.838 62.3284 268.45C62.2124 268.062 62.0344 267.734 61.7944 267.466C61.5544 267.198 61.2524 267.028 60.8884 266.956C60.7404 266.924 60.5744 266.906 60.3904 266.902C60.2064 266.898 60.0604 266.896 59.9524 266.896H58.8124V272.464ZM69.2782 274V265.36H72.9262C73.0102 265.36 73.1222 265.364 73.2622 265.372C73.4062 265.376 73.5342 265.388 73.6462 265.408C74.1622 265.488 74.5842 265.658 74.9122 265.918C75.2442 266.178 75.4882 266.506 75.6442 266.902C75.8002 267.294 75.8782 267.732 75.8782 268.216C75.8782 268.7 75.7982 269.14 75.6382 269.536C75.4822 269.928 75.2382 270.254 74.9062 270.514C74.5782 270.774 74.1582 270.944 73.6462 271.024C73.5342 271.04 73.4062 271.052 73.2622 271.06C73.1182 271.068 73.0062 271.072 72.9262 271.072H70.9102V274H69.2782ZM70.9102 269.548H72.8542C72.9382 269.548 73.0302 269.544 73.1302 269.536C73.2302 269.528 73.3222 269.512 73.4062 269.488C73.6262 269.428 73.7962 269.328 73.9162 269.188C74.0362 269.044 74.1182 268.886 74.1622 268.714C74.2102 268.538 74.2342 268.372 74.2342 268.216C74.2342 268.06 74.2102 267.896 74.1622 267.724C74.1182 267.548 74.0362 267.39 73.9162 267.25C73.7962 267.106 73.6262 267.004 73.4062 266.944C73.3222 266.92 73.2302 266.904 73.1302 266.896C73.0302 266.888 72.9382 266.884 72.8542 266.884H70.9102V269.548ZM77.6829 274V265.36H81.3309C81.4149 265.36 81.5269 265.364 81.6669 265.372C81.8109 265.376 81.9389 265.388 82.0509 265.408C82.5669 265.488 82.9889 265.658 83.3169 265.918C83.6489 266.178 83.8929 266.506 84.0489 266.902C84.2049 267.294 84.2829 267.732 84.2829 268.216C84.2829 268.94 84.1029 269.56 83.7429 270.076C83.3829 270.588 82.8189 270.904 82.0509 271.024L81.3309 271.072H79.3149V274H77.6829ZM82.5549 274L80.8509 270.484L82.5309 270.16L84.4029 274H82.5549ZM79.3149 269.548H81.2589C81.3429 269.548 81.4349 269.544 81.5349 269.536C81.6349 269.528 81.7269 269.512 81.8109 269.488C82.0309 269.428 82.2009 269.328 82.3209 269.188C82.4409 269.044 82.5229 268.886 82.5669 268.714C82.6149 268.538 82.6389 268.372 82.6389 268.216C82.6389 268.06 82.6149 267.896 82.5669 267.724C82.5229 267.548 82.4409 267.39 82.3209 267.25C82.2009 267.106 82.0309 267.004 81.8109 266.944C81.7269 266.92 81.6349 266.904 81.5349 266.896C81.4349 266.888 81.3429 266.884 81.2589 266.884H79.3149V269.548ZM86.322 274V265.36H91.962V266.884H87.954V268.732H91.242V270.256H87.954V272.476H91.962V274H86.322ZM97.2641 274.18C96.6241 274.18 96.0461 274.068 95.5301 273.844C95.0181 273.616 94.5961 273.292 94.2641 272.872C93.9361 272.448 93.7281 271.944 93.6401 271.36L95.3441 271.108C95.4641 271.604 95.7121 271.986 96.0881 272.254C96.4641 272.522 96.8921 272.656 97.3721 272.656C97.6401 272.656 97.9001 272.614 98.1521 272.53C98.4041 272.446 98.6101 272.322 98.7701 272.158C98.9341 271.994 99.0161 271.792 99.0161 271.552C99.0161 271.464 99.0021 271.38 98.9741 271.3C98.9501 271.216 98.9081 271.138 98.8481 271.066C98.7881 270.994 98.7021 270.926 98.5901 270.862C98.4821 270.798 98.3441 270.74 98.1761 270.688L95.9321 270.028C95.7641 269.98 95.5681 269.912 95.3441 269.824C95.1241 269.736 94.9101 269.61 94.7021 269.446C94.4941 269.282 94.3201 269.066 94.1801 268.798C94.0441 268.526 93.9761 268.184 93.9761 267.772C93.9761 267.192 94.1221 266.71 94.4141 266.326C94.7061 265.942 95.0961 265.656 95.5841 265.468C96.0721 265.28 96.6121 265.188 97.2041 265.192C97.8001 265.2 98.3321 265.302 98.8001 265.498C99.2681 265.694 99.6601 265.98 99.9761 266.356C100.292 266.728 100.52 267.184 100.66 267.724L98.8961 268.024C98.8321 267.744 98.7141 267.508 98.5421 267.316C98.3701 267.124 98.1641 266.978 97.9241 266.878C97.6881 266.778 97.4401 266.724 97.1801 266.716C96.9241 266.708 96.6821 266.744 96.4541 266.824C96.2301 266.9 96.0461 267.012 95.9021 267.16C95.7621 267.308 95.6921 267.484 95.6921 267.688C95.6921 267.876 95.7501 268.03 95.8661 268.15C95.9821 268.266 96.1281 268.36 96.3041 268.432C96.4801 268.504 96.6601 268.564 96.8441 268.612L98.3441 269.02C98.5681 269.08 98.8161 269.16 99.0881 269.26C99.3601 269.356 99.6201 269.492 99.8681 269.668C100.12 269.84 100.326 270.068 100.486 270.352C100.65 270.636 100.732 270.996 100.732 271.432C100.732 271.896 100.634 272.302 100.438 272.65C100.246 272.994 99.9861 273.28 99.6581 273.508C99.3301 273.732 98.9581 273.9 98.5421 274.012C98.1301 274.124 97.7041 274.18 97.2641 274.18ZM106.091 274.18C105.451 274.18 104.873 274.068 104.357 273.844C103.845 273.616 103.423 273.292 103.091 272.872C102.763 272.448 102.555 271.944 102.467 271.36L104.171 271.108C104.291 271.604 104.539 271.986 104.915 272.254C105.291 272.522 105.719 272.656 106.199 272.656C106.467 272.656 106.727 272.614 106.979 272.53C107.231 272.446 107.437 272.322 107.597 272.158C107.761 271.994 107.843 271.792 107.843 271.552C107.843 271.464 107.829 271.38 107.801 271.3C107.777 271.216 107.735 271.138 107.675 271.066C107.615 270.994 107.529 270.926 107.417 270.862C107.309 270.798 107.171 270.74 107.003 270.688L104.759 270.028C104.591 269.98 104.395 269.912 104.171 269.824C103.951 269.736 103.737 269.61 103.529 269.446C103.321 269.282 103.147 269.066 103.007 268.798C102.871 268.526 102.803 268.184 102.803 267.772C102.803 267.192 102.949 266.71 103.241 266.326C103.533 265.942 103.923 265.656 104.411 265.468C104.899 265.28 105.439 265.188 106.031 265.192C106.627 265.2 107.159 265.302 107.627 265.498C108.095 265.694 108.487 265.98 108.803 266.356C109.119 266.728 109.347 267.184 109.487 267.724L107.723 268.024C107.659 267.744 107.541 267.508 107.369 267.316C107.197 267.124 106.991 266.978 106.751 266.878C106.515 266.778 106.267 266.724 106.007 266.716C105.751 266.708 105.509 266.744 105.281 266.824C105.057 266.9 104.873 267.012 104.729 267.16C104.589 267.308 104.519 267.484 104.519 267.688C104.519 267.876 104.577 268.03 104.693 268.15C104.809 268.266 104.955 268.36 105.131 268.432C105.307 268.504 105.487 268.564 105.671 268.612L107.171 269.02C107.395 269.08 107.643 269.16 107.915 269.26C108.187 269.356 108.447 269.492 108.695 269.668C108.947 269.84 109.153 270.068 109.313 270.352C109.477 270.636 109.559 270.996 109.559 271.432C109.559 271.896 109.461 272.302 109.265 272.65C109.073 272.994 108.813 273.28 108.485 273.508C108.157 273.732 107.785 273.9 107.369 274.012C106.957 274.124 106.531 274.18 106.091 274.18ZM111.597 274V265.36H113.229V274H111.597ZM115.628 274V265.36H117.284L121.04 271.12V265.36H122.696V274H121.04L117.284 268.24V274H115.628ZM128.57 274.18C128.026 274.18 127.508 274.084 127.016 273.892C126.524 273.696 126.088 273.408 125.708 273.028C125.332 272.648 125.034 272.178 124.814 271.618C124.598 271.058 124.49 270.412 124.49 269.68C124.49 268.724 124.672 267.912 125.036 267.244C125.404 266.572 125.896 266.06 126.512 265.708C127.132 265.356 127.818 265.18 128.57 265.18C129.682 265.18 130.556 265.438 131.192 265.954C131.828 266.47 132.254 267.2 132.47 268.144L130.802 268.384C130.646 267.88 130.39 267.478 130.034 267.178C129.682 266.874 129.23 266.72 128.678 266.716C128.13 266.708 127.674 266.826 127.31 267.07C126.946 267.314 126.672 267.66 126.488 268.108C126.308 268.556 126.218 269.08 126.218 269.68C126.218 270.28 126.308 270.8 126.488 271.24C126.672 271.68 126.946 272.022 127.31 272.266C127.674 272.51 128.13 272.636 128.678 272.644C129.05 272.652 129.386 272.588 129.686 272.452C129.99 272.316 130.246 272.102 130.454 271.81C130.662 271.518 130.81 271.144 130.898 270.688H129.53V269.428H132.638C132.646 269.48 132.652 269.572 132.656 269.704C132.66 269.836 132.662 269.912 132.662 269.932C132.662 270.76 132.494 271.494 132.158 272.134C131.822 272.774 131.348 273.276 130.736 273.64C130.124 274 129.402 274.18 128.57 274.18Z" fill="#228B22"/>
<rect x="2" y="253" width="139.955" height="32" rx="16" stroke="white" stroke-width="4"/>
</svg>
