<svg width="32" height="32" viewBox="0 0 32 32" fill="none" xmlns="http://www.w3.org/2000/svg">
<path d="M21.7028 6.01613L21.7029 6.01631C25.1338 9.94619 26.9375 14.0947 26.9375 18.0002C26.9375 20.901 25.7852 23.683 23.734 25.7342C21.6828 27.7854 18.9008 28.9377 16 28.9377C13.0992 28.9377 10.3172 27.7854 8.26602 25.7342C6.21484 23.683 5.0625 20.901 5.0625 18.0002C5.0625 14.0947 6.86623 9.94619 10.2971 6.01631L10.2972 6.01613C11.8392 4.2363 13.5708 2.6301 15.4614 1.22604C15.6198 1.11699 15.8076 1.05859 16 1.05859C16.1924 1.05859 16.3802 1.11699 16.5386 1.22604C18.4292 2.6301 20.1608 4.2363 21.7028 6.01613ZM16.0385 3.20097L16 3.17088L15.9615 3.20097C15.072 3.89632 13.2904 5.39294 11.5446 7.43933C9.79928 9.48523 8.08653 12.0843 7.33948 14.9846L7.31936 15.0627H7.4H24.6H24.6806L24.6605 14.9846C23.9135 12.0843 22.2007 9.48523 20.4554 7.43933C18.7096 5.39294 16.928 3.89632 16.0385 3.20097Z" fill="white" stroke="white" stroke-width="0.125"/>
</svg>
