<svg width="20" height="20" viewBox="0 0 20 20" fill="none" xmlns="http://www.w3.org/2000/svg">
<path d="M8.12496 2.5V7.32813C8.12421 7.44049 8.09462 7.55079 8.03902 7.64844L3.07027 15.9297C3.01388 16.0242 2.98342 16.1318 2.98199 16.2419C2.98055 16.3519 3.00818 16.4603 3.06208 16.5562C3.11598 16.6521 3.19425 16.7321 3.28896 16.7881C3.38368 16.8441 3.4915 16.874 3.60152 16.875H16.3984C16.5084 16.874 16.6162 16.8441 16.7109 16.7881C16.8057 16.7321 16.8839 16.6521 16.9378 16.5562C16.9917 16.4603 17.0194 16.3519 17.0179 16.2419C17.0165 16.1318 16.986 16.0242 16.9296 15.9297L11.9609 7.64844C11.9053 7.55079 11.8757 7.44049 11.875 7.32813V2.5" stroke="#726C6B" stroke-width="1.5" stroke-linecap="round" stroke-linejoin="round"/>
<path d="M6.875 2.5H13.125" stroke="#726C6B" stroke-width="1.5" stroke-linecap="round" stroke-linejoin="round"/>
<path d="M4.89062 12.8907C5.8125 12.211 7.39844 11.8282 10 13.1251C12.7891 14.5235 14.4141 13.9688 15.3047 13.211" stroke="#726C6B" stroke-width="1.5" stroke-linecap="round" stroke-linejoin="round"/>
</svg>
