<svg width="1224" height="316" viewBox="0 0 1224 316" fill="none" xmlns="http://www.w3.org/2000/svg">
<path d="M770.117 267.302V265.398H765.013V263.598L768.701 255.782H770.901L767.213 263.598H770.117V260.598H772.069V263.598H773.149V265.398H772.069V267.302H770.117ZM779.051 267.542C778.235 267.542 777.515 267.368 776.891 267.022C776.267 266.67 775.779 266.182 775.427 265.558C775.08 264.934 774.907 264.214 774.907 263.398V259.686C774.907 258.87 775.08 258.15 775.427 257.526C775.779 256.902 776.267 256.416 776.891 256.07C777.515 255.718 778.235 255.542 779.051 255.542C779.867 255.542 780.584 255.718 781.203 256.07C781.827 256.416 782.315 256.902 782.667 257.526C783.019 258.15 783.195 258.87 783.195 259.686V263.398C783.195 264.214 783.019 264.934 782.667 265.558C782.315 266.182 781.827 266.67 781.203 267.022C780.584 267.368 779.867 267.542 779.051 267.542ZM779.051 265.71C779.456 265.71 779.824 265.614 780.155 265.422C780.486 265.224 780.747 264.963 780.939 264.638C781.131 264.307 781.227 263.939 781.227 263.534V259.542C781.227 259.131 781.131 258.763 780.939 258.438C780.747 258.107 780.486 257.846 780.155 257.654C779.824 257.456 779.456 257.358 779.051 257.358C778.646 257.358 778.278 257.456 777.947 257.654C777.616 257.846 777.355 258.107 777.163 258.438C776.971 258.763 776.875 259.131 776.875 259.542V263.534C776.875 263.939 776.971 264.307 777.163 264.638C777.355 264.963 777.616 265.224 777.947 265.422C778.278 265.614 778.646 265.71 779.051 265.71ZM789.422 267.542C788.606 267.542 787.886 267.368 787.262 267.022C786.638 266.67 786.15 266.182 785.798 265.558C785.452 264.934 785.278 264.214 785.278 263.398V259.686C785.278 258.87 785.452 258.15 785.798 257.526C786.15 256.902 786.638 256.416 787.262 256.07C787.886 255.718 788.606 255.542 789.422 255.542C790.238 255.542 790.956 255.718 791.574 256.07C792.198 256.416 792.686 256.902 793.038 257.526C793.39 258.15 793.566 258.87 793.566 259.686V263.398C793.566 264.214 793.39 264.934 793.038 265.558C792.686 266.182 792.198 266.67 791.574 267.022C790.956 267.368 790.238 267.542 789.422 267.542ZM789.422 265.71C789.828 265.71 790.196 265.614 790.526 265.422C790.857 265.224 791.118 264.963 791.31 264.638C791.502 264.307 791.598 263.939 791.598 263.534V259.542C791.598 259.131 791.502 258.763 791.31 258.438C791.118 258.107 790.857 257.846 790.526 257.654C790.196 257.456 789.828 257.358 789.422 257.358C789.017 257.358 788.649 257.456 788.318 257.654C787.988 257.846 787.726 258.107 787.534 258.438C787.342 258.763 787.246 259.131 787.246 259.542V263.534C787.246 263.939 787.342 264.307 787.534 264.638C787.726 264.963 787.988 265.224 788.318 265.422C788.649 265.614 789.017 265.71 789.422 265.71ZM802.325 271.382C801.845 271.382 801.383 271.307 800.941 271.158C800.503 271.008 800.109 270.792 799.757 270.51C799.405 270.232 799.117 269.896 798.893 269.502L800.669 268.622C800.834 268.936 801.066 269.168 801.365 269.318C801.669 269.472 801.991 269.55 802.333 269.55C802.733 269.55 803.09 269.478 803.405 269.334C803.719 269.195 803.962 268.987 804.133 268.71C804.309 268.438 804.391 268.096 804.381 267.686V265.23H804.621V258.662H806.309V267.718C806.309 267.936 806.298 268.144 806.277 268.342C806.261 268.544 806.231 268.742 806.189 268.934C806.061 269.494 805.815 269.952 805.453 270.31C805.09 270.672 804.639 270.942 804.101 271.118C803.567 271.294 802.975 271.382 802.325 271.382ZM802.157 267.542C801.362 267.542 800.669 267.342 800.077 266.942C799.485 266.542 799.026 265.998 798.701 265.31C798.375 264.622 798.213 263.846 798.213 262.982C798.213 262.107 798.375 261.328 798.701 260.646C799.031 259.958 799.498 259.416 800.101 259.022C800.703 258.622 801.413 258.422 802.229 258.422C803.05 258.422 803.738 258.622 804.293 259.022C804.853 259.416 805.277 259.958 805.565 260.646C805.853 261.334 805.997 262.112 805.997 262.982C805.997 263.84 805.853 264.616 805.565 265.31C805.277 265.998 804.847 266.542 804.277 266.942C803.706 267.342 802.999 267.542 802.157 267.542ZM802.453 265.814C802.97 265.814 803.386 265.696 803.701 265.462C804.021 265.222 804.253 264.888 804.397 264.462C804.546 264.035 804.621 263.542 804.621 262.982C804.621 262.416 804.546 261.923 804.397 261.502C804.253 261.075 804.026 260.744 803.717 260.51C803.407 260.27 803.007 260.15 802.517 260.15C801.999 260.15 801.573 260.278 801.237 260.534C800.901 260.784 800.653 261.126 800.493 261.558C800.333 261.984 800.253 262.459 800.253 262.982C800.253 263.51 800.33 263.99 800.485 264.422C800.645 264.848 800.887 265.187 801.213 265.438C801.538 265.688 801.951 265.814 802.453 265.814ZM818.768 267.302V262.054C818.768 261.462 818.621 261 818.328 260.67C818.035 260.334 817.637 260.166 817.136 260.166C816.827 260.166 816.549 260.238 816.304 260.382C816.059 260.52 815.864 260.728 815.72 261.006C815.576 261.278 815.504 261.603 815.504 261.982L814.648 261.478C814.643 260.88 814.776 260.355 815.048 259.902C815.325 259.443 815.699 259.086 816.168 258.83C816.637 258.574 817.16 258.446 817.736 258.446C818.691 258.446 819.421 258.734 819.928 259.31C820.44 259.88 820.696 260.632 820.696 261.566V267.302H818.768ZM808.376 267.302V258.662H810.08V261.342H810.32V267.302H808.376ZM813.584 267.302V262.078C813.584 261.475 813.437 261.006 813.144 260.67C812.851 260.334 812.451 260.166 811.944 260.166C811.453 260.166 811.059 260.334 810.76 260.67C810.467 261.006 810.32 261.443 810.32 261.982L809.456 261.406C809.456 260.846 809.595 260.342 809.872 259.894C810.149 259.446 810.523 259.094 810.992 258.838C811.467 258.576 811.997 258.446 812.584 258.446C813.229 258.446 813.768 258.584 814.2 258.862C814.637 259.134 814.963 259.507 815.176 259.982C815.395 260.451 815.504 260.982 815.504 261.574V267.302H813.584Z" fill="#433B39"/>
<path d="M767.341 293.302V283.094L765.173 284.398V283.078L767.341 281.782H768.533V293.302H767.341ZM775.087 293.542C774.378 293.542 773.738 293.376 773.167 293.046C772.602 292.715 772.154 292.267 771.823 291.702C771.492 291.131 771.327 290.491 771.327 289.782V285.302C771.327 284.592 771.492 283.955 771.823 283.39C772.154 282.819 772.602 282.368 773.167 282.038C773.738 281.707 774.378 281.542 775.087 281.542C775.796 281.542 776.434 281.707 776.999 282.038C777.57 282.368 778.02 282.819 778.351 283.39C778.682 283.955 778.847 284.592 778.847 285.302V289.782C778.847 290.491 778.682 291.131 778.351 291.702C778.02 292.267 777.57 292.715 776.999 293.046C776.434 293.376 775.796 293.542 775.087 293.542ZM775.087 292.406C775.562 292.406 775.994 292.291 776.383 292.062C776.772 291.827 777.082 291.515 777.311 291.126C777.54 290.736 777.655 290.307 777.655 289.838V285.246C777.655 284.771 777.54 284.339 777.311 283.95C777.082 283.56 776.772 283.251 776.383 283.022C775.994 282.787 775.562 282.67 775.087 282.67C774.612 282.67 774.18 282.787 773.791 283.022C773.402 283.251 773.092 283.56 772.863 283.95C772.634 284.339 772.519 284.771 772.519 285.246V289.838C772.519 290.307 772.634 290.736 772.863 291.126C773.092 291.515 773.402 291.827 773.791 292.062C774.18 292.291 774.612 292.406 775.087 292.406ZM784.613 293.542C783.903 293.542 783.263 293.376 782.693 293.046C782.127 292.715 781.679 292.267 781.349 291.702C781.018 291.131 780.853 290.491 780.853 289.782V285.302C780.853 284.592 781.018 283.955 781.349 283.39C781.679 282.819 782.127 282.368 782.693 282.038C783.263 281.707 783.903 281.542 784.613 281.542C785.322 281.542 785.959 281.707 786.525 282.038C787.095 282.368 787.546 282.819 787.877 283.39C788.207 283.955 788.373 284.592 788.373 285.302V289.782C788.373 290.491 788.207 291.131 787.877 291.702C787.546 292.267 787.095 292.715 786.525 293.046C785.959 293.376 785.322 293.542 784.613 293.542ZM784.613 292.406C785.087 292.406 785.519 292.291 785.909 292.062C786.298 291.827 786.607 291.515 786.837 291.126C787.066 290.736 787.181 290.307 787.181 289.838V285.246C787.181 284.771 787.066 284.339 786.837 283.95C786.607 283.56 786.298 283.251 785.909 283.022C785.519 282.787 785.087 282.67 784.613 282.67C784.138 282.67 783.706 282.787 783.317 283.022C782.927 283.251 782.618 283.56 782.389 283.95C782.159 284.339 782.045 284.771 782.045 285.246V289.838C782.045 290.307 782.159 290.736 782.389 291.126C782.618 291.515 782.927 291.827 783.317 292.062C783.706 292.291 784.138 292.406 784.613 292.406ZM791.498 293.302L790.698 292.502L801.442 281.782L802.242 282.574L791.498 293.302ZM799.842 293.542C799.314 293.542 798.832 293.414 798.394 293.158C797.962 292.896 797.616 292.55 797.354 292.118C797.093 291.68 796.962 291.195 796.962 290.662C796.962 290.139 797.096 289.659 797.362 289.222C797.629 288.784 797.981 288.435 798.418 288.174C798.856 287.912 799.33 287.782 799.842 287.782C800.37 287.782 800.853 287.912 801.29 288.174C801.728 288.43 802.074 288.776 802.33 289.214C802.592 289.646 802.722 290.128 802.722 290.662C802.722 291.195 802.592 291.68 802.33 292.118C802.074 292.55 801.728 292.896 801.29 293.158C800.853 293.414 800.37 293.542 799.842 293.542ZM799.842 292.478C800.168 292.478 800.469 292.395 800.746 292.23C801.024 292.064 801.245 291.846 801.41 291.574C801.576 291.296 801.658 290.992 801.658 290.662C801.658 290.331 801.576 290.03 801.41 289.758C801.245 289.48 801.024 289.259 800.746 289.094C800.469 288.928 800.168 288.846 799.842 288.846C799.512 288.846 799.208 288.928 798.93 289.094C798.658 289.259 798.437 289.48 798.266 289.758C798.101 290.03 798.018 290.331 798.018 290.662C798.018 290.992 798.101 291.296 798.266 291.574C798.437 291.846 798.658 292.064 798.93 292.23C799.208 292.395 799.512 292.478 799.842 292.478ZM793.098 287.302C792.57 287.302 792.088 287.174 791.65 286.918C791.213 286.656 790.864 286.31 790.602 285.878C790.346 285.44 790.218 284.955 790.218 284.422C790.218 283.899 790.352 283.419 790.618 282.982C790.885 282.544 791.237 282.195 791.674 281.934C792.112 281.672 792.586 281.542 793.098 281.542C793.626 281.542 794.106 281.672 794.538 281.934C794.976 282.19 795.325 282.536 795.586 282.974C795.848 283.406 795.978 283.888 795.978 284.422C795.978 284.955 795.848 285.44 795.586 285.878C795.325 286.31 794.976 286.656 794.538 286.918C794.106 287.174 793.626 287.302 793.098 287.302ZM793.098 286.238C793.429 286.238 793.73 286.155 794.002 285.99C794.28 285.824 794.501 285.606 794.666 285.334C794.832 285.056 794.914 284.752 794.914 284.422C794.914 284.091 794.832 283.79 794.666 283.518C794.501 283.24 794.28 283.019 794.002 282.854C793.73 282.688 793.429 282.606 793.098 282.606C792.768 282.606 792.464 282.688 792.186 282.854C791.914 283.019 791.696 283.24 791.53 283.518C791.365 283.79 791.282 284.091 791.282 284.422C791.282 284.752 791.365 285.056 791.53 285.334C791.696 285.606 791.914 285.824 792.186 285.99C792.464 286.155 792.768 286.238 793.098 286.238ZM811.403 293.542C810.609 293.542 809.937 293.342 809.387 292.942C808.838 292.536 808.422 291.99 808.139 291.302C807.857 290.608 807.715 289.832 807.715 288.974C807.715 288.099 807.857 287.32 808.139 286.638C808.427 285.95 808.849 285.408 809.403 285.014C809.958 284.619 810.641 284.422 811.451 284.422C812.241 284.422 812.918 284.622 813.483 285.022C814.049 285.422 814.481 285.966 814.779 286.654C815.083 287.342 815.235 288.115 815.235 288.974C815.235 289.838 815.083 290.614 814.779 291.302C814.475 291.99 814.038 292.536 813.467 292.942C812.897 293.342 812.209 293.542 811.403 293.542ZM807.515 297.142V284.662H808.571V291.166H808.699V297.142H807.515ZM811.283 292.446C811.886 292.446 812.387 292.294 812.787 291.99C813.187 291.686 813.486 291.272 813.683 290.75C813.886 290.222 813.987 289.63 813.987 288.974C813.987 288.323 813.889 287.736 813.691 287.214C813.494 286.691 813.193 286.278 812.787 285.974C812.387 285.67 811.878 285.518 811.259 285.518C810.657 285.518 810.155 285.664 809.755 285.958C809.361 286.251 809.065 286.659 808.867 287.182C808.67 287.699 808.571 288.296 808.571 288.974C808.571 289.64 808.67 290.238 808.867 290.766C809.065 291.288 809.363 291.699 809.763 291.998C810.163 292.296 810.67 292.446 811.283 292.446ZM820.056 293.518C819.539 293.518 819.085 293.438 818.696 293.278C818.312 293.118 817.984 292.902 817.712 292.63C817.445 292.358 817.229 292.048 817.064 291.702C816.899 291.35 816.779 290.979 816.704 290.59C816.629 290.195 816.592 289.803 816.592 289.414V284.662H817.776V289.07C817.776 289.544 817.821 289.984 817.912 290.39C818.003 290.795 818.147 291.15 818.344 291.454C818.547 291.752 818.805 291.984 819.12 292.15C819.44 292.315 819.827 292.398 820.28 292.398C820.696 292.398 821.061 292.326 821.376 292.182C821.696 292.038 821.963 291.832 822.176 291.566C822.395 291.294 822.56 290.966 822.672 290.582C822.784 290.192 822.84 289.755 822.84 289.27L823.672 289.454C823.672 290.339 823.517 291.083 823.208 291.686C822.899 292.288 822.472 292.744 821.928 293.054C821.384 293.363 820.76 293.518 820.056 293.518ZM822.96 293.302V291.174H822.84V284.662H824.016V293.302H822.96ZM826.012 293.302V284.662H827.068V286.742L826.86 286.47C826.956 286.214 827.081 285.979 827.236 285.766C827.391 285.547 827.559 285.368 827.74 285.23C827.964 285.032 828.225 284.883 828.524 284.782C828.823 284.675 829.124 284.614 829.428 284.598C829.732 284.576 830.009 284.598 830.26 284.662V285.766C829.945 285.686 829.601 285.667 829.228 285.71C828.855 285.752 828.511 285.902 828.196 286.158C827.908 286.382 827.692 286.651 827.548 286.966C827.404 287.275 827.308 287.606 827.26 287.958C827.212 288.304 827.188 288.648 827.188 288.99V293.302H826.012ZM835.037 293.542C834.195 293.542 833.464 293.355 832.845 292.982C832.232 292.608 831.755 292.083 831.413 291.406C831.072 290.728 830.901 289.934 830.901 289.022C830.901 288.078 831.069 287.262 831.405 286.574C831.741 285.886 832.213 285.355 832.821 284.982C833.435 284.608 834.157 284.422 834.989 284.422C835.843 284.422 836.571 284.619 837.173 285.014C837.776 285.403 838.232 285.963 838.541 286.694C838.851 287.424 838.992 288.296 838.965 289.31H837.765V288.894C837.744 287.774 837.501 286.928 837.037 286.358C836.579 285.787 835.907 285.502 835.021 285.502C834.093 285.502 833.381 285.803 832.885 286.406C832.395 287.008 832.149 287.867 832.149 288.982C832.149 290.07 832.395 290.915 832.885 291.518C833.381 292.115 834.083 292.414 834.989 292.414C835.608 292.414 836.147 292.272 836.605 291.99C837.069 291.702 837.435 291.288 837.701 290.75L838.797 291.174C838.456 291.926 837.952 292.51 837.285 292.926C836.624 293.336 835.875 293.542 835.037 293.542ZM831.733 289.31V288.326H838.333V289.31H831.733ZM847.048 293.542C846.179 293.542 845.443 293.347 844.84 292.958C844.237 292.568 843.779 292.032 843.464 291.35C843.155 290.662 842.995 289.872 842.984 288.982C842.995 288.075 843.16 287.28 843.48 286.598C843.8 285.91 844.261 285.376 844.864 284.998C845.467 284.614 846.197 284.422 847.056 284.422C847.931 284.422 848.691 284.635 849.336 285.062C849.987 285.488 850.432 286.072 850.672 286.814L849.52 287.182C849.317 286.664 848.995 286.264 848.552 285.982C848.115 285.694 847.613 285.55 847.048 285.55C846.413 285.55 845.888 285.696 845.472 285.99C845.056 286.278 844.747 286.68 844.544 287.198C844.341 287.715 844.237 288.31 844.232 288.982C844.243 290.016 844.483 290.848 844.952 291.478C845.421 292.102 846.12 292.414 847.048 292.414C847.635 292.414 848.133 292.28 848.544 292.014C848.96 291.742 849.275 291.347 849.488 290.83L850.672 291.182C850.352 291.95 849.883 292.536 849.264 292.942C848.645 293.342 847.907 293.542 847.048 293.542ZM855.457 293.542C854.598 293.542 853.865 293.347 853.257 292.958C852.649 292.568 852.182 292.03 851.857 291.342C851.532 290.654 851.369 289.864 851.369 288.974C851.369 288.067 851.534 287.272 851.865 286.59C852.196 285.907 852.665 285.376 853.273 284.998C853.886 284.614 854.614 284.422 855.457 284.422C856.321 284.422 857.057 284.616 857.665 285.006C858.278 285.39 858.745 285.926 859.065 286.614C859.39 287.296 859.553 288.083 859.553 288.974C859.553 289.88 859.39 290.678 859.065 291.366C858.74 292.048 858.27 292.582 857.657 292.966C857.044 293.35 856.31 293.542 855.457 293.542ZM855.457 292.414C856.417 292.414 857.132 292.096 857.601 291.462C858.07 290.822 858.305 289.992 858.305 288.974C858.305 287.928 858.068 287.096 857.593 286.478C857.124 285.859 856.412 285.55 855.457 285.55C854.812 285.55 854.278 285.696 853.857 285.99C853.441 286.278 853.129 286.68 852.921 287.198C852.718 287.71 852.617 288.302 852.617 288.974C852.617 290.014 852.857 290.848 853.337 291.478C853.817 292.102 854.524 292.414 855.457 292.414ZM861.238 293.302V281.542H862.414V293.302H861.238ZM867.924 293.542C867.119 293.542 866.431 293.342 865.86 292.942C865.289 292.536 864.852 291.99 864.548 291.302C864.244 290.614 864.092 289.838 864.092 288.974C864.092 288.115 864.241 287.342 864.54 286.654C864.844 285.966 865.279 285.422 865.844 285.022C866.409 284.622 867.087 284.422 867.876 284.422C868.687 284.422 869.369 284.619 869.924 285.014C870.479 285.408 870.897 285.95 871.18 286.638C871.468 287.32 871.612 288.099 871.612 288.974C871.612 289.832 871.471 290.608 871.188 291.302C870.905 291.99 870.489 292.536 869.94 292.942C869.391 293.342 868.719 293.542 867.924 293.542ZM868.044 292.446C868.657 292.446 869.164 292.296 869.564 291.998C869.964 291.699 870.263 291.288 870.46 290.766C870.657 290.238 870.756 289.64 870.756 288.974C870.756 288.296 870.657 287.699 870.46 287.182C870.263 286.659 869.964 286.251 869.564 285.958C869.169 285.664 868.671 285.518 868.068 285.518C867.449 285.518 866.937 285.67 866.532 285.974C866.127 286.278 865.825 286.691 865.628 287.214C865.436 287.736 865.34 288.323 865.34 288.974C865.34 289.63 865.439 290.222 865.636 290.75C865.839 291.272 866.14 291.686 866.54 291.99C866.94 292.294 867.441 292.446 868.044 292.446ZM870.756 293.302V286.798H870.628V281.782H871.812V293.302H870.756ZM880.66 293.542C879.865 293.542 879.193 293.342 878.644 292.942C878.094 292.536 877.678 291.99 877.396 291.302C877.113 290.608 876.972 289.832 876.972 288.974C876.972 288.099 877.113 287.32 877.396 286.638C877.684 285.95 878.105 285.408 878.66 285.014C879.214 284.619 879.897 284.422 880.708 284.422C881.497 284.422 882.174 284.622 882.74 285.022C883.305 285.422 883.737 285.966 884.036 286.654C884.34 287.342 884.492 288.115 884.492 288.974C884.492 289.838 884.34 290.614 884.036 291.302C883.732 291.99 883.294 292.536 882.724 292.942C882.153 293.342 881.465 293.542 880.66 293.542ZM876.772 297.142V284.662H877.828V291.166H877.956V297.142H876.772ZM880.54 292.446C881.142 292.446 881.644 292.294 882.044 291.99C882.444 291.686 882.742 291.272 882.94 290.75C883.142 290.222 883.244 289.63 883.244 288.974C883.244 288.323 883.145 287.736 882.948 287.214C882.75 286.691 882.449 286.278 882.044 285.974C881.644 285.67 881.134 285.518 880.516 285.518C879.913 285.518 879.412 285.664 879.012 285.958C878.617 286.251 878.321 286.659 878.124 287.182C877.926 287.699 877.828 288.296 877.828 288.974C877.828 289.64 877.926 290.238 878.124 290.766C878.321 291.288 878.62 291.699 879.02 291.998C879.42 292.296 879.926 292.446 880.54 292.446ZM886.008 293.302V284.662H887.064V286.742L886.856 286.47C886.952 286.214 887.078 285.979 887.232 285.766C887.387 285.547 887.555 285.368 887.736 285.23C887.96 285.032 888.222 284.883 888.52 284.782C888.819 284.675 889.12 284.614 889.424 284.598C889.728 284.576 890.006 284.598 890.256 284.662V285.766C889.942 285.686 889.598 285.667 889.224 285.71C888.851 285.752 888.507 285.902 888.192 286.158C887.904 286.382 887.688 286.651 887.544 286.966C887.4 287.275 887.304 287.606 887.256 287.958C887.208 288.304 887.184 288.648 887.184 288.99V293.302H886.008ZM895.034 293.542C894.191 293.542 893.46 293.355 892.842 292.982C892.228 292.608 891.751 292.083 891.41 291.406C891.068 290.728 890.898 289.934 890.898 289.022C890.898 288.078 891.066 287.262 891.402 286.574C891.738 285.886 892.21 285.355 892.818 284.982C893.431 284.608 894.154 284.422 894.986 284.422C895.839 284.422 896.567 284.619 897.17 285.014C897.772 285.403 898.228 285.963 898.538 286.694C898.847 287.424 898.988 288.296 898.962 289.31H897.762V288.894C897.74 287.774 897.498 286.928 897.034 286.358C896.575 285.787 895.903 285.502 895.018 285.502C894.09 285.502 893.378 285.803 892.882 286.406C892.391 287.008 892.146 287.867 892.146 288.982C892.146 290.07 892.391 290.915 892.882 291.518C893.378 292.115 894.079 292.414 894.986 292.414C895.604 292.414 896.143 292.272 896.602 291.99C897.066 291.702 897.431 291.288 897.698 290.75L898.794 291.174C898.452 291.926 897.948 292.51 897.282 292.926C896.62 293.336 895.871 293.542 895.034 293.542ZM891.73 289.31V288.326H898.33V289.31H891.73ZM903.721 293.534C902.708 293.534 901.873 293.315 901.217 292.878C900.566 292.44 900.166 291.832 900.017 291.054L901.217 290.854C901.345 291.344 901.636 291.736 902.089 292.03C902.548 292.318 903.113 292.462 903.785 292.462C904.441 292.462 904.958 292.326 905.337 292.054C905.716 291.776 905.905 291.4 905.905 290.926C905.905 290.659 905.844 290.443 905.721 290.278C905.604 290.107 905.361 289.95 904.993 289.806C904.625 289.662 904.076 289.491 903.345 289.294C902.561 289.08 901.948 288.867 901.505 288.654C901.062 288.44 900.748 288.195 900.561 287.918C900.374 287.635 900.281 287.291 900.281 286.886C900.281 286.395 900.42 285.966 900.697 285.598C900.974 285.224 901.358 284.936 901.849 284.734C902.34 284.526 902.91 284.422 903.561 284.422C904.212 284.422 904.793 284.528 905.305 284.742C905.822 284.95 906.238 285.243 906.553 285.622C906.868 286 907.054 286.44 907.113 286.942L905.913 287.158C905.833 286.651 905.58 286.251 905.153 285.958C904.732 285.659 904.196 285.504 903.545 285.494C902.932 285.478 902.433 285.595 902.049 285.846C901.665 286.091 901.473 286.419 901.473 286.83C901.473 287.059 901.542 287.256 901.681 287.422C901.82 287.582 902.07 287.734 902.433 287.878C902.801 288.022 903.324 288.179 904.001 288.35C904.796 288.552 905.42 288.766 905.873 288.99C906.326 289.214 906.649 289.478 906.841 289.782C907.033 290.086 907.129 290.462 907.129 290.91C907.129 291.726 906.825 292.368 906.217 292.838C905.614 293.302 904.782 293.534 903.721 293.534ZM911.887 293.534C910.874 293.534 910.039 293.315 909.383 292.878C908.733 292.44 908.333 291.832 908.183 291.054L909.383 290.854C909.511 291.344 909.802 291.736 910.255 292.03C910.714 292.318 911.279 292.462 911.951 292.462C912.607 292.462 913.125 292.326 913.503 292.054C913.882 291.776 914.071 291.4 914.071 290.926C914.071 290.659 914.01 290.443 913.887 290.278C913.77 290.107 913.527 289.95 913.159 289.806C912.791 289.662 912.242 289.491 911.511 289.294C910.727 289.08 910.114 288.867 909.671 288.654C909.229 288.44 908.914 288.195 908.727 287.918C908.541 287.635 908.447 287.291 908.447 286.886C908.447 286.395 908.586 285.966 908.863 285.598C909.141 285.224 909.525 284.936 910.015 284.734C910.506 284.526 911.077 284.422 911.727 284.422C912.378 284.422 912.959 284.528 913.471 284.742C913.989 284.95 914.405 285.243 914.719 285.622C915.034 286 915.221 286.44 915.279 286.942L914.079 287.158C913.999 286.651 913.746 286.251 913.319 285.958C912.898 285.659 912.362 285.504 911.711 285.494C911.098 285.478 910.599 285.595 910.215 285.846C909.831 286.091 909.639 286.419 909.639 286.83C909.639 287.059 909.709 287.256 909.847 287.422C909.986 287.582 910.237 287.734 910.599 287.878C910.967 288.022 911.49 288.179 912.167 288.35C912.962 288.552 913.586 288.766 914.039 288.99C914.493 289.214 914.815 289.478 915.007 289.782C915.199 290.086 915.295 290.462 915.295 290.91C915.295 291.726 914.991 292.368 914.383 292.838C913.781 293.302 912.949 293.534 911.887 293.534ZM920.486 293.542C919.643 293.542 918.912 293.355 918.294 292.982C917.68 292.608 917.203 292.083 916.862 291.406C916.52 290.728 916.35 289.934 916.35 289.022C916.35 288.078 916.518 287.262 916.854 286.574C917.19 285.886 917.662 285.355 918.27 284.982C918.883 284.608 919.606 284.422 920.438 284.422C921.291 284.422 922.019 284.619 922.622 285.014C923.224 285.403 923.68 285.963 923.99 286.694C924.299 287.424 924.44 288.296 924.414 289.31H923.214V288.894C923.192 287.774 922.95 286.928 922.486 286.358C922.027 285.787 921.355 285.502 920.47 285.502C919.542 285.502 918.83 285.803 918.334 286.406C917.843 287.008 917.598 287.867 917.598 288.982C917.598 290.07 917.843 290.915 918.334 291.518C918.83 292.115 919.531 292.414 920.438 292.414C921.056 292.414 921.595 292.272 922.054 291.99C922.518 291.702 922.883 291.288 923.15 290.75L924.246 291.174C923.904 291.926 923.4 292.51 922.734 292.926C922.072 293.336 921.323 293.542 920.486 293.542ZM917.182 289.31V288.326H923.782V289.31H917.182ZM929.301 293.542C928.496 293.542 927.808 293.342 927.237 292.942C926.666 292.536 926.229 291.99 925.925 291.302C925.621 290.614 925.469 289.838 925.469 288.974C925.469 288.115 925.618 287.342 925.917 286.654C926.221 285.966 926.656 285.422 927.221 285.022C927.786 284.622 928.464 284.422 929.253 284.422C930.064 284.422 930.746 284.619 931.301 285.014C931.856 285.408 932.274 285.95 932.557 286.638C932.845 287.32 932.989 288.099 932.989 288.974C932.989 289.832 932.848 290.608 932.565 291.302C932.282 291.99 931.866 292.536 931.317 292.942C930.768 293.342 930.096 293.542 929.301 293.542ZM929.421 292.446C930.034 292.446 930.541 292.296 930.941 291.998C931.341 291.699 931.64 291.288 931.837 290.766C932.034 290.238 932.133 289.64 932.133 288.974C932.133 288.296 932.034 287.699 931.837 287.182C931.64 286.659 931.341 286.251 930.941 285.958C930.546 285.664 930.048 285.518 929.445 285.518C928.826 285.518 928.314 285.67 927.909 285.974C927.504 286.278 927.202 286.691 927.005 287.214C926.813 287.736 926.717 288.323 926.717 288.974C926.717 289.63 926.816 290.222 927.013 290.75C927.216 291.272 927.517 291.686 927.917 291.99C928.317 292.294 928.818 292.446 929.421 292.446ZM932.133 293.302V286.798H932.005V281.782H933.189V293.302H932.133ZM941.764 293.542C940.906 293.542 940.172 293.347 939.564 292.958C938.956 292.568 938.49 292.03 938.164 291.342C937.839 290.654 937.676 289.864 937.676 288.974C937.676 288.067 937.842 287.272 938.172 286.59C938.503 285.907 938.972 285.376 939.58 284.998C940.194 284.614 940.922 284.422 941.764 284.422C942.628 284.422 943.364 284.616 943.972 285.006C944.586 285.39 945.052 285.926 945.372 286.614C945.698 287.296 945.86 288.083 945.86 288.974C945.86 289.88 945.698 290.678 945.372 291.366C945.047 292.048 944.578 292.582 943.964 292.966C943.351 293.35 942.618 293.542 941.764 293.542ZM941.764 292.414C942.724 292.414 943.439 292.096 943.908 291.462C944.378 290.822 944.612 289.992 944.612 288.974C944.612 287.928 944.375 287.096 943.9 286.478C943.431 285.859 942.719 285.55 941.764 285.55C941.119 285.55 940.586 285.696 940.164 285.99C939.748 286.278 939.436 286.68 939.228 287.198C939.026 287.71 938.924 288.302 938.924 288.974C938.924 290.014 939.164 290.848 939.644 291.478C940.124 292.102 940.831 292.414 941.764 292.414ZM947.545 283.022V281.702H948.721V283.022H947.545ZM947.545 293.302V284.662H948.721V293.302H947.545ZM951.04 293.302V281.542H952.216V293.302H951.04Z" fill="#433B39"/>
<rect x="978.213" y="235.302" width="120" height="80" rx="4" fill="#F2AF29" fill-opacity="0.2"/>
<path d="M978.213 283.302H1098.21V311.302C1098.21 313.511 1096.42 315.302 1094.21 315.302H982.213C980.004 315.302 978.213 313.511 978.213 311.302V283.302Z" fill="#F2AF29"/>
<line x1="1108.71" y1="283.825" x2="1108.71" y2="315.302" stroke="#E0E0E0"/>
<line x1="1102.21" y1="283.788" x2="1115.21" y2="283.788" stroke="#E0E0E0"/>
<line x1="1102.21" y1="314.802" x2="1115.21" y2="314.802" stroke="#E0E0E0"/>
<path d="M1122.4 301.987C1122.07 301.987 1121.75 301.918 1121.44 301.779C1121.14 301.641 1120.84 301.481 1120.55 301.299C1120.27 301.118 1120 300.958 1119.74 300.819C1119.48 300.681 1119.24 300.611 1119.02 300.611C1118.75 300.611 1118.57 300.731 1118.48 300.971C1118.4 301.206 1118.4 301.47 1118.49 301.763H1117.14C1117.02 301.262 1117 300.809 1117.1 300.403C1117.2 299.993 1117.4 299.667 1117.7 299.427C1118 299.187 1118.4 299.067 1118.88 299.067C1119.22 299.067 1119.54 299.137 1119.85 299.275C1120.17 299.414 1120.47 299.574 1120.75 299.755C1121.04 299.937 1121.31 300.097 1121.56 300.235C1121.82 300.374 1122.06 300.443 1122.28 300.443C1122.54 300.443 1122.71 300.329 1122.8 300.099C1122.91 299.865 1122.91 299.587 1122.81 299.267H1124.16C1124.29 299.763 1124.3 300.217 1124.2 300.627C1124.11 301.038 1123.91 301.369 1123.6 301.619C1123.31 301.865 1122.91 301.987 1122.4 301.987ZM1132.02 305.563V303.443H1126.73V302.091L1130.53 294.043H1132.14L1128.34 302.091H1132.02V298.851H1133.46V302.091H1134.66V303.443H1133.46V305.563H1132.02ZM1140.31 305.803C1139.56 305.803 1138.89 305.635 1138.31 305.299C1137.73 304.958 1137.26 304.497 1136.92 303.915C1136.59 303.329 1136.42 302.662 1136.42 301.915V297.691C1136.42 296.945 1136.59 296.278 1136.92 295.691C1137.26 295.105 1137.73 294.643 1138.31 294.307C1138.89 293.971 1139.56 293.803 1140.31 293.803C1141.05 293.803 1141.72 293.971 1142.31 294.307C1142.89 294.643 1143.35 295.105 1143.69 295.691C1144.03 296.278 1144.19 296.945 1144.19 297.691V301.915C1144.19 302.662 1144.03 303.329 1143.69 303.915C1143.35 304.497 1142.89 304.958 1142.31 305.299C1141.72 305.635 1141.05 305.803 1140.31 305.803ZM1140.31 304.435C1140.76 304.435 1141.17 304.326 1141.54 304.107C1141.91 303.889 1142.2 303.595 1142.42 303.227C1142.64 302.854 1142.75 302.443 1142.75 301.995V297.603C1142.75 297.15 1142.64 296.739 1142.42 296.371C1142.2 296.003 1141.91 295.71 1141.54 295.491C1141.17 295.273 1140.76 295.163 1140.31 295.163C1139.86 295.163 1139.45 295.273 1139.07 295.491C1138.71 295.71 1138.41 296.003 1138.19 296.371C1137.98 296.739 1137.87 297.15 1137.87 297.603V301.995C1137.87 302.443 1137.98 302.854 1138.19 303.227C1138.41 303.595 1138.71 303.889 1139.07 304.107C1139.45 304.326 1139.86 304.435 1140.31 304.435ZM1147.55 305.563L1146.59 304.603L1157.17 294.043L1158.13 295.003L1147.55 305.563ZM1155.73 305.803C1155.2 305.803 1154.72 305.675 1154.28 305.419C1153.85 305.158 1153.5 304.811 1153.24 304.379C1152.98 303.942 1152.85 303.457 1152.85 302.923C1152.85 302.401 1152.98 301.921 1153.25 301.483C1153.52 301.046 1153.87 300.697 1154.31 300.435C1154.74 300.174 1155.22 300.043 1155.73 300.043C1156.26 300.043 1156.74 300.174 1157.18 300.435C1157.62 300.691 1157.96 301.038 1158.22 301.475C1158.48 301.907 1158.61 302.39 1158.61 302.923C1158.61 303.457 1158.48 303.942 1158.22 304.379C1157.96 304.811 1157.62 305.158 1157.18 305.419C1156.74 305.675 1156.26 305.803 1155.73 305.803ZM1155.73 304.547C1156.02 304.547 1156.29 304.473 1156.54 304.323C1156.79 304.174 1156.99 303.977 1157.13 303.731C1157.28 303.486 1157.35 303.217 1157.35 302.923C1157.35 302.63 1157.28 302.361 1157.13 302.115C1156.99 301.865 1156.79 301.667 1156.54 301.523C1156.29 301.374 1156.02 301.299 1155.73 301.299C1155.44 301.299 1155.17 301.374 1154.92 301.523C1154.68 301.667 1154.48 301.865 1154.33 302.115C1154.18 302.361 1154.11 302.63 1154.11 302.923C1154.11 303.217 1154.18 303.486 1154.33 303.731C1154.48 303.977 1154.68 304.174 1154.92 304.323C1155.17 304.473 1155.44 304.547 1155.73 304.547ZM1148.99 299.563C1148.47 299.563 1147.98 299.435 1147.55 299.179C1147.11 298.918 1146.76 298.571 1146.5 298.139C1146.24 297.702 1146.11 297.217 1146.11 296.683C1146.11 296.161 1146.25 295.681 1146.51 295.243C1146.78 294.806 1147.13 294.457 1147.57 294.195C1148.01 293.934 1148.48 293.803 1148.99 293.803C1149.52 293.803 1150 293.934 1150.43 294.195C1150.87 294.451 1151.22 294.798 1151.48 295.235C1151.74 295.667 1151.87 296.15 1151.87 296.683C1151.87 297.217 1151.74 297.702 1151.48 298.139C1151.22 298.571 1150.87 298.918 1150.43 299.179C1150 299.435 1149.52 299.563 1148.99 299.563ZM1148.99 298.307C1149.29 298.307 1149.56 298.233 1149.8 298.083C1150.05 297.934 1150.25 297.737 1150.39 297.491C1150.54 297.246 1150.62 296.977 1150.62 296.683C1150.62 296.39 1150.54 296.121 1150.39 295.875C1150.25 295.625 1150.05 295.427 1149.8 295.283C1149.56 295.134 1149.29 295.059 1148.99 295.059C1148.7 295.059 1148.43 295.134 1148.19 295.283C1147.94 295.427 1147.74 295.625 1147.59 295.875C1147.45 296.121 1147.37 296.39 1147.37 296.683C1147.37 296.977 1147.45 297.246 1147.59 297.491C1147.74 297.737 1147.94 297.934 1148.19 298.083C1148.43 298.233 1148.7 298.307 1148.99 298.307ZM1164.78 309.403L1166.45 304.859L1166.48 306.203L1162.7 296.923H1164.2L1167.16 304.387H1166.64L1169.42 296.923H1170.87L1166.16 309.403H1164.78ZM1172.19 295.395V293.923H1173.61V295.395H1172.19ZM1172.19 305.563V296.923H1173.61V305.563H1172.19ZM1179.6 305.803C1178.75 305.803 1178.01 305.617 1177.37 305.243C1176.74 304.865 1176.25 304.339 1175.9 303.667C1175.55 302.99 1175.37 302.201 1175.37 301.299C1175.37 300.355 1175.55 299.539 1175.89 298.851C1176.24 298.158 1176.72 297.625 1177.34 297.251C1177.97 296.873 1178.7 296.683 1179.53 296.683C1180.4 296.683 1181.14 296.883 1181.75 297.283C1182.36 297.683 1182.82 298.254 1183.13 298.995C1183.43 299.737 1183.57 300.619 1183.53 301.643H1182.09V301.131C1182.07 300.07 1181.85 299.278 1181.44 298.755C1181.02 298.227 1180.4 297.963 1179.58 297.963C1178.7 297.963 1178.03 298.246 1177.57 298.811C1177.11 299.377 1176.89 300.187 1176.89 301.243C1176.89 302.262 1177.11 303.051 1177.57 303.611C1178.03 304.171 1178.69 304.451 1179.53 304.451C1180.1 304.451 1180.6 304.321 1181.02 304.059C1181.44 303.798 1181.77 303.422 1182.01 302.931L1183.38 303.403C1183.05 304.166 1182.54 304.758 1181.86 305.179C1181.19 305.595 1180.43 305.803 1179.6 305.803ZM1176.41 301.643V300.499H1182.79V301.643H1176.41ZM1185.31 305.563V293.803H1186.73V305.563H1185.31ZM1192.36 305.803C1191.56 305.803 1190.87 305.603 1190.29 305.203C1189.71 304.798 1189.27 304.251 1188.95 303.563C1188.65 302.875 1188.49 302.099 1188.49 301.235C1188.49 300.371 1188.65 299.595 1188.95 298.907C1189.27 298.219 1189.71 297.678 1190.29 297.283C1190.87 296.883 1191.55 296.683 1192.35 296.683C1193.17 296.683 1193.86 296.881 1194.41 297.275C1194.97 297.67 1195.38 298.211 1195.67 298.899C1195.95 299.587 1196.1 300.366 1196.1 301.235C1196.1 302.094 1195.95 302.87 1195.67 303.563C1195.38 304.251 1194.97 304.798 1194.41 305.203C1193.86 305.603 1193.17 305.803 1192.36 305.803ZM1192.54 304.499C1193.12 304.499 1193.6 304.361 1193.97 304.083C1194.34 303.801 1194.62 303.414 1194.79 302.923C1194.98 302.427 1195.07 301.865 1195.07 301.235C1195.07 300.595 1194.98 300.033 1194.79 299.547C1194.62 299.057 1194.35 298.675 1193.98 298.403C1193.61 298.126 1193.14 297.987 1192.58 297.987C1191.99 297.987 1191.51 298.131 1191.12 298.419C1190.74 298.707 1190.46 299.097 1190.27 299.587C1190.09 300.078 1190 300.627 1190 301.235C1190 301.849 1190.1 302.403 1190.28 302.899C1190.47 303.39 1190.75 303.779 1191.12 304.067C1191.5 304.355 1191.97 304.499 1192.54 304.499ZM1195.07 305.563V299.203H1194.91V294.043H1196.34V305.563H1195.07Z" fill="#726C6B"/>
<path d="M769.053 20.256C769.805 20.256 770.482 20.4347 771.085 20.792C771.687 21.144 772.162 21.6347 772.509 22.264C772.861 22.888 773.037 23.608 773.037 24.424V27.936C773.037 28.8053 772.861 29.5653 772.509 30.216C772.162 30.8613 771.674 31.36 771.045 31.712C770.415 32.064 769.679 32.24 768.837 32.24C768.255 32.24 767.706 32.1413 767.189 31.944C766.671 31.7413 766.207 31.432 765.797 31.016L767.181 29.664C767.389 29.904 767.637 30.0933 767.925 30.232C768.218 30.3653 768.522 30.432 768.837 30.432C769.285 30.432 769.677 30.328 770.013 30.12C770.349 29.9067 770.61 29.632 770.797 29.296C770.983 28.9547 771.077 28.5893 771.077 28.2V26.288L771.421 26.672C771.095 27.056 770.701 27.3573 770.237 27.576C769.773 27.7893 769.285 27.896 768.773 27.896C768.053 27.896 767.413 27.7307 766.853 27.4C766.298 27.0693 765.861 26.6213 765.541 26.056C765.226 25.4853 765.069 24.84 765.069 24.12C765.069 23.4 765.25 22.7493 765.613 22.168C765.975 21.5813 766.458 21.1173 767.061 20.776C767.669 20.4293 768.333 20.256 769.053 20.256ZM769.053 22.096C768.679 22.096 768.338 22.1867 768.029 22.368C767.719 22.5493 767.474 22.7947 767.293 23.104C767.111 23.408 767.021 23.7467 767.021 24.12C767.021 24.4933 767.109 24.8347 767.285 25.144C767.466 25.4533 767.709 25.6987 768.013 25.88C768.322 26.0613 768.663 26.152 769.037 26.152C769.41 26.152 769.751 26.0613 770.061 25.88C770.37 25.6987 770.615 25.4533 770.797 25.144C770.983 24.8347 771.077 24.4933 771.077 24.12C771.077 23.7573 770.986 23.424 770.805 23.12C770.623 22.8107 770.378 22.5627 770.069 22.376C769.765 22.1893 769.426 22.096 769.053 22.096ZM779.254 32.24C778.438 32.24 777.718 32.0667 777.094 31.72C776.47 31.368 775.982 30.88 775.63 30.256C775.283 29.632 775.11 28.912 775.11 28.096V24.384C775.11 23.568 775.283 22.848 775.63 22.224C775.982 21.6 776.47 21.1147 777.094 20.768C777.718 20.416 778.438 20.24 779.254 20.24C780.07 20.24 780.787 20.416 781.406 20.768C782.03 21.1147 782.518 21.6 782.87 22.224C783.222 22.848 783.398 23.568 783.398 24.384V28.096C783.398 28.912 783.222 29.632 782.87 30.256C782.518 30.88 782.03 31.368 781.406 31.72C780.787 32.0667 780.07 32.24 779.254 32.24ZM779.254 30.408C779.659 30.408 780.027 30.312 780.358 30.12C780.689 29.9227 780.95 29.6613 781.142 29.336C781.334 29.0053 781.43 28.6373 781.43 28.232V24.24C781.43 23.8293 781.334 23.4613 781.142 23.136C780.95 22.8053 780.689 22.544 780.358 22.352C780.027 22.1547 779.659 22.056 779.254 22.056C778.849 22.056 778.481 22.1547 778.15 22.352C777.819 22.544 777.558 22.8053 777.366 23.136C777.174 23.4613 777.078 23.8293 777.078 24.24V28.232C777.078 28.6373 777.174 29.0053 777.366 29.336C777.558 29.6613 777.819 29.9227 778.15 30.12C778.481 30.312 778.849 30.408 779.254 30.408ZM789.625 32.24C788.809 32.24 788.089 32.0667 787.465 31.72C786.841 31.368 786.353 30.88 786.001 30.256C785.655 29.632 785.481 28.912 785.481 28.096V24.384C785.481 23.568 785.655 22.848 786.001 22.224C786.353 21.6 786.841 21.1147 787.465 20.768C788.089 20.416 788.809 20.24 789.625 20.24C790.441 20.24 791.159 20.416 791.777 20.768C792.401 21.1147 792.889 21.6 793.241 22.224C793.593 22.848 793.769 23.568 793.769 24.384V28.096C793.769 28.912 793.593 29.632 793.241 30.256C792.889 30.88 792.401 31.368 791.777 31.72C791.159 32.0667 790.441 32.24 789.625 32.24ZM789.625 30.408C790.031 30.408 790.399 30.312 790.729 30.12C791.06 29.9227 791.321 29.6613 791.513 29.336C791.705 29.0053 791.801 28.6373 791.801 28.232V24.24C791.801 23.8293 791.705 23.4613 791.513 23.136C791.321 22.8053 791.06 22.544 790.729 22.352C790.399 22.1547 790.031 22.056 789.625 22.056C789.22 22.056 788.852 22.1547 788.521 22.352C788.191 22.544 787.929 22.8053 787.737 23.136C787.545 23.4613 787.449 23.8293 787.449 24.24V28.232C787.449 28.6373 787.545 29.0053 787.737 29.336C787.929 29.6613 788.191 29.9227 788.521 30.12C788.852 30.312 789.22 30.408 789.625 30.408ZM802.528 36.08C802.048 36.08 801.586 36.0053 801.144 35.856C800.706 35.7067 800.312 35.4907 799.96 35.208C799.608 34.9307 799.32 34.5947 799.096 34.2L800.872 33.32C801.037 33.6347 801.269 33.8667 801.568 34.016C801.872 34.1707 802.194 34.248 802.536 34.248C802.936 34.248 803.293 34.176 803.608 34.032C803.922 33.8933 804.165 33.6853 804.336 33.408C804.512 33.136 804.594 32.7947 804.584 32.384V29.928H804.824V23.36H806.512V32.416C806.512 32.6347 806.501 32.8427 806.48 33.04C806.464 33.2427 806.434 33.44 806.392 33.632C806.264 34.192 806.018 34.6507 805.656 35.008C805.293 35.3707 804.842 35.64 804.304 35.816C803.77 35.992 803.178 36.08 802.528 36.08ZM802.36 32.24C801.565 32.24 800.872 32.04 800.28 31.64C799.688 31.24 799.229 30.696 798.904 30.008C798.578 29.32 798.416 28.544 798.416 27.68C798.416 26.8053 798.578 26.0267 798.904 25.344C799.234 24.656 799.701 24.1147 800.304 23.72C800.906 23.32 801.616 23.12 802.432 23.12C803.253 23.12 803.941 23.32 804.496 23.72C805.056 24.1147 805.48 24.656 805.768 25.344C806.056 26.032 806.2 26.8107 806.2 27.68C806.2 28.5387 806.056 29.3147 805.768 30.008C805.48 30.696 805.05 31.24 804.48 31.64C803.909 32.04 803.202 32.24 802.36 32.24ZM802.656 30.512C803.173 30.512 803.589 30.3947 803.904 30.16C804.224 29.92 804.456 29.5867 804.6 29.16C804.749 28.7333 804.824 28.24 804.824 27.68C804.824 27.1147 804.749 26.6213 804.6 26.2C804.456 25.7733 804.229 25.4427 803.92 25.208C803.61 24.968 803.21 24.848 802.72 24.848C802.202 24.848 801.776 24.976 801.44 25.232C801.104 25.4827 800.856 25.824 800.696 26.256C800.536 26.6827 800.456 27.1573 800.456 27.68C800.456 28.208 800.533 28.688 800.688 29.12C800.848 29.5467 801.09 29.8853 801.416 30.136C801.741 30.3867 802.154 30.512 802.656 30.512ZM818.971 32V26.752C818.971 26.16 818.824 25.6987 818.531 25.368C818.238 25.032 817.84 24.864 817.339 24.864C817.03 24.864 816.752 24.936 816.507 25.08C816.262 25.2187 816.067 25.4267 815.923 25.704C815.779 25.976 815.707 26.3013 815.707 26.68L814.851 26.176C814.846 25.5787 814.979 25.0533 815.251 24.6C815.528 24.1413 815.902 23.784 816.371 23.528C816.84 23.272 817.363 23.144 817.939 23.144C818.894 23.144 819.624 23.432 820.131 24.008C820.643 24.5787 820.899 25.3307 820.899 26.264V32H818.971ZM808.579 32V23.36H810.283V26.04H810.523V32H808.579ZM813.787 32V26.776C813.787 26.1733 813.64 25.704 813.347 25.368C813.054 25.032 812.654 24.864 812.147 24.864C811.656 24.864 811.262 25.032 810.963 25.368C810.67 25.704 810.523 26.1413 810.523 26.68L809.659 26.104C809.659 25.544 809.798 25.04 810.075 24.592C810.352 24.144 810.726 23.792 811.195 23.536C811.67 23.2747 812.2 23.144 812.787 23.144C813.432 23.144 813.971 23.2827 814.403 23.56C814.84 23.832 815.166 24.2053 815.379 24.68C815.598 25.1493 815.707 25.68 815.707 26.272V32H813.787Z" fill="#433B39"/>
<path d="M765.333 58V46.48H769.781C769.893 46.48 770.018 46.4853 770.157 46.496C770.301 46.5013 770.445 46.5173 770.589 46.544C771.191 46.6347 771.701 46.8453 772.117 47.176C772.538 47.5013 772.855 47.912 773.069 48.408C773.287 48.904 773.397 49.4533 773.397 50.056C773.397 50.9253 773.167 51.68 772.709 52.32C772.25 52.96 771.594 53.3627 770.741 53.528L770.333 53.624H766.509V58H765.333ZM772.309 58L770.037 53.312L771.165 52.88L773.661 58H772.309ZM766.509 52.504H769.749C769.845 52.504 769.957 52.4987 770.085 52.488C770.213 52.4773 770.338 52.4587 770.461 52.432C770.855 52.3467 771.178 52.184 771.429 51.944C771.685 51.704 771.874 51.4187 771.997 51.088C772.125 50.7573 772.189 50.4133 772.189 50.056C772.189 49.6987 772.125 49.3547 771.997 49.024C771.874 48.688 771.685 48.4 771.429 48.16C771.178 47.92 770.855 47.7573 770.461 47.672C770.338 47.6453 770.213 47.6293 770.085 47.624C769.957 47.6133 769.845 47.608 769.749 47.608H766.509V52.504ZM778.842 58.24C778 58.24 777.269 58.0533 776.65 57.68C776.037 57.3067 775.56 56.7813 775.218 56.104C774.877 55.4267 774.706 54.632 774.706 53.72C774.706 52.776 774.874 51.96 775.21 51.272C775.546 50.584 776.018 50.0533 776.626 49.68C777.24 49.3067 777.962 49.12 778.794 49.12C779.648 49.12 780.376 49.3173 780.978 49.712C781.581 50.1013 782.037 50.6613 782.346 51.392C782.656 52.1227 782.797 52.9947 782.77 54.008H781.57V53.592C781.549 52.472 781.306 51.6267 780.842 51.056C780.384 50.4853 779.712 50.2 778.826 50.2C777.898 50.2 777.186 50.5013 776.69 51.104C776.2 51.7067 775.954 52.5653 775.954 53.68C775.954 54.768 776.2 55.6133 776.69 56.216C777.186 56.8133 777.888 57.112 778.794 57.112C779.413 57.112 779.952 56.9707 780.41 56.688C780.874 56.4 781.24 55.9867 781.506 55.448L782.602 55.872C782.261 56.624 781.757 57.208 781.09 57.624C780.429 58.0347 779.68 58.24 778.842 58.24ZM775.538 54.008V53.024H782.138V54.008H775.538ZM785.162 58V48.72C785.162 48.496 785.172 48.2747 785.194 48.056C785.22 47.8373 785.271 47.6293 785.346 47.432C785.42 47.2293 785.538 47.0427 785.698 46.872C785.874 46.68 786.066 46.5413 786.274 46.456C786.482 46.3653 786.698 46.3067 786.922 46.28C787.151 46.2533 787.375 46.24 787.594 46.24H788.698V47.232H787.674C787.226 47.232 786.89 47.3413 786.666 47.56C786.447 47.7787 786.338 48.1227 786.338 48.592V58H785.162ZM783.666 50.368V49.36H788.698V50.368H783.666ZM790.378 47.72V46.4H791.554V47.72H790.378ZM790.378 58V49.36H791.554V58H790.378ZM799.946 58V53.592C799.946 53.112 799.901 52.672 799.81 52.272C799.72 51.8667 799.573 51.5147 799.37 51.216C799.173 50.912 798.914 50.6773 798.594 50.512C798.28 50.3467 797.896 50.264 797.442 50.264C797.026 50.264 796.658 50.336 796.338 50.48C796.024 50.624 795.757 50.832 795.538 51.104C795.325 51.3707 795.162 51.696 795.05 52.08C794.938 52.464 794.882 52.9013 794.882 53.392L794.05 53.208C794.05 52.3227 794.205 51.5787 794.514 50.976C794.824 50.3733 795.25 49.9173 795.794 49.608C796.338 49.2987 796.962 49.144 797.666 49.144C798.184 49.144 798.634 49.224 799.018 49.384C799.408 49.544 799.736 49.76 800.002 50.032C800.274 50.304 800.493 50.616 800.658 50.968C800.824 51.3147 800.944 51.6853 801.018 52.08C801.093 52.4693 801.13 52.8587 801.13 53.248V58H799.946ZM793.698 58V49.36H794.762V51.488H794.882V58H793.698ZM806.576 58.24C805.733 58.24 805.002 58.0533 804.384 57.68C803.77 57.3067 803.293 56.7813 802.952 56.104C802.61 55.4267 802.44 54.632 802.44 53.72C802.44 52.776 802.608 51.96 802.944 51.272C803.28 50.584 803.752 50.0533 804.36 49.68C804.973 49.3067 805.696 49.12 806.528 49.12C807.381 49.12 808.109 49.3173 808.712 49.712C809.314 50.1013 809.77 50.6613 810.08 51.392C810.389 52.1227 810.53 52.9947 810.504 54.008H809.304V53.592C809.282 52.472 809.04 51.6267 808.576 51.056C808.117 50.4853 807.445 50.2 806.56 50.2C805.632 50.2 804.92 50.5013 804.424 51.104C803.933 51.7067 803.688 52.5653 803.688 53.68C803.688 54.768 803.933 55.6133 804.424 56.216C804.92 56.8133 805.621 57.112 806.528 57.112C807.146 57.112 807.685 56.9707 808.144 56.688C808.608 56.4 808.973 55.9867 809.24 55.448L810.336 55.872C809.994 56.624 809.49 57.208 808.824 57.624C808.162 58.0347 807.413 58.24 806.576 58.24ZM803.272 54.008V53.024H809.872V54.008H803.272ZM815.391 58.24C814.586 58.24 813.898 58.04 813.327 57.64C812.756 57.2347 812.319 56.688 812.015 56C811.711 55.312 811.559 54.536 811.559 53.672C811.559 52.8133 811.708 52.04 812.007 51.352C812.311 50.664 812.746 50.12 813.311 49.72C813.876 49.32 814.554 49.12 815.343 49.12C816.154 49.12 816.836 49.3173 817.391 49.712C817.946 50.1067 818.364 50.648 818.647 51.336C818.935 52.0187 819.079 52.7973 819.079 53.672C819.079 54.5307 818.938 55.3067 818.655 56C818.372 56.688 817.956 57.2347 817.407 57.64C816.858 58.04 816.186 58.24 815.391 58.24ZM815.511 57.144C816.124 57.144 816.631 56.9947 817.031 56.696C817.431 56.3973 817.73 55.9867 817.927 55.464C818.124 54.936 818.223 54.3387 818.223 53.672C818.223 52.9947 818.124 52.3973 817.927 51.88C817.73 51.3573 817.431 50.9493 817.031 50.656C816.636 50.3627 816.138 50.216 815.535 50.216C814.916 50.216 814.404 50.368 813.999 50.672C813.594 50.976 813.292 51.3893 813.095 51.912C812.903 52.4347 812.807 53.0213 812.807 53.672C812.807 54.328 812.906 54.92 813.103 55.448C813.306 55.9707 813.607 56.384 814.007 56.688C814.407 56.992 814.908 57.144 815.511 57.144ZM818.223 58V51.496H818.095V46.48H819.279V58H818.223ZM827.854 58.24C826.996 58.24 826.262 58.0453 825.654 57.656C825.046 57.2667 824.58 56.728 824.254 56.04C823.929 55.352 823.766 54.5627 823.766 53.672C823.766 52.7653 823.932 51.9707 824.262 51.288C824.593 50.6053 825.062 50.0747 825.67 49.696C826.284 49.312 827.012 49.12 827.854 49.12C828.718 49.12 829.454 49.3147 830.062 49.704C830.676 50.088 831.142 50.624 831.462 51.312C831.788 51.9947 831.95 52.7813 831.95 53.672C831.95 54.5787 831.788 55.376 831.462 56.064C831.137 56.7467 830.668 57.28 830.054 57.664C829.441 58.048 828.708 58.24 827.854 58.24ZM827.854 57.112C828.814 57.112 829.529 56.7947 829.998 56.16C830.468 55.52 830.702 54.6907 830.702 53.672C830.702 52.6267 830.465 51.7947 829.99 51.176C829.521 50.5573 828.809 50.248 827.854 50.248C827.209 50.248 826.676 50.3947 826.254 50.688C825.838 50.976 825.526 51.3787 825.318 51.896C825.116 52.408 825.014 53 825.014 53.672C825.014 54.712 825.254 55.5467 825.734 56.176C826.214 56.8 826.921 57.112 827.854 57.112ZM833.635 47.72V46.4H834.811V47.72H833.635ZM833.635 58V49.36H834.811V58H833.635ZM837.13 58V46.24H838.306V58H837.13Z" fill="#433B39"/>
<rect x="978.213" width="120" height="80" rx="4" fill="#F2AF29" fill-opacity="0.2"/>
<path d="M978.213 8H1098.21V76C1098.21 78.2091 1096.42 80 1094.21 80H982.213C980.004 80 978.213 78.2091 978.213 76V8Z" fill="#F2AF29"/>
<line x1="1108.71" y1="7.8938" x2="1108.71" y2="80" stroke="#E0E0E0"/>
<line x1="1102.21" y1="7.86499" x2="1115.21" y2="7.86499" stroke="#E0E0E0"/>
<line x1="1102.21" y1="79.5" x2="1115.21" y2="79.5" stroke="#E0E0E0"/>
<path d="M1122.4 46.3708C1122.07 46.3708 1121.75 46.3014 1121.44 46.1628C1121.14 46.0241 1120.84 45.8641 1120.55 45.6828C1120.27 45.5014 1120 45.3414 1119.74 45.2028C1119.48 45.0641 1119.24 44.9948 1119.02 44.9948C1118.75 44.9948 1118.57 45.1148 1118.48 45.3548C1118.4 45.5894 1118.4 45.8534 1118.49 46.1468H1117.14C1117.02 45.6454 1117 45.1921 1117.1 44.7868C1117.2 44.3761 1117.4 44.0508 1117.7 43.8108C1118 43.5708 1118.4 43.4508 1118.88 43.4508C1119.22 43.4508 1119.54 43.5201 1119.85 43.6588C1120.17 43.7974 1120.47 43.9574 1120.75 44.1388C1121.04 44.3201 1121.31 44.4801 1121.56 44.6188C1121.82 44.7574 1122.06 44.8268 1122.28 44.8268C1122.54 44.8268 1122.71 44.7121 1122.8 44.4828C1122.91 44.2481 1122.91 43.9708 1122.81 43.6508H1124.16C1124.29 44.1468 1124.3 44.6001 1124.2 45.0108C1124.11 45.4214 1123.91 45.7521 1123.6 46.0028C1123.31 46.2481 1122.91 46.3708 1122.4 46.3708ZM1130.82 38.1948C1131.55 38.1948 1132.22 38.3708 1132.81 38.7228C1133.4 39.0748 1133.87 39.5548 1134.22 40.1628C1134.57 40.7708 1134.74 41.4614 1134.74 42.2348V46.0668C1134.74 46.8721 1134.57 47.5841 1134.22 48.2028C1133.88 48.8214 1133.4 49.3068 1132.78 49.6588C1132.18 50.0108 1131.48 50.1868 1130.69 50.1868C1130.06 50.1868 1129.47 50.0561 1128.92 49.7948C1128.38 49.5334 1127.91 49.1628 1127.54 48.6828L1128.6 47.7388C1128.83 48.0694 1129.14 48.3361 1129.5 48.5388C1129.87 48.7361 1130.27 48.8348 1130.69 48.8348C1131.2 48.8348 1131.65 48.7121 1132.04 48.4668C1132.43 48.2214 1132.74 47.9014 1132.96 47.5068C1133.18 47.1121 1133.3 46.6854 1133.3 46.2268V43.9148L1133.61 44.2668C1133.28 44.7468 1132.85 45.1308 1132.34 45.4188C1131.82 45.7068 1131.26 45.8508 1130.65 45.8508C1129.93 45.8508 1129.29 45.6828 1128.73 45.3468C1128.16 45.0108 1127.71 44.5574 1127.38 43.9868C1127.05 43.4108 1126.89 42.7654 1126.89 42.0508C1126.89 41.3361 1127.07 40.6881 1127.42 40.1068C1127.78 39.5201 1128.26 39.0561 1128.85 38.7148C1129.44 38.3681 1130.1 38.1948 1130.82 38.1948ZM1130.82 39.5708C1130.36 39.5708 1129.94 39.6828 1129.56 39.9068C1129.19 40.1254 1128.89 40.4241 1128.66 40.8028C1128.44 41.1761 1128.33 41.5921 1128.33 42.0508C1128.33 42.5094 1128.44 42.9281 1128.66 43.3068C1128.88 43.6801 1129.18 43.9788 1129.55 44.2028C1129.93 44.4268 1130.35 44.5388 1130.81 44.5388C1131.27 44.5388 1131.68 44.4268 1132.06 44.2028C1132.44 43.9788 1132.74 43.6801 1132.96 43.3068C1133.18 42.9281 1133.3 42.5094 1133.3 42.0508C1133.3 41.5974 1133.18 41.1841 1132.96 40.8108C1132.74 40.4321 1132.44 40.1308 1132.06 39.9068C1131.69 39.6828 1131.27 39.5708 1130.82 39.5708ZM1140.71 50.1868C1139.97 50.1868 1139.3 50.0188 1138.71 49.6828C1138.13 49.3414 1137.67 48.8801 1137.33 48.2988C1136.99 47.7121 1136.83 47.0454 1136.83 46.2988V42.0748C1136.83 41.3281 1136.99 40.6614 1137.33 40.0748C1137.67 39.4881 1138.13 39.0268 1138.71 38.6908C1139.3 38.3548 1139.97 38.1868 1140.71 38.1868C1141.46 38.1868 1142.13 38.3548 1142.71 38.6908C1143.3 39.0268 1143.76 39.4881 1144.1 40.0748C1144.43 40.6614 1144.6 41.3281 1144.6 42.0748V46.2988C1144.6 47.0454 1144.43 47.7121 1144.1 48.2988C1143.76 48.8801 1143.3 49.3414 1142.71 49.6828C1142.13 50.0188 1141.46 50.1868 1140.71 50.1868ZM1140.71 48.8188C1141.17 48.8188 1141.58 48.7094 1141.95 48.4908C1142.31 48.2721 1142.61 47.9788 1142.83 47.6108C1143.04 47.2374 1143.15 46.8268 1143.15 46.3788V41.9868C1143.15 41.5334 1143.04 41.1228 1142.83 40.7548C1142.61 40.3868 1142.31 40.0934 1141.95 39.8748C1141.58 39.6561 1141.17 39.5468 1140.71 39.5468C1140.27 39.5468 1139.85 39.6561 1139.48 39.8748C1139.11 40.0934 1138.82 40.3868 1138.6 40.7548C1138.38 41.1228 1138.27 41.5334 1138.27 41.9868V46.3788C1138.27 46.8268 1138.38 47.2374 1138.6 47.6108C1138.82 47.9788 1139.11 48.2721 1139.48 48.4908C1139.85 48.7094 1140.27 48.8188 1140.71 48.8188ZM1147.96 49.9468L1147 48.9868L1157.58 38.4268L1158.54 39.3868L1147.96 49.9468ZM1156.14 50.1868C1155.61 50.1868 1155.13 50.0588 1154.69 49.8028C1154.26 49.5414 1153.91 49.1948 1153.65 48.7628C1153.39 48.3254 1153.26 47.8401 1153.26 47.3068C1153.26 46.7841 1153.39 46.3041 1153.66 45.8668C1153.92 45.4294 1154.28 45.0801 1154.71 44.8188C1155.15 44.5574 1155.62 44.4268 1156.14 44.4268C1156.66 44.4268 1157.15 44.5574 1157.58 44.8188C1158.02 45.0748 1158.37 45.4214 1158.62 45.8588C1158.89 46.2908 1159.02 46.7734 1159.02 47.3068C1159.02 47.8401 1158.89 48.3254 1158.62 48.7628C1158.37 49.1948 1158.02 49.5414 1157.58 49.8028C1157.15 50.0588 1156.66 50.1868 1156.14 50.1868ZM1156.14 48.9308C1156.43 48.9308 1156.7 48.8561 1156.94 48.7068C1157.2 48.5574 1157.39 48.3601 1157.54 48.1148C1157.69 47.8694 1157.76 47.6001 1157.76 47.3068C1157.76 47.0134 1157.69 46.7441 1157.54 46.4988C1157.39 46.2481 1157.2 46.0508 1156.94 45.9068C1156.7 45.7574 1156.43 45.6828 1156.14 45.6828C1155.84 45.6828 1155.57 45.7574 1155.33 45.9068C1155.08 46.0508 1154.89 46.2481 1154.74 46.4988C1154.59 46.7441 1154.51 47.0134 1154.51 47.3068C1154.51 47.6001 1154.59 47.8694 1154.74 48.1148C1154.89 48.3601 1155.08 48.5574 1155.33 48.7068C1155.57 48.8561 1155.84 48.9308 1156.14 48.9308ZM1149.4 43.9468C1148.87 43.9468 1148.39 43.8188 1147.95 43.5628C1147.52 43.3014 1147.17 42.9548 1146.9 42.5228C1146.65 42.0854 1146.52 41.6001 1146.52 41.0668C1146.52 40.5441 1146.65 40.0641 1146.92 39.6268C1147.19 39.1894 1147.54 38.8401 1147.98 38.5788C1148.41 38.3174 1148.89 38.1868 1149.4 38.1868C1149.93 38.1868 1150.41 38.3174 1150.84 38.5788C1151.28 38.8348 1151.63 39.1814 1151.89 39.6188C1152.15 40.0508 1152.28 40.5334 1152.28 41.0668C1152.28 41.6001 1152.15 42.0854 1151.89 42.5228C1151.63 42.9548 1151.28 43.3014 1150.84 43.5628C1150.41 43.8188 1149.93 43.9468 1149.4 43.9468ZM1149.4 42.6908C1149.69 42.6908 1149.96 42.6161 1150.21 42.4668C1150.46 42.3174 1150.66 42.1201 1150.8 41.8748C1150.95 41.6294 1151.02 41.3601 1151.02 41.0668C1151.02 40.7734 1150.95 40.5041 1150.8 40.2588C1150.66 40.0081 1150.46 39.8108 1150.21 39.6668C1149.96 39.5174 1149.69 39.4428 1149.4 39.4428C1149.11 39.4428 1148.84 39.5174 1148.59 39.6668C1148.35 39.8108 1148.15 40.0081 1148 40.2588C1147.85 40.5041 1147.78 40.7734 1147.78 41.0668C1147.78 41.3601 1147.85 41.6294 1148 41.8748C1148.15 42.1201 1148.35 42.3174 1148.59 42.4668C1148.84 42.6161 1149.11 42.6908 1149.4 42.6908ZM1165.19 53.7868L1166.86 49.2428L1166.88 50.5868L1163.11 41.3068H1164.6L1167.56 48.7708H1167.05L1169.83 41.3068H1171.27L1166.57 53.7868H1165.19ZM1172.6 39.7788V38.3068H1174.02V39.7788H1172.6ZM1172.6 49.9468V41.3068H1174.02V49.9468H1172.6ZM1180 50.1868C1179.16 50.1868 1178.41 50.0001 1177.78 49.6268C1177.15 49.2481 1176.66 48.7228 1176.31 48.0508C1175.96 47.3734 1175.78 46.5841 1175.78 45.6828C1175.78 44.7388 1175.95 43.9228 1176.3 43.2348C1176.65 42.5414 1177.13 42.0081 1177.75 41.6348C1178.37 41.2561 1179.1 41.0668 1179.94 41.0668C1180.81 41.0668 1181.55 41.2668 1182.16 41.6668C1182.77 42.0668 1183.23 42.6374 1183.53 43.3788C1183.84 44.1201 1183.97 45.0028 1183.93 46.0268H1182.49V45.5148C1182.48 44.4534 1182.26 43.6614 1181.84 43.1388C1181.43 42.6108 1180.81 42.3468 1179.99 42.3468C1179.11 42.3468 1178.44 42.6294 1177.98 43.1948C1177.52 43.7601 1177.29 44.5708 1177.29 45.6268C1177.29 46.6454 1177.52 47.4348 1177.98 47.9948C1178.44 48.5548 1179.09 48.8348 1179.94 48.8348C1180.51 48.8348 1181.01 48.7041 1181.43 48.4428C1181.85 48.1814 1182.18 47.8054 1182.42 47.3148L1183.79 47.7868C1183.45 48.5494 1182.94 49.1414 1182.27 49.5628C1181.6 49.9788 1180.84 50.1868 1180 50.1868ZM1176.81 46.0268V44.8828H1183.2V46.0268H1176.81ZM1185.71 49.9468V38.1868H1187.14V49.9468H1185.71ZM1192.77 50.1868C1191.96 50.1868 1191.27 49.9868 1190.7 49.5868C1190.12 49.1814 1189.68 48.6348 1189.36 47.9468C1189.05 47.2588 1188.9 46.4828 1188.9 45.6188C1188.9 44.7548 1189.05 43.9788 1189.36 43.2908C1189.68 42.6028 1190.12 42.0614 1190.7 41.6668C1191.27 41.2668 1191.96 41.0668 1192.76 41.0668C1193.58 41.0668 1194.26 41.2641 1194.82 41.6588C1195.37 42.0534 1195.79 42.5948 1196.07 43.2828C1196.36 43.9708 1196.51 44.7494 1196.51 45.6188C1196.51 46.4774 1196.36 47.2534 1196.07 47.9468C1195.79 48.6348 1195.37 49.1814 1194.82 49.5868C1194.26 49.9868 1193.58 50.1868 1192.77 50.1868ZM1192.95 48.8828C1193.53 48.8828 1194 48.7441 1194.38 48.4668C1194.75 48.1841 1195.03 47.7974 1195.2 47.3068C1195.38 46.8108 1195.47 46.2481 1195.47 45.6188C1195.47 44.9788 1195.38 44.4161 1195.2 43.9308C1195.03 43.4401 1194.75 43.0588 1194.39 42.7868C1194.02 42.5094 1193.55 42.3708 1192.99 42.3708C1192.4 42.3708 1191.91 42.5148 1191.53 42.8028C1191.15 43.0908 1190.87 43.4801 1190.68 43.9708C1190.5 44.4614 1190.41 45.0108 1190.41 45.6188C1190.41 46.2321 1190.5 46.7868 1190.69 47.2828C1190.88 47.7734 1191.16 48.1628 1191.53 48.4508C1191.91 48.7388 1192.38 48.8828 1192.95 48.8828ZM1195.47 49.9468V43.5868H1195.31V38.4268H1196.75V49.9468H1195.47Z" fill="#726C6B"/>
<rect y="124.302" width="120" height="80" rx="4" fill="#F2AF29"/>
<path d="M3.12 243.302V233.886L0.96 235.206V233.078L3.12 231.782H5.088V243.302H3.12ZM12.1196 243.542C11.3036 243.542 10.5836 243.368 9.95963 243.022C9.33563 242.67 8.84763 242.182 8.49563 241.558C8.14896 240.934 7.97563 240.214 7.97563 239.398V235.686C7.97563 234.87 8.14896 234.15 8.49563 233.526C8.84763 232.902 9.33563 232.416 9.95963 232.07C10.5836 231.718 11.3036 231.542 12.1196 231.542C12.9356 231.542 13.653 231.718 14.2716 232.07C14.8956 232.416 15.3836 232.902 15.7356 233.526C16.0876 234.15 16.2636 234.87 16.2636 235.686V239.398C16.2636 240.214 16.0876 240.934 15.7356 241.558C15.3836 242.182 14.8956 242.67 14.2716 243.022C13.653 243.368 12.9356 243.542 12.1196 243.542ZM12.1196 241.71C12.525 241.71 12.893 241.614 13.2236 241.422C13.5543 241.224 13.8156 240.963 14.0076 240.638C14.1996 240.307 14.2956 239.939 14.2956 239.534V235.542C14.2956 235.131 14.1996 234.763 14.0076 234.438C13.8156 234.107 13.5543 233.846 13.2236 233.654C12.893 233.456 12.525 233.358 12.1196 233.358C11.7143 233.358 11.3463 233.456 11.0156 233.654C10.685 233.846 10.4236 234.107 10.2316 234.438C10.0396 234.763 9.94363 235.131 9.94363 235.542V239.534C9.94363 239.939 10.0396 240.307 10.2316 240.638C10.4236 240.963 10.685 241.224 11.0156 241.422C11.3463 241.614 11.7143 241.71 12.1196 241.71ZM22.4909 243.542C21.6749 243.542 20.9549 243.368 20.3309 243.022C19.7069 242.67 19.2189 242.182 18.8669 241.558C18.5202 240.934 18.3469 240.214 18.3469 239.398V235.686C18.3469 234.87 18.5202 234.15 18.8669 233.526C19.2189 232.902 19.7069 232.416 20.3309 232.07C20.9549 231.718 21.6749 231.542 22.4909 231.542C23.3069 231.542 24.0242 231.718 24.6429 232.07C25.2669 232.416 25.7549 232.902 26.1069 233.526C26.4589 234.15 26.6349 234.87 26.6349 235.686V239.398C26.6349 240.214 26.4589 240.934 26.1069 241.558C25.7549 242.182 25.2669 242.67 24.6429 243.022C24.0242 243.368 23.3069 243.542 22.4909 243.542ZM22.4909 241.71C22.8962 241.71 23.2642 241.614 23.5949 241.422C23.9255 241.224 24.1869 240.963 24.3789 240.638C24.5709 240.307 24.6669 239.939 24.6669 239.534V235.542C24.6669 235.131 24.5709 234.763 24.3789 234.438C24.1869 234.107 23.9255 233.846 23.5949 233.654C23.2642 233.456 22.8962 233.358 22.4909 233.358C22.0855 233.358 21.7175 233.456 21.3869 233.654C21.0562 233.846 20.7949 234.107 20.6029 234.438C20.4109 234.763 20.3149 235.131 20.3149 235.542V239.534C20.3149 239.939 20.4109 240.307 20.6029 240.638C20.7949 240.963 21.0562 241.224 21.3869 241.422C21.7175 241.614 22.0855 241.71 22.4909 241.71ZM32.8621 243.542C32.0461 243.542 31.3261 243.368 30.7021 243.022C30.0781 242.67 29.5901 242.182 29.2381 241.558C28.8915 240.934 28.7181 240.214 28.7181 239.398V235.686C28.7181 234.87 28.8915 234.15 29.2381 233.526C29.5901 232.902 30.0781 232.416 30.7021 232.07C31.3261 231.718 32.0461 231.542 32.8621 231.542C33.6781 231.542 34.3955 231.718 35.0141 232.07C35.6381 232.416 36.1261 232.902 36.4781 233.526C36.8301 234.15 37.0061 234.87 37.0061 235.686V239.398C37.0061 240.214 36.8301 240.934 36.4781 241.558C36.1261 242.182 35.6381 242.67 35.0141 243.022C34.3955 243.368 33.6781 243.542 32.8621 243.542ZM32.8621 241.71C33.2675 241.71 33.6355 241.614 33.9661 241.422C34.2968 241.224 34.5581 240.963 34.7501 240.638C34.9421 240.307 35.0381 239.939 35.0381 239.534V235.542C35.0381 235.131 34.9421 234.763 34.7501 234.438C34.5581 234.107 34.2968 233.846 33.9661 233.654C33.6355 233.456 33.2675 233.358 32.8621 233.358C32.4568 233.358 32.0888 233.456 31.7581 233.654C31.4275 233.846 31.1661 234.107 30.9741 234.438C30.7821 234.763 30.6861 235.131 30.6861 235.542V239.534C30.6861 239.939 30.7821 240.307 30.9741 240.638C31.1661 240.963 31.4275 241.224 31.7581 241.422C32.0888 241.614 32.4568 241.71 32.8621 241.71ZM42.7214 247.382C42.2414 247.382 41.78 247.307 41.3374 247.158C40.9 247.008 40.5054 246.792 40.1534 246.51C39.8014 246.232 39.5134 245.896 39.2894 245.502L41.0654 244.622C41.2307 244.936 41.4627 245.168 41.7614 245.318C42.0654 245.472 42.388 245.55 42.7294 245.55C43.1294 245.55 43.4867 245.478 43.8014 245.334C44.116 245.195 44.3587 244.987 44.5294 244.71C44.7054 244.438 44.788 244.096 44.7774 243.686V241.23H45.0174V234.662H46.7054V243.718C46.7054 243.936 46.6947 244.144 46.6734 244.342C46.6574 244.544 46.628 244.742 46.5854 244.934C46.4574 245.494 46.212 245.952 45.8494 246.31C45.4867 246.672 45.036 246.942 44.4974 247.118C43.964 247.294 43.372 247.382 42.7214 247.382ZM42.5534 243.542C41.7587 243.542 41.0654 243.342 40.4734 242.942C39.8814 242.542 39.4227 241.998 39.0974 241.31C38.772 240.622 38.6094 239.846 38.6094 238.982C38.6094 238.107 38.772 237.328 39.0974 236.646C39.428 235.958 39.8947 235.416 40.4974 235.022C41.1 234.622 41.8094 234.422 42.6254 234.422C43.4467 234.422 44.1347 234.622 44.6894 235.022C45.2494 235.416 45.6734 235.958 45.9614 236.646C46.2494 237.334 46.3934 238.112 46.3934 238.982C46.3934 239.84 46.2494 240.616 45.9614 241.31C45.6734 241.998 45.244 242.542 44.6734 242.942C44.1027 243.342 43.396 243.542 42.5534 243.542ZM42.8494 241.814C43.3667 241.814 43.7827 241.696 44.0974 241.462C44.4174 241.222 44.6494 240.888 44.7934 240.462C44.9427 240.035 45.0174 239.542 45.0174 238.982C45.0174 238.416 44.9427 237.923 44.7934 237.502C44.6494 237.075 44.4227 236.744 44.1134 236.51C43.804 236.27 43.404 236.15 42.9134 236.15C42.396 236.15 41.9694 236.278 41.6334 236.534C41.2974 236.784 41.0494 237.126 40.8894 237.558C40.7294 237.984 40.6494 238.459 40.6494 238.982C40.6494 239.51 40.7267 239.99 40.8814 240.422C41.0414 240.848 41.284 241.187 41.6094 241.438C41.9347 241.688 42.348 241.814 42.8494 241.814ZM59.1648 243.302V238.054C59.1648 237.462 59.0181 237 58.7248 236.67C58.4314 236.334 58.0341 236.166 57.5328 236.166C57.2234 236.166 56.9461 236.238 56.7008 236.382C56.4554 236.52 56.2608 236.728 56.1168 237.006C55.9728 237.278 55.9008 237.603 55.9008 237.982L55.0448 237.478C55.0394 236.88 55.1728 236.355 55.4448 235.902C55.7221 235.443 56.0954 235.086 56.5648 234.83C57.0341 234.574 57.5568 234.446 58.1328 234.446C59.0874 234.446 59.8181 234.734 60.3248 235.31C60.8368 235.88 61.0928 236.632 61.0928 237.566V243.302H59.1648ZM48.7728 243.302V234.662H50.4768V237.342H50.7168V243.302H48.7728ZM53.9808 243.302V238.078C53.9808 237.475 53.8341 237.006 53.5408 236.67C53.2474 236.334 52.8474 236.166 52.3408 236.166C51.8501 236.166 51.4554 236.334 51.1568 236.67C50.8634 237.006 50.7168 237.443 50.7168 237.982L49.8528 237.406C49.8528 236.846 49.9914 236.342 50.2688 235.894C50.5461 235.446 50.9194 235.094 51.3888 234.838C51.8634 234.576 52.3941 234.446 52.9808 234.446C53.6261 234.446 54.1648 234.584 54.5968 234.862C55.0341 235.134 55.3594 235.507 55.5728 235.982C55.7914 236.451 55.9008 236.982 55.9008 237.574V243.302H53.9808Z" fill="#433B39"/>
<path d="M5.736 269.542C4.92533 269.542 4.19467 269.4 3.544 269.118C2.89333 268.835 2.33867 268.432 1.88 267.91C1.42667 267.387 1.08 266.758 0.84 266.022C0.6 265.28 0.48 264.454 0.48 263.542C0.48 262.336 0.688 261.286 1.104 260.39C1.52533 259.488 2.128 258.79 2.912 258.294C3.696 257.798 4.63733 257.55 5.736 257.55C6.96267 257.55 7.96 257.838 8.728 258.414C9.50133 258.984 10.04 259.752 10.344 260.718L9.16 261.006C8.90933 260.302 8.496 259.739 7.92 259.318C7.34933 258.896 6.63733 258.686 5.784 258.686C4.88267 258.68 4.13333 258.883 3.536 259.294C2.93867 259.699 2.488 260.27 2.184 261.006C1.88533 261.736 1.73333 262.582 1.728 263.542C1.72267 264.502 1.86933 265.347 2.168 266.078C2.472 266.803 2.92533 267.374 3.528 267.79C4.13067 268.2 4.88267 268.408 5.784 268.414C6.61067 268.414 7.29333 268.254 7.832 267.934C8.37067 267.614 8.77867 267.155 9.056 266.558C9.33867 265.96 9.49867 265.254 9.536 264.438H6.88V263.43H10.768C10.784 263.552 10.792 263.683 10.792 263.822C10.7973 263.955 10.8 264.051 10.8 264.11C10.8 265.15 10.6133 266.08 10.24 266.902C9.86667 267.718 9.304 268.363 8.552 268.838C7.80533 269.307 6.86667 269.542 5.736 269.542ZM12.1613 269.302V260.662H13.2173V262.742L13.0093 262.47C13.1053 262.214 13.2306 261.979 13.3853 261.766C13.5399 261.547 13.7079 261.368 13.8893 261.23C14.1133 261.032 14.3746 260.883 14.6733 260.782C14.9719 260.675 15.2733 260.614 15.5773 260.598C15.8813 260.576 16.1586 260.598 16.4093 260.662V261.766C16.0946 261.686 15.7506 261.667 15.3773 261.71C15.0039 261.752 14.6599 261.902 14.3453 262.158C14.0573 262.382 13.8413 262.651 13.6973 262.966C13.5533 263.275 13.4573 263.606 13.4093 263.958C13.3613 264.304 13.3373 264.648 13.3373 264.99V269.302H12.1613ZM21.1386 269.542C20.28 269.542 19.5466 269.347 18.9386 268.958C18.3306 268.568 17.864 268.03 17.5386 267.342C17.2133 266.654 17.0506 265.864 17.0506 264.974C17.0506 264.067 17.216 263.272 17.5466 262.59C17.8773 261.907 18.3466 261.376 18.9546 260.998C19.568 260.614 20.296 260.422 21.1386 260.422C22.0026 260.422 22.7386 260.616 23.3466 261.006C23.96 261.39 24.4266 261.926 24.7466 262.614C25.072 263.296 25.2346 264.083 25.2346 264.974C25.2346 265.88 25.072 266.678 24.7466 267.366C24.4213 268.048 23.952 268.582 23.3386 268.966C22.7253 269.35 21.992 269.542 21.1386 269.542ZM21.1386 268.414C22.0986 268.414 22.8133 268.096 23.2826 267.462C23.752 266.822 23.9866 265.992 23.9866 264.974C23.9866 263.928 23.7493 263.096 23.2746 262.478C22.8053 261.859 22.0933 261.55 21.1386 261.55C20.4933 261.55 19.96 261.696 19.5386 261.99C19.1226 262.278 18.8106 262.68 18.6026 263.198C18.4 263.71 18.2986 264.302 18.2986 264.974C18.2986 266.014 18.5386 266.848 19.0186 267.478C19.4986 268.102 20.2053 268.414 21.1386 268.414ZM30.0634 269.518C29.546 269.518 29.0927 269.438 28.7034 269.278C28.3194 269.118 27.9914 268.902 27.7194 268.63C27.4527 268.358 27.2367 268.048 27.0714 267.702C26.906 267.35 26.786 266.979 26.7114 266.59C26.6367 266.195 26.5994 265.803 26.5994 265.414V260.662H27.7834V265.07C27.7834 265.544 27.8287 265.984 27.9194 266.39C28.01 266.795 28.154 267.15 28.3514 267.454C28.554 267.752 28.8127 267.984 29.1274 268.15C29.4474 268.315 29.834 268.398 30.2874 268.398C30.7034 268.398 31.0687 268.326 31.3834 268.182C31.7034 268.038 31.97 267.832 32.1834 267.566C32.402 267.294 32.5674 266.966 32.6794 266.582C32.7914 266.192 32.8474 265.755 32.8474 265.27L33.6794 265.454C33.6794 266.339 33.5247 267.083 33.2154 267.686C32.906 268.288 32.4794 268.744 31.9354 269.054C31.3914 269.363 30.7674 269.518 30.0634 269.518ZM32.9674 269.302V267.174H32.8474V260.662H34.0234V269.302H32.9674ZM42.2594 269.302V264.894C42.2594 264.414 42.214 263.974 42.1234 263.574C42.0327 263.168 41.886 262.816 41.6834 262.518C41.486 262.214 41.2274 261.979 40.9074 261.814C40.5927 261.648 40.2087 261.566 39.7554 261.566C39.3394 261.566 38.9714 261.638 38.6514 261.782C38.3367 261.926 38.07 262.134 37.8514 262.406C37.638 262.672 37.4754 262.998 37.3634 263.382C37.2514 263.766 37.1954 264.203 37.1954 264.694L36.3634 264.51C36.3634 263.624 36.518 262.88 36.8274 262.278C37.1367 261.675 37.5634 261.219 38.1074 260.91C38.6514 260.6 39.2754 260.446 39.9794 260.446C40.4967 260.446 40.9474 260.526 41.3314 260.686C41.7207 260.846 42.0487 261.062 42.3154 261.334C42.5874 261.606 42.806 261.918 42.9714 262.27C43.1367 262.616 43.2567 262.987 43.3314 263.382C43.406 263.771 43.4434 264.16 43.4434 264.55V269.302H42.2594ZM36.0114 269.302V260.662H37.0754V262.79H37.1954V269.302H36.0114ZM48.5845 269.542C47.7792 269.542 47.0912 269.342 46.5205 268.942C45.9498 268.536 45.5125 267.99 45.2085 267.302C44.9045 266.614 44.7525 265.838 44.7525 264.974C44.7525 264.115 44.9018 263.342 45.2005 262.654C45.5045 261.966 45.9392 261.422 46.5045 261.022C47.0698 260.622 47.7472 260.422 48.5365 260.422C49.3472 260.422 50.0298 260.619 50.5845 261.014C51.1392 261.408 51.5578 261.95 51.8405 262.638C52.1285 263.32 52.2725 264.099 52.2725 264.974C52.2725 265.832 52.1312 266.608 51.8485 267.302C51.5658 267.99 51.1498 268.536 50.6005 268.942C50.0512 269.342 49.3792 269.542 48.5845 269.542ZM48.7045 268.446C49.3178 268.446 49.8245 268.296 50.2245 267.998C50.6245 267.699 50.9232 267.288 51.1205 266.766C51.3178 266.238 51.4165 265.64 51.4165 264.974C51.4165 264.296 51.3178 263.699 51.1205 263.182C50.9232 262.659 50.6245 262.251 50.2245 261.958C49.8298 261.664 49.3312 261.518 48.7285 261.518C48.1098 261.518 47.5978 261.67 47.1925 261.974C46.7872 262.278 46.4858 262.691 46.2885 263.214C46.0965 263.736 46.0005 264.323 46.0005 264.974C46.0005 265.63 46.0992 266.222 46.2965 266.75C46.4992 267.272 46.8005 267.686 47.2005 267.99C47.6005 268.294 48.1018 268.446 48.7045 268.446ZM51.4165 269.302V262.798H51.2885V257.782H52.4725V269.302H51.4165ZM60.7169 269.302V264.894C60.7169 264.414 60.6715 263.974 60.5809 263.574C60.4902 263.168 60.3435 262.816 60.1409 262.518C59.9435 262.214 59.6849 261.979 59.3649 261.814C59.0502 261.648 58.6662 261.566 58.2129 261.566C57.7969 261.566 57.4289 261.638 57.1089 261.782C56.7942 261.926 56.5275 262.134 56.3089 262.406C56.0955 262.672 55.9329 262.998 55.8209 263.382C55.7089 263.766 55.6529 264.203 55.6529 264.694L54.8209 264.51C54.8209 263.624 54.9755 262.88 55.2849 262.278C55.5942 261.675 56.0209 261.219 56.5649 260.91C57.1089 260.6 57.7329 260.446 58.4369 260.446C58.9542 260.446 59.4049 260.526 59.7889 260.686C60.1782 260.846 60.5062 261.062 60.7729 261.334C61.0449 261.606 61.2635 261.918 61.4289 262.27C61.5942 262.616 61.7142 262.987 61.7889 263.382C61.8635 263.771 61.9009 264.16 61.9009 264.55V269.302H60.7169ZM54.4689 269.302V260.662H55.5329V262.79H55.6529V269.302H54.4689ZM67.0409 269.518C66.5235 269.518 66.0702 269.438 65.6809 269.278C65.2969 269.118 64.9689 268.902 64.6969 268.63C64.4302 268.358 64.2142 268.048 64.0489 267.702C63.8835 267.35 63.7635 266.979 63.6889 266.59C63.6142 266.195 63.5769 265.803 63.5769 265.414V260.662H64.7609V265.07C64.7609 265.544 64.8062 265.984 64.8969 266.39C64.9875 266.795 65.1315 267.15 65.3289 267.454C65.5315 267.752 65.7902 267.984 66.1049 268.15C66.4249 268.315 66.8115 268.398 67.2649 268.398C67.6809 268.398 68.0462 268.326 68.3609 268.182C68.6809 268.038 68.9475 267.832 69.1609 267.566C69.3795 267.294 69.5449 266.966 69.6569 266.582C69.7689 266.192 69.8249 265.755 69.8249 265.27L70.6569 265.454C70.6569 266.339 70.5022 267.083 70.1929 267.686C69.8835 268.288 69.4569 268.744 68.9129 269.054C68.3689 269.363 67.7449 269.518 67.0409 269.518ZM69.9449 269.302V267.174H69.8249V260.662H71.0009V269.302H69.9449ZM77.7009 269.302C77.2155 269.403 76.7355 269.443 76.2609 269.422C75.7915 269.4 75.3702 269.299 74.9969 269.118C74.6289 268.936 74.3489 268.654 74.1569 268.27C74.0022 267.95 73.9169 267.627 73.9009 267.302C73.8902 266.971 73.8849 266.595 73.8849 266.174V258.262H75.0529V266.126C75.0529 266.488 75.0555 266.792 75.0609 267.038C75.0715 267.278 75.1275 267.491 75.2289 267.678C75.4209 268.035 75.7249 268.248 76.1409 268.318C76.5622 268.387 77.0822 268.371 77.7009 268.27V269.302ZM72.0369 261.67V260.662H77.7009V261.67H72.0369ZM82.3871 269.534C81.3738 269.534 80.5391 269.315 79.8831 268.878C79.2325 268.44 78.8325 267.832 78.6831 267.054L79.8831 266.854C80.0111 267.344 80.3018 267.736 80.7551 268.03C81.2138 268.318 81.7791 268.462 82.4511 268.462C83.1071 268.462 83.6245 268.326 84.0031 268.054C84.3818 267.776 84.5711 267.4 84.5711 266.926C84.5711 266.659 84.5098 266.443 84.3871 266.278C84.2698 266.107 84.0271 265.95 83.6591 265.806C83.2911 265.662 82.7418 265.491 82.0111 265.294C81.2271 265.08 80.6138 264.867 80.1711 264.654C79.7285 264.44 79.4138 264.195 79.2271 263.918C79.0405 263.635 78.9471 263.291 78.9471 262.886C78.9471 262.395 79.0858 261.966 79.3631 261.598C79.6405 261.224 80.0245 260.936 80.5151 260.734C81.0058 260.526 81.5765 260.422 82.2271 260.422C82.8778 260.422 83.4591 260.528 83.9711 260.742C84.4885 260.95 84.9045 261.243 85.2191 261.622C85.5338 262 85.7205 262.44 85.7791 262.942L84.5791 263.158C84.4991 262.651 84.2458 262.251 83.8191 261.958C83.3978 261.659 82.8618 261.504 82.2111 261.494C81.5978 261.478 81.0991 261.595 80.7151 261.846C80.3311 262.091 80.1391 262.419 80.1391 262.83C80.1391 263.059 80.2085 263.256 80.3471 263.422C80.4858 263.582 80.7365 263.734 81.0991 263.878C81.4671 264.022 81.9898 264.179 82.6671 264.35C83.4618 264.552 84.0858 264.766 84.5391 264.99C84.9925 265.214 85.3151 265.478 85.5071 265.782C85.6991 266.086 85.7951 266.462 85.7951 266.91C85.7951 267.726 85.4911 268.368 84.8831 268.838C84.2805 269.302 83.4485 269.534 82.3871 269.534Z" fill="#433B39"/>
<path d="M739.726 42.6063C740.116 42.2158 740.116 41.5826 739.726 41.1921L733.362 34.8281C732.971 34.4376 732.338 34.4376 731.948 34.8281C731.557 35.2186 731.557 35.8518 731.948 36.2423L737.605 41.8992L731.948 47.556C731.557 47.9465 731.557 48.5797 731.948 48.9702C732.338 49.3608 732.971 49.3608 733.362 48.9702L739.726 42.6063ZM166.384 161.101H329.484V159.101H166.384V161.101ZM338.484 152.101V49.8992H336.484V152.101H338.484ZM345.484 42.8992H739.019V40.8992H345.484V42.8992ZM338.484 49.8992C338.484 46.0332 341.618 42.8992 345.484 42.8992V40.8992C340.514 40.8992 336.484 44.9286 336.484 49.8992H338.484ZM329.484 161.101C334.455 161.101 338.484 157.071 338.484 152.101H336.484C336.484 155.967 333.35 159.101 329.484 159.101V161.101Z" fill="#D0CECE"/>
<path d="M736.71 274.594C737.1 274.985 737.1 275.618 736.71 276.009L730.346 282.373C729.955 282.763 729.322 282.763 728.931 282.373C728.541 281.982 728.541 281.349 728.931 280.958L734.588 275.302L728.931 269.645C728.541 269.254 728.541 268.621 728.931 268.23C729.322 267.84 729.955 267.84 730.346 268.23L736.71 274.594ZM166.384 159.101H329.484V161.101H166.384V159.101ZM338.484 168.101V267.302H336.484V168.101H338.484ZM345.484 274.302H736.003V276.302H345.484V274.302ZM338.484 267.302C338.484 271.168 341.618 274.302 345.484 274.302V276.302C340.514 276.302 336.484 272.272 336.484 267.302H338.484ZM329.484 159.101C334.455 159.101 338.484 163.13 338.484 168.101H336.484C336.484 164.235 333.35 161.101 329.484 161.101V159.101Z" fill="#D0CECE"/>
<rect x="434.693" y="21.8992" width="127.87" height="40" rx="20" fill="#FBF4F4"/>
<path d="M453.23 47.9183L453.224 47.9255M453.224 47.9255V47.9255ZM466.527 40.2648C466.754 41.3442 466.753 42.4589 466.526 43.5382L464.72 44.54L464.527 44.6467L464.423 44.8404C464.317 45.0374 464.216 45.2166 464.112 45.3844L463.994 45.5718L463.998 45.7929L464.028 47.8598C463.208 48.598 462.244 49.1571 461.196 49.5013L459.414 48.4351L459.236 48.3287H459.029H458.357H458.149L457.971 48.4359L456.195 49.5028C455.147 49.1573 454.182 48.6006 453.358 47.8672L453.396 45.7956L453.4 45.5631L453.272 45.369C453.165 45.2069 453.069 45.0383 452.983 44.8642L452.879 44.6538L452.674 44.54L450.859 43.5333C450.632 42.4555 450.632 41.3425 450.859 40.2647L452.667 39.2574L452.859 39.1507L452.963 38.9577C453.069 38.7596 453.165 38.5895 453.27 38.4323L453.4 38.237L453.396 38.0025L453.358 35.9381C454.179 35.1988 455.145 34.6392 456.195 34.2952L457.971 35.3622L458.161 35.4766L458.383 35.4689C458.592 35.4617 458.794 35.4617 459.003 35.4689L459.225 35.4766L459.415 35.3622L461.191 34.2952C462.239 34.6389 463.205 35.1959 464.028 35.9309L463.998 38.0052L463.994 38.2303L464.116 38.42C464.22 38.5829 464.315 38.753 464.401 38.9307L464.505 39.1433L464.712 39.2581L466.527 40.2648Z" fill="#B61F1F" stroke="#B61F1F" stroke-width="1.5"/>
<path d="M473.673 46.8992V36.8192H477.929C478.027 36.8192 478.158 36.8238 478.321 36.8332C478.489 36.8378 478.638 36.8518 478.769 36.8752C479.371 36.9685 479.863 37.1668 480.246 37.4702C480.633 37.7735 480.918 38.1562 481.1 38.6182C481.282 39.0755 481.373 39.5865 481.373 40.1512C481.373 40.9958 481.163 41.7192 480.743 42.3212C480.323 42.9185 479.665 43.2872 478.769 43.4272L477.929 43.4832H475.577V46.8992H473.673ZM479.357 46.8992L477.369 42.7972L479.329 42.4192L481.513 46.8992H479.357ZM475.577 41.7052H477.845C477.943 41.7052 478.05 41.7005 478.167 41.6912C478.284 41.6818 478.391 41.6632 478.489 41.6352C478.746 41.5652 478.944 41.4485 479.084 41.2852C479.224 41.1172 479.32 40.9328 479.371 40.7322C479.427 40.5268 479.455 40.3332 479.455 40.1512C479.455 39.9692 479.427 39.7778 479.371 39.5772C479.32 39.3718 479.224 39.1875 479.084 39.0242C478.944 38.8562 478.746 38.7372 478.489 38.6672C478.391 38.6392 478.284 38.6205 478.167 38.6112C478.05 38.6018 477.943 38.5972 477.845 38.5972H475.577V41.7052ZM483.752 46.8992V36.8192H490.332V38.5972H485.656V40.7532H489.492V42.5312H485.656V45.1212H490.332V46.8992H483.752ZM492.71 46.8992V36.8192H498.87V38.7232H494.614V40.9072H498.03V42.8112H494.614V46.8992H492.71ZM500.973 46.8992V36.8192H502.877V46.8992H500.973ZM505.676 46.8992V36.8192H507.608L511.99 43.5392V36.8192H513.922V46.8992H511.99L507.608 40.1792V46.8992H505.676ZM516.715 46.8992V36.8192H518.619V46.8992H516.715ZM521.418 46.8992V36.8192H523.35L527.732 43.5392V36.8192H529.664V46.8992H527.732L523.35 40.1792V46.8992H521.418ZM536.517 47.1092C535.882 47.1092 535.278 46.9972 534.704 46.7732C534.13 46.5445 533.621 46.2085 533.178 45.7652C532.739 45.3218 532.392 44.7735 532.135 44.1202C531.883 43.4668 531.757 42.7132 531.757 41.8592C531.757 40.7438 531.969 39.7965 532.394 39.0172C532.823 38.2332 533.397 37.6358 534.116 37.2252C534.839 36.8145 535.64 36.6092 536.517 36.6092C537.814 36.6092 538.834 36.9102 539.576 37.5122C540.318 38.1142 540.815 38.9658 541.067 40.0672L539.121 40.3472C538.939 39.7592 538.64 39.2902 538.225 38.9402C537.814 38.5855 537.287 38.4058 536.643 38.4012C536.004 38.3918 535.472 38.5295 535.047 38.8142C534.622 39.0988 534.303 39.5025 534.088 40.0252C533.878 40.5478 533.773 41.1592 533.773 41.8592C533.773 42.5592 533.878 43.1658 534.088 43.6792C534.303 44.1925 534.622 44.5915 535.047 44.8762C535.472 45.1608 536.004 45.3078 536.643 45.3172C537.077 45.3265 537.469 45.2518 537.819 45.0932C538.174 44.9345 538.472 44.6848 538.715 44.3442C538.958 44.0035 539.13 43.5672 539.233 43.0352H537.637V41.5652H541.263C541.272 41.6258 541.279 41.7332 541.284 41.8872C541.289 42.0412 541.291 42.1298 541.291 42.1532C541.291 43.1192 541.095 43.9755 540.703 44.7222C540.311 45.4688 539.758 46.0545 539.044 46.4792C538.33 46.8992 537.488 47.1092 536.517 47.1092Z" fill="#B61F1F"/>
<rect x="434.693" y="21.8992" width="127.87" height="40" rx="20" stroke="white" stroke-width="4"/>
<rect x="435.743" y="255.302" width="181.407" height="40" rx="20" fill="#E9F3E9"/>
<path d="M454.28 281.321L454.274 281.328M454.274 281.328V281.328ZM467.577 273.667C467.804 274.747 467.803 275.861 467.576 276.941L465.77 277.942L465.577 278.049L465.473 278.243C465.367 278.44 465.266 278.619 465.161 278.787L465.044 278.974L465.047 279.195L465.078 281.262C464.258 282 463.294 282.559 462.246 282.904L460.464 281.837L460.286 281.731H460.079H459.407H459.199L459.02 281.838L457.245 282.905C456.197 282.56 455.232 282.003 454.408 281.27L454.446 279.198L454.45 278.965L454.322 278.771C454.215 278.609 454.118 278.441 454.033 278.267L453.929 278.056L453.724 277.942L451.908 276.936C451.682 275.858 451.682 274.745 451.909 273.667L453.717 272.66L453.909 272.553L454.012 272.36C454.119 272.162 454.215 271.992 454.32 271.835L454.45 271.639L454.446 271.405L454.408 269.34C455.229 268.601 456.195 268.042 457.245 267.698L459.02 268.765L459.211 268.879L459.433 268.871C459.642 268.864 459.843 268.864 460.053 268.871L460.275 268.879L460.465 268.765L462.241 267.698C463.289 268.041 464.255 268.598 465.078 269.333L465.047 271.408L465.044 271.633L465.165 271.822C465.269 271.985 465.365 272.155 465.451 272.333L465.555 272.546L465.762 272.66L467.577 273.667Z" fill="#228B22" stroke="#228B22" stroke-width="1.5"/>
<path d="M479.049 280.512C478.041 280.512 477.17 280.292 476.438 279.854C475.71 279.415 475.147 278.801 474.751 278.013C474.359 277.224 474.163 276.307 474.163 275.262C474.163 274.216 474.359 273.299 474.751 272.511C475.147 271.722 475.71 271.108 476.438 270.67C477.17 270.231 478.041 270.012 479.049 270.012C480.206 270.012 481.177 270.299 481.961 270.873C482.749 271.447 483.305 272.224 483.627 273.204L481.709 273.736C481.522 273.124 481.207 272.651 480.764 272.315C480.32 271.974 479.749 271.804 479.049 271.804C478.409 271.804 477.875 271.946 477.446 272.231C477.021 272.515 476.701 272.917 476.487 273.435C476.272 273.953 476.165 274.562 476.165 275.262C476.165 275.962 476.272 276.571 476.487 277.089C476.701 277.607 477.021 278.008 477.446 278.293C477.875 278.577 478.409 278.72 479.049 278.72C479.749 278.72 480.32 278.549 480.764 278.209C481.207 277.868 481.522 277.394 481.709 276.788L483.627 277.32C483.305 278.3 482.749 279.077 481.961 279.651C481.177 280.225 480.206 280.512 479.049 280.512ZM490.194 280.512C489.186 280.512 488.316 280.292 487.583 279.854C486.855 279.415 486.293 278.801 485.896 278.013C485.504 277.224 485.308 276.307 485.308 275.262C485.308 274.216 485.504 273.299 485.896 272.511C486.293 271.722 486.855 271.108 487.583 270.67C488.316 270.231 489.186 270.012 490.194 270.012C491.202 270.012 492.07 270.231 492.798 270.67C493.531 271.108 494.093 271.722 494.485 272.511C494.882 273.299 495.08 274.216 495.08 275.262C495.08 276.307 494.882 277.224 494.485 278.013C494.093 278.801 493.531 279.415 492.798 279.854C492.07 280.292 491.202 280.512 490.194 280.512ZM490.194 278.72C490.833 278.729 491.365 278.591 491.79 278.307C492.215 278.022 492.532 277.618 492.742 277.096C492.957 276.573 493.064 275.962 493.064 275.262C493.064 274.562 492.957 273.955 492.742 273.442C492.532 272.928 492.215 272.529 491.79 272.245C491.365 271.96 490.833 271.813 490.194 271.804C489.555 271.794 489.023 271.932 488.598 272.217C488.173 272.501 487.854 272.905 487.639 273.428C487.429 273.95 487.324 274.562 487.324 275.262C487.324 275.962 487.429 276.568 487.639 277.082C487.854 277.595 488.173 277.994 488.598 278.279C489.023 278.563 489.555 278.71 490.194 278.72ZM497.317 280.302V270.222H499.221V278.524H503.561V280.302H497.317ZM505.452 280.302V270.222H508.714C508.793 270.222 508.956 270.224 509.204 270.229C509.451 270.233 509.689 270.25 509.918 270.278C510.73 270.376 511.418 270.658 511.983 271.125C512.547 271.591 512.977 272.184 513.271 272.903C513.565 273.621 513.712 274.408 513.712 275.262C513.712 276.116 513.565 276.902 513.271 277.621C512.977 278.339 512.547 278.932 511.983 279.399C511.418 279.865 510.73 280.148 509.918 280.246C509.689 280.274 509.451 280.29 509.204 280.295C508.956 280.299 508.793 280.302 508.714 280.302H505.452ZM507.384 278.51H508.714C508.84 278.51 509.01 278.507 509.225 278.503C509.439 278.493 509.633 278.472 509.806 278.44C510.244 278.351 510.601 278.146 510.877 277.824C511.157 277.502 511.362 277.114 511.493 276.662C511.628 276.209 511.696 275.742 511.696 275.262C511.696 274.758 511.626 274.279 511.486 273.827C511.35 273.374 511.143 272.991 510.863 272.679C510.583 272.366 510.23 272.168 509.806 272.084C509.633 272.046 509.439 272.025 509.225 272.021C509.01 272.016 508.84 272.014 508.714 272.014H507.384V278.51ZM519.594 280.302V270.222H523.85C523.948 270.222 524.078 270.226 524.242 270.236C524.41 270.24 524.559 270.254 524.69 270.278C525.292 270.371 525.784 270.569 526.167 270.873C526.554 271.176 526.839 271.559 527.021 272.021C527.203 272.478 527.294 272.989 527.294 273.554C527.294 274.118 527.2 274.632 527.014 275.094C526.832 275.551 526.547 275.931 526.16 276.235C525.777 276.538 525.287 276.736 524.69 276.83C524.559 276.848 524.41 276.862 524.242 276.872C524.074 276.881 523.943 276.886 523.85 276.886H521.498V280.302H519.594ZM521.498 275.108H523.766C523.864 275.108 523.971 275.103 524.088 275.094C524.204 275.084 524.312 275.066 524.41 275.038C524.666 274.968 524.865 274.851 525.005 274.688C525.145 274.52 525.24 274.335 525.292 274.135C525.348 273.929 525.376 273.736 525.376 273.554C525.376 273.372 525.348 273.18 525.292 272.98C525.24 272.774 525.145 272.59 525.005 272.427C524.865 272.259 524.666 272.14 524.41 272.07C524.312 272.042 524.204 272.023 524.088 272.014C523.971 272.004 523.864 272 523.766 272H521.498V275.108ZM529.399 280.302V270.222H533.655C533.753 270.222 533.884 270.226 534.047 270.236C534.215 270.24 534.365 270.254 534.495 270.278C535.097 270.371 535.59 270.569 535.972 270.873C536.36 271.176 536.644 271.559 536.826 272.021C537.008 272.478 537.099 272.989 537.099 273.554C537.099 274.398 536.889 275.122 536.469 275.724C536.049 276.321 535.391 276.69 534.495 276.83L533.655 276.886H531.303V280.302H529.399ZM535.083 280.302L533.095 276.2L535.055 275.822L537.239 280.302H535.083ZM531.303 275.108H533.571C533.669 275.108 533.777 275.103 533.893 275.094C534.01 275.084 534.117 275.066 534.215 275.038C534.472 274.968 534.67 274.851 534.81 274.688C534.95 274.52 535.046 274.335 535.097 274.135C535.153 273.929 535.181 273.736 535.181 273.554C535.181 273.372 535.153 273.18 535.097 272.98C535.046 272.774 534.95 272.59 534.81 272.427C534.67 272.259 534.472 272.14 534.215 272.07C534.117 272.042 534.01 272.023 533.893 272.014C533.777 272.004 533.669 272 533.571 272H531.303V275.108ZM539.478 280.302V270.222H546.058V272H541.382V274.156H545.218V275.934H541.382V278.524H546.058V280.302H539.478ZM552.244 280.512C551.497 280.512 550.823 280.381 550.221 280.12C549.624 279.854 549.131 279.476 548.744 278.986C548.361 278.491 548.119 277.903 548.016 277.222L550.004 276.928C550.144 277.506 550.433 277.952 550.872 278.265C551.311 278.577 551.81 278.734 552.37 278.734C552.683 278.734 552.986 278.685 553.28 278.587C553.574 278.489 553.814 278.344 554.001 278.153C554.192 277.961 554.288 277.726 554.288 277.446C554.288 277.343 554.272 277.245 554.239 277.152C554.211 277.054 554.162 276.963 554.092 276.879C554.022 276.795 553.922 276.715 553.791 276.641C553.665 276.566 553.504 276.498 553.308 276.438L550.69 275.668C550.494 275.612 550.265 275.532 550.004 275.43C549.747 275.327 549.498 275.18 549.255 274.989C549.012 274.797 548.809 274.545 548.646 274.233C548.487 273.915 548.408 273.516 548.408 273.036C548.408 272.359 548.578 271.797 548.919 271.349C549.26 270.901 549.715 270.567 550.284 270.348C550.853 270.128 551.483 270.021 552.174 270.026C552.869 270.035 553.49 270.154 554.036 270.383C554.582 270.611 555.039 270.945 555.408 271.384C555.777 271.818 556.043 272.35 556.206 272.98L554.148 273.33C554.073 273.003 553.936 272.728 553.735 272.504C553.534 272.28 553.294 272.109 553.014 271.993C552.739 271.876 552.449 271.813 552.146 271.804C551.847 271.794 551.565 271.836 551.299 271.93C551.038 272.018 550.823 272.149 550.655 272.322C550.492 272.494 550.41 272.7 550.41 272.938C550.41 273.157 550.478 273.337 550.613 273.477C550.748 273.612 550.919 273.722 551.124 273.806C551.329 273.89 551.539 273.96 551.754 274.016L553.504 274.492C553.765 274.562 554.055 274.655 554.372 274.772C554.689 274.884 554.993 275.042 555.282 275.248C555.576 275.448 555.816 275.714 556.003 276.046C556.194 276.377 556.29 276.797 556.29 277.306C556.29 277.847 556.176 278.321 555.947 278.727C555.723 279.128 555.42 279.462 555.037 279.728C554.654 279.989 554.22 280.185 553.735 280.316C553.254 280.446 552.757 280.512 552.244 280.512ZM562.542 280.512C561.795 280.512 561.121 280.381 560.519 280.12C559.921 279.854 559.429 279.476 559.042 278.986C558.659 278.491 558.416 277.903 558.314 277.222L560.302 276.928C560.442 277.506 560.731 277.952 561.17 278.265C561.608 278.577 562.108 278.734 562.668 278.734C562.98 278.734 563.284 278.685 563.578 278.587C563.872 278.489 564.112 278.344 564.299 278.153C564.49 277.961 564.586 277.726 564.586 277.446C564.586 277.343 564.569 277.245 564.537 277.152C564.509 277.054 564.46 276.963 564.39 276.879C564.32 276.795 564.219 276.715 564.089 276.641C563.963 276.566 563.802 276.498 563.606 276.438L560.988 275.668C560.792 275.612 560.563 275.532 560.302 275.43C560.045 275.327 559.795 275.18 559.553 274.989C559.31 274.797 559.107 274.545 558.944 274.233C558.785 273.915 558.706 273.516 558.706 273.036C558.706 272.359 558.876 271.797 559.217 271.349C559.557 270.901 560.012 270.567 560.582 270.348C561.151 270.128 561.781 270.021 562.472 270.026C563.167 270.035 563.788 270.154 564.334 270.383C564.88 270.611 565.337 270.945 565.706 271.384C566.074 271.818 566.34 272.35 566.504 272.98L564.446 273.33C564.371 273.003 564.233 272.728 564.033 272.504C563.832 272.28 563.592 272.109 563.312 271.993C563.036 271.876 562.747 271.813 562.444 271.804C562.145 271.794 561.863 271.836 561.597 271.93C561.335 272.018 561.121 272.149 560.953 272.322C560.789 272.494 560.708 272.7 560.708 272.938C560.708 273.157 560.775 273.337 560.911 273.477C561.046 273.612 561.216 273.722 561.422 273.806C561.627 273.89 561.837 273.96 562.052 274.016L563.802 274.492C564.063 274.562 564.352 274.655 564.67 274.772C564.987 274.884 565.29 275.042 565.58 275.248C565.874 275.448 566.114 275.714 566.301 276.046C566.492 276.377 566.588 276.797 566.588 277.306C566.588 277.847 566.473 278.321 566.245 278.727C566.021 279.128 565.717 279.462 565.335 279.728C564.952 279.989 564.518 280.185 564.033 280.316C563.552 280.446 563.055 280.512 562.542 280.512ZM568.966 280.302V270.222H570.87V280.302H568.966ZM573.669 280.302V270.222H575.601L579.983 276.942V270.222H581.915V280.302H579.983L575.601 273.582V280.302H573.669ZM588.768 280.512C588.133 280.512 587.529 280.4 586.955 280.176C586.381 279.947 585.872 279.611 585.429 279.168C584.99 278.724 584.643 278.176 584.386 277.523C584.134 276.869 584.008 276.116 584.008 275.262C584.008 274.146 584.22 273.199 584.645 272.42C585.074 271.636 585.648 271.038 586.367 270.628C587.09 270.217 587.891 270.012 588.768 270.012C590.065 270.012 591.085 270.313 591.827 270.915C592.569 271.517 593.066 272.368 593.318 273.47L591.372 273.75C591.19 273.162 590.891 272.693 590.476 272.343C590.065 271.988 589.538 271.808 588.894 271.804C588.255 271.794 587.723 271.932 587.298 272.217C586.873 272.501 586.554 272.905 586.339 273.428C586.129 273.95 586.024 274.562 586.024 275.262C586.024 275.962 586.129 276.568 586.339 277.082C586.554 277.595 586.873 277.994 587.298 278.279C587.723 278.563 588.255 278.71 588.894 278.72C589.328 278.729 589.72 278.654 590.07 278.496C590.425 278.337 590.723 278.087 590.966 277.747C591.209 277.406 591.381 276.97 591.484 276.438H589.888V274.968H593.514C593.523 275.028 593.53 275.136 593.535 275.29C593.54 275.444 593.542 275.532 593.542 275.556C593.542 276.522 593.346 277.378 592.954 278.125C592.562 278.871 592.009 279.457 591.295 279.882C590.581 280.302 589.739 280.512 588.768 280.512Z" fill="#228B22"/>
<rect x="435.743" y="255.302" width="181.407" height="40" rx="20" stroke="white" stroke-width="4"/>
</svg>
