<svg width="32" height="33" viewBox="0 0 32 33" fill="none" xmlns="http://www.w3.org/2000/svg">
<path d="M11.0001 15.2144L9.88993 16.8855C9.88987 16.8856 9.88981 16.8857 9.88975 16.8858C9.79358 17.0339 9.66162 17.1554 9.50605 17.239C9.35048 17.3226 9.17634 17.3656 8.99974 17.364M11.0001 15.2144L9 17.3015M11.0001 15.2144L14.1105 19.8862L14.1106 19.8863C14.2405 20.08 14.4299 20.2261 14.6501 20.3027C14.8704 20.3793 15.1095 20.3822 15.3316 20.311L15.3316 20.3111L15.3334 20.3104C15.5639 20.2285 15.7627 20.0759 15.9015 19.8745L15.902 19.8736L17.571 17.364H19.962C20.2371 17.3682 20.5037 17.268 20.7078 17.0835C20.9121 16.8989 21.0388 16.6437 21.0623 16.3693L21.0624 16.3679C21.0715 16.2229 21.0507 16.0776 21.0014 15.9409C20.9521 15.8042 20.8753 15.6791 20.7757 15.5733C20.6761 15.4675 20.5559 15.3832 20.4224 15.3257C20.289 15.2682 20.1452 15.2387 19.9999 15.239M11.0001 15.2144L20 15.3015M8.99974 17.364C8.99964 17.364 8.99953 17.364 8.99943 17.364L9 17.3015M8.99974 17.364H9V17.3015M8.99974 17.364H4.86257M9 17.3015H4.8625M4.86257 17.364L4.8625 17.3015M4.86257 17.364C4.78473 17.3641 4.70833 17.3849 4.64124 17.4244C4.57415 17.4639 4.5188 17.5205 4.4809 17.5885C4.44301 17.6565 4.42394 17.7334 4.42566 17.8112C4.42738 17.889 4.44983 17.965 4.49069 18.0312L4.49097 18.0317C6.24778 20.9347 8.90975 23.4011 11.1852 25.1709C13.4589 26.9394 15.3428 28.0093 15.5428 28.1219M4.86257 17.364H4.8625V17.3015M4.8625 17.3015C4.77354 17.3016 4.68622 17.3254 4.60955 17.3705C4.53287 17.4156 4.46962 17.4804 4.42631 17.5581C4.383 17.6358 4.36121 17.7236 4.36317 17.8126C4.36514 17.9015 4.3908 17.9883 4.4375 18.064L15.5428 28.1219M15.5428 28.1219C15.5428 28.1218 15.5427 28.1218 15.5426 28.1217L15.5125 28.1765L15.5431 28.122C15.543 28.122 15.5429 28.1219 15.5428 28.1219ZM15.5428 28.1219C15.6829 28.1988 15.8402 28.2391 16 28.2391C16.1596 28.2391 16.3167 28.1989 16.4567 28.1221M15.5428 28.1219L17 15.3015M16.4567 28.1221C16.4564 28.1223 16.4562 28.1224 16.456 28.1226L16.4875 28.1765L16.4574 28.1217C16.4572 28.1219 16.4569 28.122 16.4567 28.1221ZM16.4567 28.1221C18.7524 26.78 20.9056 25.2079 22.8832 23.43C27.2396 19.5106 29.4375 15.6011 29.4375 11.8015C29.4375 10.2405 28.9463 8.71908 28.0336 7.45273C27.1209 6.18638 25.8328 5.23931 24.3519 4.74568C22.871 4.25205 21.2724 4.23688 19.7824 4.70232C18.2924 5.16776 16.9866 6.09021 16.05 7.33901L16 7.40568L15.95 7.33901C15.0134 6.09021 13.7076 5.16776 12.2176 4.70232C10.7276 4.23688 9.12895 4.25205 7.64806 4.74568C6.16716 5.23931 4.87912 6.18638 3.96639 7.45273C3.05371 8.71901 2.56256 10.2403 2.5625 11.8012C2.57195 12.8639 2.73949 13.9193 3.0596 14.9327L3.05962 14.9328C3.08746 15.0213 3.14273 15.0987 3.21745 15.1537C3.2921 15.2087 3.3823 15.2386 3.47502 15.239C3.47509 15.239 3.47517 15.239 3.47525 15.239L8.429 15.239L10.098 12.7294L10.0985 12.7286C10.2373 12.5271 10.4361 12.3745 10.6666 12.2926L10.6684 12.292L10.6684 12.292C10.8905 12.2208 11.1296 12.2237 11.3499 12.3003C11.5701 12.3769 11.7595 12.5231 11.8894 12.7167L11.8895 12.7169L14.9999 17.3886L16.1101 15.7175C16.1101 15.7174 16.1102 15.7173 16.1103 15.7172C16.2064 15.5691 16.3384 15.4476 16.4939 15.364C16.6495 15.2804 16.8237 15.2374 17.0003 15.239M17.0003 15.239C17.0004 15.239 17.0005 15.239 17.0006 15.239L17 15.3015M17.0003 15.239H17V15.3015M17.0003 15.239H19.9999M17 15.3015H20M19.9999 15.239L20 15.3015M19.9999 15.239H20V15.3015M15.0375 17.4451L15 17.5015L14.9624 17.4451L15.0375 17.4451Z" fill="white" stroke="white" stroke-width="0.125"/>
</svg>
