<svg width="32" height="33" viewBox="0 0 32 33" fill="none" xmlns="http://www.w3.org/2000/svg">
<path d="M6.67831 12.0341L6.67849 12.0339C9.92336 6.67546 17.5311 3.80204 27.0584 4.36385C27.2862 4.38027 27.5004 4.47818 27.6619 4.63964C27.8233 4.80111 27.9212 5.01532 27.9377 5.24307C28.4995 14.7704 25.626 22.3781 20.2676 25.623L20.2674 25.6232C18.5546 26.6718 16.5836 27.2226 14.5753 27.214H14.575H14.1637C12.2118 27.1401 10.2221 26.5814 8.2662 25.5363L20.7567 13.0582L20.7569 13.0584L20.7608 13.0536C20.9301 12.8473 21.0167 12.5855 21.0036 12.3189C20.9905 12.0524 20.8787 11.8002 20.69 11.6115C20.5013 11.4228 20.2492 11.311 19.9826 11.2979C19.7161 11.2848 19.4542 11.3714 19.2479 11.5407L19.2477 11.5404L19.2433 11.5448L6.76525 24.0353C5.71988 22.0791 5.16115 20.0889 5.08748 18.1366L5.08747 18.1365C5.00188 15.9897 5.55555 13.8659 6.67831 12.0341Z" fill="white" stroke="white" stroke-width="0.125"/>
<path d="M7.08418 24.8465L7.08417 24.8465L7.08492 24.8477C7.17996 24.9957 7.30575 25.1215 7.45374 25.2165L7.4537 25.2166L7.45639 25.2181L8.06076 25.5651L5.66863 27.9694C5.48919 28.1427 5.24948 28.2396 5.00001 28.2396C4.75057 28.2396 4.51088 28.1427 4.33144 27.9695C4.15555 27.7916 4.05688 27.5516 4.05688 27.3014C4.05688 27.0511 4.15567 26.8109 4.33176 26.6331C4.33181 26.633 4.33186 26.633 4.33192 26.6329L6.73552 24.2415C6.84731 24.4425 6.9607 24.6444 7.08418 24.8465Z" fill="white" stroke="white" stroke-width="0.125"/>
</svg>
