<svg width="165" height="104" viewBox="0 0 165 104" fill="none" xmlns="http://www.w3.org/2000/svg">
<g clip-path="url(#clip0_123_1525)">
<path d="M83.1474 6.72546L82.4944 7.36578L81.8415 6.72546C81.0187 5.91851 80.5564 4.82407 80.5564 3.68289C80.5564 2.54171 81.0187 1.44727 81.8415 0.640317L82.4944 0L83.1474 0.640317C83.9702 1.44727 84.4324 2.54171 84.4324 3.68289C84.4324 4.82407 83.9702 5.91851 83.1474 6.72546Z" fill="url(#paint0_linear_123_1525)"/>
<path d="M83.1474 23.4015L82.4944 24.0418L81.8415 23.4015C81.0187 22.5945 80.5564 21.5001 80.5564 20.3589C80.5564 19.2177 81.0187 18.1233 81.8415 17.3163L82.4944 16.676L83.1474 17.3163C83.9702 18.1233 84.4324 19.2177 84.4324 20.3589C84.4324 21.5001 83.9702 22.5945 83.1474 23.4015Z" fill="url(#paint1_linear_123_1525)"/>
<path d="M83.1474 32.59L82.4944 33.2303L81.8415 32.59C81.0187 31.783 80.5564 30.6886 80.5564 29.5474C80.5564 28.4062 81.0187 27.3118 81.8415 26.5048L82.4944 25.8645L83.1474 26.5048C83.9702 27.3118 84.4324 28.4062 84.4324 29.5474C84.4324 30.6886 83.9702 31.783 83.1474 32.59Z" fill="url(#paint2_linear_123_1525)"/>
<path d="M65.1917 11.5257L64.9936 12.4093L64.0904 12.2151C62.9548 11.97 61.965 11.2927 61.3385 10.3321C60.712 9.37153 60.5002 8.20629 60.7495 7.09256L60.9476 6.20679L61.8486 6.40315C62.9843 6.64828 63.9743 7.32548 64.6011 8.28598C65.2279 9.24647 65.4403 10.4117 65.1917 11.5257Z" fill="url(#paint3_linear_123_1525)"/>
<path d="M59.8333 24.3512L59.1804 24.9915L58.5274 24.3512C58.1198 23.9518 57.7963 23.4775 57.5757 22.9554C57.355 22.4334 57.2415 21.8738 57.2415 21.3086C57.2415 20.7435 57.355 20.1839 57.5757 19.6618C57.7963 19.1398 58.1198 18.6655 58.5274 18.266L59.1804 17.6257L59.8333 18.266C60.6561 19.073 61.1184 20.1674 61.1184 21.3086C61.1184 22.4498 60.6561 23.5442 59.8333 24.3512Z" fill="url(#paint4_linear_123_1525)"/>
<path d="M72.9703 17.9886L72.1694 18.4411L71.7079 17.6557C71.1266 16.6672 70.9693 15.4928 71.2705 14.3906C71.5717 13.2884 72.3067 12.3485 73.3142 11.7776L74.1151 11.3251L74.5765 12.1084C75.1585 13.0971 75.3163 14.272 75.015 15.3747C74.7138 16.4774 73.9783 17.4177 72.9703 17.9886Z" fill="url(#paint5_linear_123_1525)"/>
<path d="M61.0021 34.3636L61.2589 35.2174L60.3731 35.4693C59.8194 35.6274 59.2395 35.677 58.6663 35.6151C58.0931 35.5533 57.538 35.3813 57.0326 35.1089C56.5273 34.8366 56.0817 34.4692 55.7212 34.0278C55.3607 33.5864 55.0925 33.0797 54.9319 32.5366L54.6794 31.6743L55.5653 31.4224C56.1192 31.2651 56.6993 31.2164 57.2724 31.2791C57.8455 31.3418 58.4004 31.5146 58.9054 31.7878C59.4103 32.061 59.8554 32.4291 60.2152 32.8711C60.5749 33.313 60.8423 33.8202 61.0021 34.3636Z" fill="url(#paint6_linear_123_1525)"/>
<path d="M57.3369 40.816L58.2357 41.0294L58.0181 41.9109C57.7539 43.0191 57.0526 43.9795 56.0678 44.5816C55.083 45.1836 53.8951 45.3784 52.7641 45.1232L51.8652 44.9204L52.072 44.0368C52.202 43.4863 52.4414 42.9663 52.7763 42.5065C53.1113 42.0467 53.5353 41.6561 54.0242 41.3571C54.5131 41.058 55.0573 40.8563 55.6257 40.7634C56.194 40.6706 56.7755 40.6884 57.3369 40.816Z" fill="url(#paint7_linear_123_1525)"/>
<path d="M69.0461 40.5128L69.9645 40.5875L69.8905 41.4882C69.8436 42.0515 69.6839 42.6002 69.4207 43.1029C69.1575 43.6057 68.7959 44.0527 68.3565 44.4183C67.9171 44.784 67.4086 45.0613 66.8599 45.2342C66.3113 45.4071 65.7333 45.4723 65.1589 45.4262L64.2383 45.3536L64.3145 44.4507C64.3614 43.8875 64.5211 43.3388 64.7843 42.836C65.0475 42.3333 65.4091 41.8863 65.8485 41.5206C66.2879 41.1549 66.7964 40.8777 67.3451 40.7048C67.8937 40.5319 68.4717 40.4666 69.0461 40.5128Z" fill="url(#paint8_linear_123_1525)"/>
<path d="M70.894 31.1407V32.0457H69.9625C68.7995 32.0457 67.6841 31.5929 66.8614 30.7869C66.0386 29.9809 65.5759 28.8875 65.5747 27.747V26.842H66.4975C67.0741 26.8409 67.6452 26.9513 68.1783 27.1667C68.7114 27.3822 69.1959 27.6986 69.6042 28.0978C70.0125 28.497 70.3366 28.9713 70.5579 29.4934C70.7792 30.0155 70.8934 30.5753 70.894 31.1407Z" fill="url(#paint9_linear_123_1525)"/>
<path d="M99.8083 11.5257L100.006 12.4093L100.91 12.2151C102.045 11.9695 103.034 11.2921 103.661 10.3316C104.287 9.37119 104.499 8.20622 104.25 7.09254L104.052 6.1897L103.151 6.38393C102.587 6.50545 102.053 6.73498 101.579 7.05936C101.106 7.38375 100.702 7.79661 100.392 8.27428C100.081 8.75195 99.8696 9.28504 99.7695 9.84298C99.6694 10.4009 99.6826 10.9727 99.8083 11.5257Z" fill="url(#paint10_linear_123_1525)"/>
<path d="M105.167 24.3427L105.82 24.983L106.473 24.3427C107.295 23.5357 107.758 22.4413 107.758 21.3001C107.758 20.1589 107.295 19.0645 106.473 18.2575L105.82 17.6172L105.167 18.2575C104.344 19.0645 103.882 20.1589 103.882 21.3001C103.882 22.4413 104.344 23.5357 105.167 24.3427Z" fill="url(#paint11_linear_123_1525)"/>
<path d="M92.0295 17.978L92.8283 18.4304L93.2897 17.6471C93.8717 16.659 94.0298 15.4846 93.7289 14.3823C93.4281 13.28 92.6931 12.3399 91.6856 11.769L90.8847 11.3123L90.4233 12.0956C90.1345 12.5851 89.9469 13.1257 89.8713 13.6865C89.7958 14.2472 89.8336 14.817 89.9828 15.3633C90.132 15.9097 90.3896 16.4218 90.7407 16.8704C91.0919 17.3191 91.5299 17.6954 92.0295 17.978Z" fill="url(#paint12_linear_123_1525)"/>
<path d="M103.998 34.3465L103.739 35.2174L104.627 35.4714C105.181 35.6295 105.761 35.6789 106.334 35.617C106.907 35.555 107.463 35.3828 107.968 35.1102C108.473 34.8377 108.919 34.4701 109.279 34.0284C109.64 33.5868 109.908 33.0799 110.068 32.5366L110.325 31.6679L109.439 31.416C108.886 31.2575 108.306 31.2077 107.733 31.2692C107.159 31.3308 106.604 31.5026 106.099 31.7747C105.594 32.0469 105.148 32.4142 104.787 32.8555C104.427 33.2968 104.159 33.8035 103.998 34.3465Z" fill="url(#paint13_linear_123_1525)"/>
<path d="M107.663 40.8074L106.762 41.0101L106.98 41.8938C107.11 42.4445 107.349 42.9647 107.684 43.4246C108.019 43.8846 108.444 44.2753 108.933 44.5744C109.422 44.8735 109.966 45.0751 110.535 45.1678C111.103 45.2605 111.685 45.2424 112.247 45.1146L113.146 44.9011L112.939 44.0196C112.808 43.4689 112.567 42.949 112.231 42.4894C111.895 42.0299 111.469 41.6399 110.98 41.3416C110.49 41.0433 109.945 40.8426 109.375 40.7509C108.806 40.6592 108.225 40.6784 107.663 40.8074Z" fill="url(#paint14_linear_123_1525)"/>
<path d="M95.9538 40.5043L95.0332 40.5768L95.1094 41.4797C95.1563 42.0429 95.316 42.5916 95.5792 43.0944C95.8424 43.5971 96.204 44.0441 96.6434 44.4098C97.0828 44.7755 97.5913 45.0527 98.14 45.2256C98.6886 45.3986 99.2666 45.4638 99.841 45.4176L100.759 45.3451L100.685 44.4422C100.639 43.8789 100.479 43.3303 100.216 42.8275C99.9524 42.3247 99.5908 41.8778 99.1514 41.5121C98.7121 41.1464 98.2035 40.8692 97.6549 40.6962C97.1062 40.5233 96.5282 40.4581 95.9538 40.5043Z" fill="url(#paint15_linear_123_1525)"/>
<path d="M94.1125 31.1322V32.0371H95.0375C96.2012 32.0371 97.3173 31.5838 98.1401 30.7768C98.963 29.9699 99.4253 28.8754 99.4253 27.7342V26.8292H98.5025C97.9261 26.8289 97.3553 26.94 96.8227 27.1562C96.2901 27.3723 95.8061 27.6892 95.3985 28.0888C94.9908 28.4884 94.6674 28.9628 94.4468 29.485C94.2261 30.0072 94.1125 30.5669 94.1125 31.1322Z" fill="url(#paint16_linear_123_1525)"/>
<path d="M76.3591 42.9482C75.9029 42.0077 75.3501 41.1152 74.7094 40.2845C74.0789 39.4613 73.3878 38.6845 72.6417 37.9602C71.1664 36.5332 69.5753 35.2262 67.884 34.0521C67.4618 33.7639 67.0461 33.4694 66.6173 33.1983L66.1058 32.8483C65.7532 32.5196 65.4137 32.1909 65.0938 31.8494C64.2558 30.9529 63.5267 30.016 63.0827 28.9872C62.6304 27.9505 62.4624 26.8159 62.5952 25.6959C62.659 25.0979 62.7822 24.5075 62.963 23.9329C63.1505 23.3196 63.3795 22.7192 63.6486 22.1358C63.3635 22.3202 63.1 22.535 62.8629 22.7761C62.6245 23.0176 62.4062 23.2774 62.21 23.553C61.7983 24.1185 61.481 24.7446 61.2697 25.4078C61.0488 26.0975 60.9545 26.8202 60.9911 27.5422C60.9911 27.6318 60.9911 27.7236 61.0064 27.8133L61.0434 28.0843L61.0847 28.3554L61.1457 28.6222C61.1842 28.8011 61.2351 28.9773 61.298 29.1494C61.3535 29.3226 61.4181 29.4929 61.4917 29.6595C61.544 29.7833 61.6049 29.9028 61.6658 30.0202L61.5657 29.9519L60.9781 29.525L60.6821 29.3116L60.3991 29.0832L59.8202 28.6009L59.2761 28.1185C59.0889 27.9627 58.9235 27.7876 58.7494 27.619C58.5753 27.4504 58.4012 27.2839 58.2445 27.1025C58.0877 26.9211 57.9115 26.7525 57.7591 26.5668L57.2999 26.0118L56.8776 25.4334L56.4815 24.8337C55.972 24.0244 55.5822 23.1484 55.3236 22.2318L55.2235 21.8925L55.1473 21.5424C55.0886 21.3098 55.0668 21.0707 55.0276 20.8338C54.975 20.354 54.9561 19.8712 54.9711 19.3888C54.9879 18.9008 55.0483 18.4151 55.1517 17.9374C55.2461 17.4521 55.392 16.9779 55.587 16.5223C55.0316 17.3783 54.6599 18.3362 54.4944 19.3376C54.4024 19.8442 54.3551 20.3576 54.3529 20.8722C54.3529 21.1284 54.3529 21.3887 54.3899 21.6449L54.4248 22.0333L54.4857 22.4175C54.8405 24.4729 55.8699 26.3875 57.2019 27.9819C57.8636 28.7822 58.5916 29.5275 59.3784 30.2102L59.67 30.4684L59.9704 30.7139L60.5776 31.2005C60.9955 31.5058 61.409 31.8174 61.8378 32.1077L62.4907 32.5345L62.815 32.748L63.1328 32.9486C63.5528 33.2175 63.9751 33.4843 64.3908 33.7618C65.2309 34.3054 66.0565 34.8617 66.8676 35.4309C67.3174 35.7496 67.7636 36.0734 68.2061 36.402C67.2022 36.3682 66.1975 36.4397 65.2091 36.6155C62.9064 36.989 60.7147 37.5546 58.5383 37.7446C58.0001 37.7948 57.4596 37.8176 56.919 37.8129C56.784 37.8129 56.6513 37.8129 56.5185 37.8022C56.3869 37.801 56.2554 37.7932 56.1246 37.7787L55.7393 37.7446L55.3628 37.6848C54.869 37.5993 54.3875 37.456 53.9285 37.2579C53.4769 37.0509 53.0589 36.7798 52.6879 36.4533C51.9184 35.7436 51.3301 34.8662 50.9707 33.892C50.5707 32.8517 50.311 31.7647 50.1981 30.6584C50.0717 31.2192 50.0061 31.7916 50.0022 32.3659C49.9914 32.9505 50.0403 33.5347 50.148 34.1097C50.3537 35.3226 50.8942 36.4572 51.7107 37.3903C52.1418 37.8689 52.6507 38.2742 53.2168 38.5898C53.7824 38.8981 54.3889 39.1279 55.0189 39.2728C56.2277 39.5168 57.4678 39.5759 58.695 39.4478C59.9451 39.323 61.1826 39.0974 62.395 38.7734C62.1382 39.0651 61.9032 39.3747 61.692 39.6997C61.3223 40.2622 61.0213 40.8654 60.7953 41.4968C60.5652 42.1149 60.4245 42.7615 60.3774 43.4178C61.0978 42.3917 61.8983 41.4219 62.7715 40.5172C63.5561 39.6833 64.5054 39.0145 65.5617 38.5514C66.6124 38.1379 67.7542 37.9975 68.8765 38.1437C69.5378 38.2201 70.1925 38.3443 70.8353 38.5151C71.0529 38.7115 71.2706 38.91 71.4882 39.1106C72.9323 40.3964 74.1643 41.894 75.1403 43.5501C76.0946 45.2098 76.6003 47.0811 76.6094 48.9864C76.6443 50.918 76.1872 52.8646 75.5952 54.7706C76.5883 52.9906 77.2231 51.0399 77.4648 49.0248C77.6711 46.9364 77.2895 44.8324 76.3613 42.9418L76.3591 42.9482Z" fill="url(#paint17_linear_123_1525)"/>
<path d="M88.0879 33.5099C89.0347 32.5857 89.9923 31.67 90.9173 30.7031C91.8645 29.7247 92.7374 28.6796 93.5291 27.5763C94.3059 26.4722 95.0167 25.3248 95.6577 24.1399L96.1234 23.252C96.278 22.9574 96.4325 22.6608 96.5761 22.3598L97.0114 21.4591C97.1565 21.1603 97.2965 20.8593 97.4315 20.5562L98.2259 18.7463C98.4721 18.1628 98.7504 17.5928 99.0595 17.0388C99.3618 16.4981 99.7121 15.9846 100.106 15.5041C100.49 15.0297 100.945 14.6151 101.456 14.2747C101.976 13.9358 102.562 13.7068 103.177 13.6024C103.831 13.5111 104.494 13.5032 105.149 13.5789C104.834 13.4536 104.51 13.3481 104.181 13.263C103.842 13.1787 103.496 13.128 103.147 13.1115C102.421 13.0817 101.698 13.2184 101.036 13.5106C100.705 13.6607 100.386 13.837 100.085 14.0378C99.7842 14.2479 99.4992 14.4783 99.2314 14.7272C99.1161 14.8361 99.0138 14.9407 98.8962 15.0602C98.9078 14.8951 98.9165 14.7308 98.9224 14.5671L98.9071 13.9268C98.8875 13.7134 98.8636 13.5 98.8353 13.2865C98.714 12.4292 98.418 11.6045 97.9647 10.8618C97.528 10.1462 96.9353 9.53412 96.229 9.06954C95.5227 8.60496 94.7204 8.29936 93.8795 8.17465C95.1545 8.96266 96.1543 10.113 96.7459 11.4723C97.2704 12.7529 97.3183 14.1573 97.0898 15.5639C96.8367 17.0117 96.4273 18.4291 95.8688 19.7921C95.7882 20.0056 95.7012 20.219 95.6163 20.4325C95.1244 21.4128 94.6231 22.3833 94.1124 23.3438C93.4856 24.4793 92.8609 25.6147 92.1536 26.6905C91.4462 27.7662 90.6997 28.8142 89.89 29.8323C89.8226 29.9219 89.7507 30.0095 89.6724 30.097C90.0577 29.2795 90.3617 28.4275 90.58 27.5528C90.8489 26.4995 90.9841 25.4177 90.9826 24.332C90.9736 23.2524 90.834 22.1777 90.5669 21.1304C90.0143 19.0501 89.0064 17.1128 87.6135 15.4529C86.9319 14.6381 86.1812 13.8812 85.3695 13.1905C84.7234 12.6373 84.0423 12.1247 83.3302 11.6558L84.6557 10.2194L85.5262 9.25465C85.8244 8.92809 86.1095 8.58872 86.3794 8.24295C86.9219 7.5514 87.406 6.81758 87.8268 6.04879C88.2482 5.28759 88.6035 4.49292 88.8889 3.67322C88.4843 4.43266 88.0299 5.16558 87.5286 5.86737C87.0303 6.5606 86.4842 7.21953 85.8941 7.83955C85.6002 8.14903 85.2977 8.44571 84.9799 8.73172L84.0245 9.60469L82.501 11.0305L80.9774 9.61323L80.0154 8.75093C79.6977 8.46492 79.3951 8.16824 79.1013 7.85876C78.5112 7.23874 77.9651 6.57981 77.4668 5.88658C76.9693 5.18148 76.5186 4.44573 76.1174 3.68389C76.403 4.5025 76.7575 5.29638 77.1773 6.05733C77.5989 6.82616 78.0836 7.55998 78.6269 8.25148C78.8967 8.59726 79.1819 8.93876 79.48 9.26319L80.3506 10.2279L81.6761 11.6644C80.9632 12.1322 80.282 12.6448 79.6367 13.199C78.8256 13.8903 78.075 14.6471 77.3928 15.4615C75.9978 17.1177 74.9877 19.0523 74.4328 21.1304C74.1657 22.1777 74.0262 23.2524 74.0171 24.332C74.0121 25.4166 74.1437 26.4977 74.4089 27.5506C74.6273 28.4263 74.932 29.2791 75.3186 30.097C75.249 30.0073 75.1772 29.9198 75.101 29.8323C74.2892 28.8057 73.5339 27.7662 72.8353 26.6841C72.1367 25.6019 71.5077 24.475 70.8765 23.3395C70.3657 22.3762 69.8644 21.4057 69.3725 20.4282C69.2877 20.2147 69.2006 20.0013 69.1201 19.7879C68.5825 18.3792 68.1058 16.9683 67.8969 15.5575C67.688 14.1467 67.7184 12.7465 68.243 11.4659C68.8376 10.1117 69.838 8.96683 71.1115 8.18318C70.2731 8.3101 69.4735 8.6167 68.7697 9.08116C68.0658 9.54562 67.4751 10.1565 67.0394 10.8704C66.5875 11.6137 66.2915 12.438 66.1688 13.295C66.1427 13.5085 66.1166 13.7219 66.0991 13.9354L66.0839 14.5757C66.0839 14.7407 66.0926 14.9051 66.11 15.0687C66.0012 14.9556 65.8924 14.8553 65.7727 14.7358C65.5102 14.4922 65.2302 14.2675 64.9347 14.0634C64.634 13.8603 64.3157 13.6832 63.9836 13.5341C63.3216 13.2427 62.5997 13.1061 61.8746 13.135C61.5258 13.1525 61.1796 13.2032 60.8408 13.2865C60.5113 13.3735 60.1872 13.4789 59.8701 13.6024C60.5264 13.5263 61.1901 13.5349 61.8442 13.628C62.4573 13.7326 63.0415 13.9616 63.5592 14.3003C64.0703 14.6403 64.5247 15.0558 64.9064 15.5319C65.3025 16.0114 65.6537 16.525 65.9555 17.0665C66.2642 17.6163 66.5425 18.182 66.7891 18.7612L67.5835 20.5712C67.7184 20.8743 67.8585 21.1759 68.0036 21.4762L68.4388 22.3747C68.5825 22.6757 68.737 22.9724 68.8915 23.2691L69.3573 24.1548C69.9973 25.3403 70.7081 26.4878 71.4859 27.5912C72.2731 28.6909 73.1417 29.7325 74.0846 30.7074C75.0161 31.6764 75.9738 32.5899 76.914 33.5141C77.4603 34.0392 78.0022 34.5813 78.5354 35.1107L79.0273 35.783C79.6289 36.5711 80.1834 37.3928 80.688 38.2439C81.1529 39.0675 81.4827 39.9578 81.6652 40.882C81.827 41.8507 81.9042 42.8311 81.8959 43.8126C82.0374 47.8679 82.2028 51.9361 82.5031 55.9999V55.9188C82.5031 55.9423 82.5031 55.9658 82.5031 55.9893C82.8035 51.9339 82.9667 47.8658 83.1082 43.804C83.1016 42.8225 83.1795 41.8422 83.3411 40.8735C83.5235 39.9493 83.8533 39.059 84.3183 38.2354C84.8194 37.3825 85.3702 36.5587 85.9681 35.768L86.4621 35.0957C86.9997 34.56 87.5373 34.0242 88.0879 33.5099ZM82.982 37.5652C82.8601 37.8085 82.7447 38.0561 82.6337 38.3037C82.5924 38.4168 82.5467 38.5171 82.5031 38.6367C82.4596 38.5278 82.4161 38.4232 82.3747 38.3144C82.2637 38.0646 82.1571 37.8171 82.0265 37.5759C81.5262 36.6507 80.9702 35.7555 80.3615 34.8951C79.7847 34.0413 79.2036 33.2132 78.6464 32.3722C78.3613 31.9453 78.0958 31.5185 77.8216 31.1044L77.445 30.4854L77.1033 29.8451C76.673 28.9911 76.3366 28.0946 76.1 27.1707C75.6297 25.3205 75.6126 23.3875 76.0499 21.5295C76.2677 20.5964 76.5911 19.6901 77.0141 18.8274C77.4392 17.9544 77.9494 17.1238 78.5376 16.3472C79.1258 15.5579 79.7811 14.8189 80.4964 14.1381C81.1346 13.5383 81.8051 12.9726 82.5053 12.4434C83.2016 12.9692 83.8679 13.5321 84.5011 14.1296C85.2164 14.8097 85.8717 15.548 86.4599 16.3366C87.0475 17.1144 87.5576 17.9456 87.9835 18.8189C88.4116 19.6753 88.7388 20.5769 88.9585 21.506C89.3977 23.363 89.3812 25.2956 88.9106 27.1451C88.674 28.0697 88.3376 28.9669 87.9073 29.8216L87.5656 30.4619L87.1891 31.0831C86.9148 31.5099 86.6471 31.9368 86.3642 32.3509C85.8048 33.1918 85.2259 34.0221 84.6469 34.8716C84.0379 35.7304 83.4805 36.6234 82.9776 37.546L82.982 37.5652Z" fill="url(#paint18_linear_123_1525)"/>
<path d="M114.802 30.6498C114.688 31.754 114.427 32.8388 114.027 33.877C113.669 34.8515 113.082 35.7291 112.312 36.4383C111.941 36.7656 111.522 37.0368 111.069 37.243C110.611 37.4419 110.131 37.5853 109.637 37.6698C109.511 37.6869 109.385 37.7061 109.261 37.7296L108.875 37.7637C108.749 37.7787 108.616 37.783 108.482 37.7872C108.347 37.7915 108.216 37.8 108.081 37.7872C107.54 37.792 107 37.7692 106.462 37.7189C104.285 37.5311 102.094 36.9655 99.7909 36.5898C98.8024 36.4152 97.7978 36.3437 96.7939 36.3764C97.2292 36.0477 97.6754 35.7233 98.1324 35.4031C98.9443 34.8311 99.767 34.2698 100.605 33.7298C101.018 33.4523 101.443 33.1855 101.863 32.9165L102.178 32.7031L102.503 32.4897L103.156 32.0628C103.591 31.7725 103.998 31.4609 104.414 31.1535L105.021 30.6669L105.323 30.4236L105.615 30.1632C106.402 29.481 107.13 28.7356 107.792 27.9349C109.124 26.3426 110.153 24.4281 110.508 22.3727L110.567 21.9885L110.604 21.6C110.636 21.3439 110.63 21.0835 110.641 20.8252C110.64 20.3108 110.594 19.7974 110.503 19.2906C110.336 18.2884 109.961 17.3303 109.402 16.4753C109.605 16.9428 109.756 17.43 109.853 17.9289C109.955 18.4067 110.015 18.8923 110.033 19.3802C110.048 19.8619 110.029 20.344 109.977 20.8231C109.938 21.0621 109.916 21.2991 109.857 21.5338L109.781 21.8839L109.683 22.2275C109.425 23.1454 109.034 24.0223 108.523 24.8315L108.129 25.4291L107.705 26.0097L107.247 26.5646C107.093 26.7482 106.923 26.921 106.762 27.1003C106.601 27.2796 106.429 27.4482 106.257 27.6169C106.085 27.7855 105.918 27.9584 105.73 28.1163L105.186 28.5987L104.62 29.0597L104.338 29.2881L104.042 29.5015L103.454 29.9284L103.354 29.9967C103.413 29.8772 103.473 29.7598 103.528 29.636C103.601 29.4692 103.666 29.299 103.722 29.1259C103.784 28.9534 103.834 28.7774 103.874 28.5987L103.935 28.3319L103.974 28.0608L104.013 27.7897C104.024 27.7001 104.024 27.6083 104.028 27.5165C104.065 26.7945 103.971 26.0719 103.75 25.3822C103.538 24.7198 103.221 24.0945 102.81 23.5295C102.611 23.2531 102.389 22.9932 102.146 22.7526C101.909 22.512 101.646 22.2973 101.362 22.1123C101.631 22.6949 101.86 23.2946 102.048 23.9073C102.227 24.4829 102.351 25.0739 102.416 25.6724C102.548 26.7926 102.379 27.9272 101.926 28.9637C101.491 29.9903 100.755 30.9294 99.9171 31.8259C99.5972 32.1652 99.2642 32.4961 98.9051 32.8226L98.3871 33.1663C97.9518 33.4437 97.5426 33.7404 97.1226 34.02C95.4313 35.1934 93.8402 36.4997 92.3648 37.926C91.6193 38.6515 90.9282 39.429 90.2972 40.2524C89.657 41.0831 89.1036 41.9748 88.6452 42.914C87.7194 44.806 87.3385 46.9103 87.544 48.9992C87.786 51.0142 88.4207 52.9649 89.4135 54.745C88.8215 52.8389 88.3645 50.8924 88.3971 48.9608C88.4097 47.0622 88.9129 45.1977 89.8597 43.5415C90.8377 41.8874 92.0695 40.3908 93.5118 39.1041C93.7295 38.9035 93.9471 38.705 94.1647 38.5087C94.8075 38.3378 95.4622 38.2137 96.1236 38.1373C97.2458 37.991 98.3876 38.1315 99.4383 38.5449C100.498 39.0078 101.449 39.6782 102.235 40.515C103.108 41.4198 103.909 42.3896 104.629 43.4156C104.582 42.7593 104.441 42.1127 104.211 41.4947C103.985 40.8627 103.684 40.2589 103.315 39.6954C103.1 39.3719 102.862 39.0638 102.603 38.7733C103.816 39.0952 105.053 39.3208 106.303 39.4478C107.529 39.5748 108.769 39.5158 109.977 39.2728C110.607 39.1285 111.214 38.8987 111.779 38.5898C112.346 38.2763 112.856 37.8715 113.287 37.3924C114.108 36.4578 114.652 35.3201 114.859 34.1033C114.966 33.5282 115.015 32.9441 115.004 32.3595C114.998 31.7842 114.931 31.2111 114.802 30.6498Z" fill="url(#paint19_linear_123_1525)"/>
</g>
<path d="M3.29102 82V80.7695L4.88281 80.4961V69.2949L3.29102 69.0215V67.7812H4.88281H9.82422C10.8398 67.7812 11.7057 67.9603 12.4219 68.3184C13.138 68.6699 13.6849 69.1647 14.0625 69.8027C14.4401 70.4408 14.6289 71.1862 14.6289 72.0391C14.6289 72.8984 14.4401 73.6471 14.0625 74.2852C13.6849 74.9232 13.138 75.418 12.4219 75.7695C11.7057 76.1211 10.8398 76.2969 9.82422 76.2969H6.80664V80.4961L8.39844 80.7695V82H3.29102ZM6.80664 74.793H9.82422C10.7878 74.793 11.5072 74.5358 11.9824 74.0215C12.4642 73.5007 12.7051 72.8464 12.7051 72.0586C12.7051 71.2708 12.4642 70.6133 11.9824 70.0859C11.5072 69.5586 10.7878 69.2949 9.82422 69.2949H6.80664V74.793ZM17.7109 82V80.7695L18.7656 80.623L23.7363 67.7812H25.3867L30.2695 80.623L31.3145 80.7695V82H27.2324V80.7695L28.3066 80.584L27.3691 77.9668H21.6758L20.709 80.584L21.7832 80.7695V82H17.7109ZM22.2715 76.3555H26.7832L24.6934 70.5742L24.5762 70.252H24.5176L24.4004 70.5742L22.2715 76.3555ZM36.7988 82V80.7695L38.3906 80.4961V69.2949L36.7988 69.0215V67.791H43.1367C44.1719 67.791 45.0443 67.9473 45.7539 68.2598C46.4701 68.5658 47.0137 69.0117 47.3848 69.5977C47.7559 70.1836 47.9414 70.8997 47.9414 71.7461C47.9414 72.5794 47.7591 73.2793 47.3945 73.8457C47.0365 74.4121 46.5254 74.8418 45.8613 75.1348C45.1973 75.4212 44.4095 75.5742 43.498 75.5938L40.3145 75.6523V80.4961L41.9062 80.7695V82H36.7988ZM46.1836 82L43.0195 74.9004L44.9434 74.8809L47.5703 80.5645L48.5566 80.7402V82H46.1836ZM40.3145 74.1387H42.9414C44.0156 74.1387 44.7969 73.9336 45.2852 73.5234C45.7734 73.1133 46.0176 72.5143 46.0176 71.7266C46.0176 70.9779 45.7832 70.3854 45.3145 69.9492C44.8457 69.513 44.1198 69.2949 43.1367 69.2949H40.3145V74.1387ZM54.2266 82V80.7695L55.2812 80.623L60.252 67.7812H61.9023L66.7852 80.623L67.8301 80.7695V82H63.748V80.7695L64.8223 80.584L63.8848 77.9668H58.1914L57.2246 80.584L58.2988 80.7695V82H54.2266ZM58.7871 76.3555H63.2988L61.209 70.5742L61.0918 70.252H61.0332L60.916 70.5742L58.7871 76.3555ZM73.4414 82V80.7695L75.0332 80.4961V69.2949L73.4414 69.0215V67.7812H75.0332H77.6016L82.1816 78.5723H82.2402L86.6738 67.7812H90.9609V69.0215L89.3691 69.2949V80.4961L90.9609 80.7695V82H85.8535V80.7695L87.5332 80.4961V76.375V70.4082L87.4844 70.3984L82.8652 81.4922H81.5859L76.8105 70.418L76.7617 70.4277L76.8301 76.375V80.4961L78.5488 80.7695V82H73.4414ZM96.6699 82V80.7695L98.2617 80.4961V69.2949L96.6699 69.0215V67.7812H98.2617H103.203C104.219 67.7812 105.085 67.9603 105.801 68.3184C106.517 68.6699 107.064 69.1647 107.441 69.8027C107.819 70.4408 108.008 71.1862 108.008 72.0391C108.008 72.8984 107.819 73.6471 107.441 74.2852C107.064 74.9232 106.517 75.418 105.801 75.7695C105.085 76.1211 104.219 76.2969 103.203 76.2969H100.186V80.4961L101.777 80.7695V82H96.6699ZM100.186 74.793H103.203C104.167 74.793 104.886 74.5358 105.361 74.0215C105.843 73.5007 106.084 72.8464 106.084 72.0586C106.084 71.2708 105.843 70.6133 105.361 70.0859C104.886 69.5586 104.167 69.2949 103.203 69.2949H100.186V74.793ZM111.09 82V80.7695L112.145 80.623L117.115 67.7812H118.766L123.648 80.623L124.693 80.7695V82H120.611V80.7695L121.686 80.584L120.748 77.9668H115.055L114.088 80.584L115.162 80.7695V82H111.09ZM115.65 76.3555H120.162L118.072 70.5742L117.955 70.252H117.896L117.779 70.5742L115.65 76.3555ZM130.178 82V80.7695L131.77 80.4961V69.2949L130.178 69.0215V67.791H136.516C137.551 67.791 138.423 67.9473 139.133 68.2598C139.849 68.5658 140.393 69.0117 140.764 69.5977C141.135 70.1836 141.32 70.8997 141.32 71.7461C141.32 72.5794 141.138 73.2793 140.773 73.8457C140.415 74.4121 139.904 74.8418 139.24 75.1348C138.576 75.4212 137.788 75.5742 136.877 75.5938L133.693 75.6523V80.4961L135.285 80.7695V82H130.178ZM139.562 82L136.398 74.9004L138.322 74.8809L140.949 80.5645L141.936 80.7402V82H139.562ZM133.693 74.1387H136.32C137.395 74.1387 138.176 73.9336 138.664 73.5234C139.152 73.1133 139.396 72.5143 139.396 71.7266C139.396 70.9779 139.162 70.3854 138.693 69.9492C138.225 69.513 137.499 69.2949 136.516 69.2949H133.693V74.1387ZM147.605 82V80.7695L148.66 80.623L153.631 67.7812H155.281L160.164 80.623L161.209 80.7695V82H157.127V80.7695L158.201 80.584L157.264 77.9668H151.57L150.604 80.584L151.678 80.7695V82H147.605ZM152.166 76.3555H156.678L154.588 70.5742L154.471 70.252H154.412L154.295 70.5742L152.166 76.3555Z" fill="#543731"/>
<path d="M1 88H164" stroke="#E7E6E6" stroke-linecap="round" stroke-linejoin="round"/>
<path d="M5.446 103.18C4.582 103.18 3.846 102.992 3.238 102.616C2.63 102.236 2.164 101.708 1.84 101.032C1.52 100.356 1.36 99.572 1.36 98.68C1.36 97.788 1.52 97.004 1.84 96.328C2.164 95.652 2.63 95.126 3.238 94.75C3.846 94.37 4.582 94.18 5.446 94.18C6.442 94.18 7.266 94.432 7.918 94.936C8.574 95.44 9.03 96.118 9.286 96.97L8.014 97.312C7.846 96.708 7.546 96.234 7.114 95.89C6.686 95.546 6.13 95.374 5.446 95.374C4.834 95.374 4.324 95.512 3.916 95.788C3.508 96.064 3.2 96.45 2.992 96.946C2.788 97.442 2.686 98.02 2.686 98.68C2.682 99.34 2.782 99.918 2.986 100.414C3.194 100.91 3.502 101.296 3.91 101.572C4.322 101.848 4.834 101.986 5.446 101.986C6.13 101.986 6.686 101.814 7.114 101.47C7.546 101.122 7.846 100.648 8.014 100.048L9.286 100.39C9.03 101.242 8.574 101.92 7.918 102.424C7.266 102.928 6.442 103.18 5.446 103.18ZM17.8116 103.18C16.9476 103.18 16.2116 102.992 15.6036 102.616C14.9956 102.236 14.5296 101.708 14.2056 101.032C13.8856 100.356 13.7256 99.572 13.7256 98.68C13.7256 97.788 13.8856 97.004 14.2056 96.328C14.5296 95.652 14.9956 95.126 15.6036 94.75C16.2116 94.37 16.9476 94.18 17.8116 94.18C18.6716 94.18 19.4056 94.37 20.0136 94.75C20.6256 95.126 21.0916 95.652 21.4116 96.328C21.7316 97.004 21.8916 97.788 21.8916 98.68C21.8916 99.572 21.7316 100.356 21.4116 101.032C21.0916 101.708 20.6256 102.236 20.0136 102.616C19.4056 102.992 18.6716 103.18 17.8116 103.18ZM17.8116 101.986C18.4236 101.994 18.9316 101.86 19.3356 101.584C19.7436 101.304 20.0496 100.916 20.2536 100.42C20.4576 99.92 20.5596 99.34 20.5596 98.68C20.5596 98.02 20.4576 97.444 20.2536 96.952C20.0496 96.456 19.7436 96.07 19.3356 95.794C18.9316 95.518 18.4236 95.378 17.8116 95.374C17.1996 95.366 16.6896 95.5 16.2816 95.776C15.8776 96.052 15.5736 96.44 15.3696 96.94C15.1656 97.44 15.0616 98.02 15.0576 98.68C15.0536 99.34 15.1536 99.918 15.3576 100.414C15.5616 100.906 15.8676 101.29 16.2756 101.566C16.6876 101.842 17.1996 101.982 17.8116 101.986ZM26.8084 103V94.36H28.0624V101.818H31.9744V103H26.8084ZM36.5931 103V94.36H39.2991C39.3791 94.36 39.5271 94.362 39.7431 94.366C39.9631 94.37 40.1731 94.386 40.3731 94.414C41.0491 94.498 41.6171 94.74 42.0771 95.14C42.5411 95.54 42.8911 96.048 43.1271 96.664C43.3631 97.276 43.4811 97.948 43.4811 98.68C43.4811 99.416 43.3631 100.092 43.1271 100.708C42.8911 101.32 42.5411 101.826 42.0771 102.226C41.6171 102.622 41.0491 102.862 40.3731 102.946C40.1731 102.974 39.9631 102.99 39.7431 102.994C39.5271 102.998 39.3791 103 39.2991 103H36.5931ZM37.8771 101.806H39.2991C39.4351 101.806 39.5971 101.802 39.7851 101.794C39.9731 101.786 40.1391 101.77 40.2831 101.746C40.7231 101.662 41.0791 101.472 41.3511 101.176C41.6271 100.876 41.8291 100.508 41.9571 100.072C42.0851 99.636 42.1491 99.172 42.1491 98.68C42.1491 98.172 42.0831 97.702 41.9511 97.27C41.8191 96.834 41.6151 96.47 41.3391 96.178C41.0671 95.882 40.7151 95.694 40.2831 95.614C40.1391 95.586 39.9711 95.57 39.7791 95.566C39.5911 95.558 39.4311 95.554 39.2991 95.554H37.8771V101.806ZM54.4806 103V94.36H57.9726C58.0566 94.36 58.1606 94.364 58.2846 94.372C58.4086 94.376 58.5266 94.388 58.6386 94.408C59.1186 94.484 59.5186 94.648 59.8386 94.9C60.1626 95.152 60.4046 95.47 60.5646 95.854C60.7246 96.238 60.8046 96.662 60.8046 97.126C60.8046 97.594 60.7246 98.02 60.5646 98.404C60.4046 98.788 60.1626 99.106 59.8386 99.358C59.5186 99.61 59.1186 99.774 58.6386 99.85C58.5266 99.866 58.4066 99.878 58.2786 99.886C58.1546 99.894 58.0526 99.898 57.9726 99.898H55.7346V103H54.4806ZM55.7346 98.71H57.9246C58.0046 98.71 58.0926 98.706 58.1886 98.698C58.2886 98.69 58.3826 98.676 58.4706 98.656C58.7266 98.596 58.9326 98.486 59.0886 98.326C59.2446 98.162 59.3566 97.974 59.4246 97.762C59.4926 97.55 59.5266 97.338 59.5266 97.126C59.5266 96.914 59.4926 96.704 59.4246 96.496C59.3566 96.284 59.2446 96.098 59.0886 95.938C58.9326 95.774 58.7266 95.662 58.4706 95.602C58.3826 95.578 58.2886 95.562 58.1886 95.554C58.0926 95.546 58.0046 95.542 57.9246 95.542H55.7346V98.71ZM65.6041 103V94.36H69.0961C69.1801 94.36 69.2841 94.364 69.4081 94.372C69.5321 94.376 69.6501 94.388 69.7621 94.408C70.2421 94.484 70.6421 94.648 70.9621 94.9C71.2861 95.152 71.5281 95.47 71.6881 95.854C71.8481 96.238 71.9281 96.662 71.9281 97.126C71.9281 97.814 71.7521 98.408 71.4001 98.908C71.0481 99.404 70.5201 99.714 69.8161 99.838L69.3061 99.898H66.8581V103H65.6041ZM70.6561 103L68.9521 99.484L70.2181 99.16L72.0901 103H70.6561ZM66.8581 98.71H69.0481C69.1281 98.71 69.2161 98.706 69.3121 98.698C69.4121 98.69 69.5061 98.676 69.5941 98.656C69.8501 98.596 70.0561 98.486 70.2121 98.326C70.3681 98.162 70.4801 97.974 70.5481 97.762C70.6161 97.55 70.6501 97.338 70.6501 97.126C70.6501 96.914 70.6161 96.704 70.5481 96.496C70.4801 96.284 70.3681 96.098 70.2121 95.938C70.0561 95.774 69.8501 95.662 69.5941 95.602C69.5061 95.578 69.4121 95.562 69.3121 95.554C69.2161 95.546 69.1281 95.542 69.0481 95.542H66.8581V98.71ZM77.0087 103V94.36H82.5287V95.542H78.2627V97.966H81.8087V99.148H78.2627V101.818H82.5287V103H77.0087ZM90.5376 103.18C89.9176 103.18 89.3576 103.074 88.8576 102.862C88.3616 102.646 87.9516 102.34 87.6276 101.944C87.3076 101.544 87.0996 101.07 87.0036 100.522L88.3116 100.324C88.4436 100.852 88.7196 101.264 89.1396 101.56C89.5596 101.852 90.0496 101.998 90.6096 101.998C90.9576 101.998 91.2776 101.944 91.5696 101.836C91.8616 101.724 92.0956 101.566 92.2716 101.362C92.4516 101.154 92.5416 100.906 92.5416 100.618C92.5416 100.462 92.5136 100.324 92.4576 100.204C92.4056 100.084 92.3316 99.98 92.2356 99.892C92.1436 99.8 92.0296 99.722 91.8936 99.658C91.7616 99.59 91.6156 99.532 91.4556 99.484L89.2416 98.83C89.0256 98.766 88.8056 98.684 88.5816 98.584C88.3576 98.48 88.1516 98.346 87.9636 98.182C87.7796 98.014 87.6296 97.808 87.5136 97.564C87.3976 97.316 87.3396 97.016 87.3396 96.664C87.3396 96.132 87.4756 95.682 87.7476 95.314C88.0236 94.942 88.3956 94.662 88.8636 94.474C89.3316 94.282 89.8556 94.186 90.4356 94.186C91.0196 94.194 91.5416 94.298 92.0016 94.498C92.4656 94.698 92.8496 94.986 93.1536 95.362C93.4616 95.734 93.6736 96.186 93.7896 96.718L92.4456 96.946C92.3856 96.622 92.2576 96.344 92.0616 96.112C91.8656 95.876 91.6256 95.696 91.3416 95.572C91.0576 95.444 90.7496 95.378 90.4176 95.374C90.0976 95.366 89.8036 95.414 89.5356 95.518C89.2716 95.622 89.0596 95.768 88.8996 95.956C88.7436 96.144 88.6656 96.36 88.6656 96.604C88.6656 96.844 88.7356 97.038 88.8756 97.186C89.0156 97.334 89.1876 97.452 89.3916 97.54C89.5996 97.624 89.8056 97.694 90.0096 97.75L91.6056 98.2C91.8056 98.256 92.0316 98.332 92.2836 98.428C92.5396 98.52 92.7856 98.65 93.0216 98.818C93.2616 98.986 93.4596 99.21 93.6156 99.49C93.7716 99.766 93.8496 100.114 93.8496 100.534C93.8496 100.97 93.7616 101.354 93.5856 101.686C93.4096 102.014 93.1676 102.29 92.8596 102.514C92.5556 102.734 92.2036 102.9 91.8036 103.012C91.4036 103.124 90.9816 103.18 90.5376 103.18ZM102.036 103.18C101.416 103.18 100.856 103.074 100.356 102.862C99.8601 102.646 99.4501 102.34 99.1261 101.944C98.8061 101.544 98.5981 101.07 98.5021 100.522L99.8101 100.324C99.9421 100.852 100.218 101.264 100.638 101.56C101.058 101.852 101.548 101.998 102.108 101.998C102.456 101.998 102.776 101.944 103.068 101.836C103.36 101.724 103.594 101.566 103.77 101.362C103.95 101.154 104.04 100.906 104.04 100.618C104.04 100.462 104.012 100.324 103.956 100.204C103.904 100.084 103.83 99.98 103.734 99.892C103.642 99.8 103.528 99.722 103.392 99.658C103.26 99.59 103.114 99.532 102.954 99.484L100.74 98.83C100.524 98.766 100.304 98.684 100.08 98.584C99.8561 98.48 99.6501 98.346 99.4621 98.182C99.2781 98.014 99.1281 97.808 99.0121 97.564C98.8961 97.316 98.8381 97.016 98.8381 96.664C98.8381 96.132 98.9741 95.682 99.2461 95.314C99.5221 94.942 99.8941 94.662 100.362 94.474C100.83 94.282 101.354 94.186 101.934 94.186C102.518 94.194 103.04 94.298 103.5 94.498C103.964 94.698 104.348 94.986 104.652 95.362C104.96 95.734 105.172 96.186 105.288 96.718L103.944 96.946C103.884 96.622 103.756 96.344 103.56 96.112C103.364 95.876 103.124 95.696 102.84 95.572C102.556 95.444 102.248 95.378 101.916 95.374C101.596 95.366 101.302 95.414 101.034 95.518C100.77 95.622 100.558 95.768 100.398 95.956C100.242 96.144 100.164 96.36 100.164 96.604C100.164 96.844 100.234 97.038 100.374 97.186C100.514 97.334 100.686 97.452 100.89 97.54C101.098 97.624 101.304 97.694 101.508 97.75L103.104 98.2C103.304 98.256 103.53 98.332 103.782 98.428C104.038 98.52 104.284 98.65 104.52 98.818C104.76 98.986 104.958 99.21 105.114 99.49C105.27 99.766 105.348 100.114 105.348 100.534C105.348 100.97 105.26 101.354 105.084 101.686C104.908 102.014 104.666 102.29 104.358 102.514C104.054 102.734 103.702 102.9 103.302 103.012C102.902 103.124 102.48 103.18 102.036 103.18ZM110.227 103V94.36H115.747V95.542H111.481V97.966H115.027V99.148H111.481V101.818H115.747V103H110.227ZM120.788 103V94.36H123.494C123.574 94.36 123.722 94.362 123.938 94.366C124.158 94.37 124.368 94.386 124.568 94.414C125.244 94.498 125.812 94.74 126.272 95.14C126.736 95.54 127.086 96.048 127.322 96.664C127.558 97.276 127.676 97.948 127.676 98.68C127.676 99.416 127.558 100.092 127.322 100.708C127.086 101.32 126.736 101.826 126.272 102.226C125.812 102.622 125.244 102.862 124.568 102.946C124.368 102.974 124.158 102.99 123.938 102.994C123.722 102.998 123.574 103 123.494 103H120.788ZM122.072 101.806H123.494C123.63 101.806 123.792 101.802 123.98 101.794C124.168 101.786 124.334 101.77 124.478 101.746C124.918 101.662 125.274 101.472 125.546 101.176C125.822 100.876 126.024 100.508 126.152 100.072C126.28 99.636 126.344 99.172 126.344 98.68C126.344 98.172 126.278 97.702 126.146 97.27C126.014 96.834 125.81 96.47 125.534 96.178C125.262 95.882 124.91 95.694 124.478 95.614C124.334 95.586 124.166 95.57 123.974 95.566C123.786 95.558 123.626 95.554 123.494 95.554H122.072V101.806ZM142.281 103.18C141.417 103.18 140.681 102.992 140.073 102.616C139.465 102.236 138.999 101.708 138.675 101.032C138.355 100.356 138.195 99.572 138.195 98.68C138.195 97.788 138.355 97.004 138.675 96.328C138.999 95.652 139.465 95.126 140.073 94.75C140.681 94.37 141.417 94.18 142.281 94.18C143.141 94.18 143.875 94.37 144.483 94.75C145.095 95.126 145.561 95.652 145.881 96.328C146.201 97.004 146.361 97.788 146.361 98.68C146.361 99.572 146.201 100.356 145.881 101.032C145.561 101.708 145.095 102.236 144.483 102.616C143.875 102.992 143.141 103.18 142.281 103.18ZM142.281 101.986C142.893 101.994 143.401 101.86 143.805 101.584C144.213 101.304 144.519 100.916 144.723 100.42C144.927 99.92 145.029 99.34 145.029 98.68C145.029 98.02 144.927 97.444 144.723 96.952C144.519 96.456 144.213 96.07 143.805 95.794C143.401 95.518 142.893 95.378 142.281 95.374C141.669 95.366 141.159 95.5 140.751 95.776C140.347 96.052 140.043 96.44 139.839 96.94C139.635 97.44 139.531 98.02 139.527 98.68C139.523 99.34 139.623 99.918 139.827 100.414C140.031 100.906 140.337 101.29 140.745 101.566C141.157 101.842 141.669 101.982 142.281 101.986ZM151.278 103V94.36H152.532V103H151.278ZM158.054 103V94.36H159.308V101.818H163.22V103H158.054Z" fill="#228B22"/>
<defs>
<linearGradient id="paint0_linear_123_1525" x1="80.5564" y1="3.80207" x2="84.4324" y2="3.80207" gradientUnits="userSpaceOnUse">
<stop stop-color="#228B22"/>
<stop offset="1" stop-color="#89C01C"/>
</linearGradient>
<linearGradient id="paint1_linear_123_1525" x1="80.5564" y1="20.4781" x2="84.4324" y2="20.4781" gradientUnits="userSpaceOnUse">
<stop stop-color="#228B22"/>
<stop offset="1" stop-color="#89C01C"/>
</linearGradient>
<linearGradient id="paint2_linear_123_1525" x1="80.5564" y1="29.6666" x2="84.4324" y2="29.6666" gradientUnits="userSpaceOnUse">
<stop stop-color="#228B22"/>
<stop offset="1" stop-color="#89C01C"/>
</linearGradient>
<linearGradient id="paint3_linear_123_1525" x1="60.6475" y1="9.40841" x2="65.2932" y2="9.40841" gradientUnits="userSpaceOnUse">
<stop stop-color="#228B22"/>
<stop offset="1" stop-color="#89C01C"/>
</linearGradient>
<linearGradient id="paint4_linear_123_1525" x1="57.2415" y1="21.4278" x2="61.1184" y2="21.4278" gradientUnits="userSpaceOnUse">
<stop stop-color="#228B22"/>
<stop offset="1" stop-color="#89C01C"/>
</linearGradient>
<linearGradient id="paint5_linear_123_1525" x1="71.1208" y1="14.9982" x2="75.1646" y2="14.9982" gradientUnits="userSpaceOnUse">
<stop stop-color="#228B22"/>
<stop offset="1" stop-color="#89C01C"/>
</linearGradient>
<linearGradient id="paint6_linear_123_1525" x1="54.6794" y1="33.5178" x2="61.2589" y2="33.5178" gradientUnits="userSpaceOnUse">
<stop stop-color="#228B22"/>
<stop offset="1" stop-color="#89C01C"/>
</linearGradient>
<linearGradient id="paint7_linear_123_1525" x1="51.8652" y1="43.0421" x2="58.2357" y2="43.0421" gradientUnits="userSpaceOnUse">
<stop stop-color="#228B22"/>
<stop offset="1" stop-color="#89C01C"/>
</linearGradient>
<linearGradient id="paint8_linear_123_1525" x1="64.2383" y1="43.0494" x2="69.9645" y2="43.0494" gradientUnits="userSpaceOnUse">
<stop stop-color="#228B22"/>
<stop offset="1" stop-color="#89C01C"/>
</linearGradient>
<linearGradient id="paint9_linear_123_1525" x1="65.5747" y1="29.5281" x2="70.894" y2="29.5281" gradientUnits="userSpaceOnUse">
<stop stop-color="#228B22"/>
<stop offset="1" stop-color="#89C01C"/>
</linearGradient>
<linearGradient id="paint10_linear_123_1525" x1="99.7031" y1="9.40014" x2="104.352" y2="9.40014" gradientUnits="userSpaceOnUse">
<stop stop-color="#228B22"/>
<stop offset="1" stop-color="#89C01C"/>
</linearGradient>
<linearGradient id="paint11_linear_123_1525" x1="103.882" y1="21.4193" x2="107.758" y2="21.4193" gradientUnits="userSpaceOnUse">
<stop stop-color="#228B22"/>
<stop offset="1" stop-color="#89C01C"/>
</linearGradient>
<linearGradient id="paint12_linear_123_1525" x1="89.8335" y1="14.9865" x2="93.8781" y2="14.9865" gradientUnits="userSpaceOnUse">
<stop stop-color="#228B22"/>
<stop offset="1" stop-color="#89C01C"/>
</linearGradient>
<linearGradient id="paint13_linear_123_1525" x1="103.739" y1="33.5144" x2="110.325" y2="33.5144" gradientUnits="userSpaceOnUse">
<stop stop-color="#228B22"/>
<stop offset="1" stop-color="#89C01C"/>
</linearGradient>
<linearGradient id="paint14_linear_123_1525" x1="106.762" y1="43.0333" x2="113.146" y2="43.0333" gradientUnits="userSpaceOnUse">
<stop stop-color="#228B22"/>
<stop offset="1" stop-color="#89C01C"/>
</linearGradient>
<linearGradient id="paint15_linear_123_1525" x1="95.0332" y1="43.0409" x2="100.759" y2="43.0409" gradientUnits="userSpaceOnUse">
<stop stop-color="#228B22"/>
<stop offset="1" stop-color="#89C01C"/>
</linearGradient>
<linearGradient id="paint16_linear_123_1525" x1="94.1125" y1="29.5174" x2="99.4253" y2="29.5174" gradientUnits="userSpaceOnUse">
<stop stop-color="#228B22"/>
<stop offset="1" stop-color="#89C01C"/>
</linearGradient>
<linearGradient id="paint17_linear_123_1525" x1="63.76" y1="16.5223" x2="63.76" y2="54.7706" gradientUnits="userSpaceOnUse">
<stop stop-color="#543731"/>
<stop offset="1" stop-color="#9F7143"/>
</linearGradient>
<linearGradient id="paint18_linear_123_1525" x1="82.5097" y1="3.67322" x2="82.5097" y2="55.9999" gradientUnits="userSpaceOnUse">
<stop stop-color="#543731"/>
<stop offset="1" stop-color="#9F7143"/>
</linearGradient>
<linearGradient id="paint19_linear_123_1525" x1="101.248" y1="16.4753" x2="101.248" y2="54.745" gradientUnits="userSpaceOnUse">
<stop stop-color="#543731"/>
<stop offset="1" stop-color="#9F7143"/>
</linearGradient>
<clipPath id="clip0_123_1525">
<rect width="65" height="56" fill="white" transform="translate(50)"/>
</clipPath>
</defs>
</svg>
