<svg width="32" height="32" viewBox="0 0 32 32" fill="none" xmlns="http://www.w3.org/2000/svg">
<path d="M24.7784 19.8163L24.7791 19.8161C25.1532 19.6829 25.4766 19.4365 25.7044 19.1112C25.9321 18.7858 26.0529 18.3976 26.05 18.0005L26.05 17.9995C26.0529 17.6024 25.9321 17.2142 25.7044 16.8888C25.4766 16.5635 25.1532 16.3171 24.7791 16.1839L24.7784 16.1837L18.2534 13.7837L18.2263 13.7737L18.2164 13.7466L15.8164 7.22175C15.6788 6.85096 15.431 6.53117 15.1063 6.30534C14.7816 6.07951 14.3955 5.95847 14 5.95847C13.6045 5.95847 13.2185 6.07951 12.8938 6.30534C12.5691 6.53117 12.3213 6.85096 12.1836 7.22175L9.78368 13.7466L9.77371 13.7737L9.7466 13.7837L3.22177 16.1836C2.85098 16.3212 2.53119 16.569 2.30537 16.8937C2.07954 17.2184 1.9585 17.6045 1.9585 18C1.9585 18.3955 2.07954 18.7816 2.30537 19.1063C2.53116 19.4309 2.85088 19.6787 3.2216 19.8163H24.7784ZM24.7784 19.8163L18.2534 22.2163L18.2263 22.2263L18.2164 22.2534L15.8164 28.7782C15.6788 29.149 15.431 29.4688 15.1063 29.6947C14.7816 29.9205 14.3955 30.0415 14 30.0415C13.6045 30.0415 13.2185 29.9205 12.8938 29.6947C12.5691 29.4688 12.3213 29.149 12.1836 28.7782L9.78368 22.2534L9.77371 22.2263L9.7466 22.2163L3.22177 19.8164L24.7784 19.8163ZM21.0625 6V5.9375H21H19C18.7514 5.9375 18.5129 5.83873 18.3371 5.66291C18.1613 5.4871 18.0625 5.24864 18.0625 5C18.0625 4.75136 18.1613 4.5129 18.3371 4.33709C18.5129 4.16127 18.7514 4.0625 19 4.0625H21H21.0625V4V2C21.0625 1.75136 21.1613 1.5129 21.3371 1.33709C21.5129 1.16127 21.7514 1.0625 22 1.0625C22.2487 1.0625 22.4871 1.16127 22.6629 1.33709C22.8388 1.5129 22.9375 1.75136 22.9375 2V4V4.0625H23H25C25.2487 4.0625 25.4871 4.16127 25.6629 4.33709C25.8388 4.5129 25.9375 4.75136 25.9375 5C25.9375 5.24864 25.8388 5.4871 25.6629 5.66291C25.4871 5.83873 25.2487 5.9375 25 5.9375H23H22.9375V6V8C22.9375 8.24864 22.8388 8.4871 22.6629 8.66291C22.4871 8.83873 22.2487 8.9375 22 8.9375C21.7514 8.9375 21.5129 8.83873 21.3371 8.66291C21.1613 8.4871 21.0625 8.24864 21.0625 8V6ZM28.9375 10V10.0625H29H30C30.2487 10.0625 30.4871 10.1613 30.6629 10.3371C30.8388 10.5129 30.9375 10.7514 30.9375 11C30.9375 11.2486 30.8388 11.4871 30.6629 11.6629C30.4871 11.8387 30.2487 11.9375 30 11.9375H29H28.9375V12V13C28.9375 13.2486 28.8388 13.4871 28.6629 13.6629C28.4871 13.8387 28.2487 13.9375 28 13.9375C27.7514 13.9375 27.5129 13.8387 27.3371 13.6629C27.1613 13.4871 27.0625 13.2486 27.0625 13V12V11.9375H27H26C25.7514 11.9375 25.5129 11.8387 25.3371 11.6629C25.1613 11.4871 25.0625 11.2486 25.0625 11C25.0625 10.7514 25.1613 10.5129 25.3371 10.3371C25.5129 10.1613 25.7514 10.0625 26 10.0625H27H27.0625V10V9C27.0625 8.75136 27.1613 8.5129 27.3371 8.33709C27.5129 8.16127 27.7514 8.0625 28 8.0625C28.2487 8.0625 28.4871 8.16127 28.6629 8.33709C28.8388 8.5129 28.9375 8.75136 28.9375 9V10Z" fill="white" stroke="white" stroke-width="0.125"/>
</svg>
