<svg width="32" height="33" viewBox="0 0 32 33" fill="none" xmlns="http://www.w3.org/2000/svg">
<path d="M24.7784 20.1179L24.7791 20.1176C25.1532 19.9844 25.4766 19.738 25.7044 19.4127C25.9321 19.0873 26.0529 18.6991 26.05 18.302L26.05 18.3011C26.0529 17.9039 25.9321 17.5157 25.7044 17.1904C25.4766 16.865 25.1532 16.6186 24.7791 16.4854L24.7784 16.4852L18.2534 14.0852L18.2263 14.0752L18.2164 14.0481L15.8164 7.52326C15.6788 7.15247 15.431 6.83268 15.1063 6.60685C14.7816 6.38103 14.3955 6.25998 14 6.25998C13.6045 6.25998 13.2185 6.38103 12.8938 6.60685C12.5691 6.83268 12.3213 7.15247 12.1836 7.52326L9.78368 14.0481L9.77371 14.0752L9.7466 14.0852L3.22177 16.4851C2.85098 16.6227 2.53119 16.8706 2.30537 17.1953C2.07954 17.52 1.9585 17.906 1.9585 18.3015C1.9585 18.697 2.07954 19.0831 2.30537 19.4078C2.53116 19.7324 2.85088 19.9802 3.2216 20.1179H24.7784ZM24.7784 20.1179L18.2534 22.5179L18.2263 22.5278L18.2164 22.5549L15.8164 29.0798C15.6788 29.4506 15.431 29.7703 15.1063 29.9962C14.7816 30.222 14.3955 30.343 14 30.343C13.6045 30.343 13.2185 30.222 12.8938 29.9962C12.5691 29.7703 12.3213 29.4506 12.1836 29.0798L9.78368 22.5549L9.77371 22.5278L9.7466 22.5179L3.22177 20.1179L24.7784 20.1179ZM21.0625 6.30151V6.23901H21H19C18.7514 6.23901 18.5129 6.14024 18.3371 5.96443C18.1613 5.78861 18.0625 5.55015 18.0625 5.30151C18.0625 5.05287 18.1613 4.81442 18.3371 4.6386C18.5129 4.46279 18.7514 4.36401 19 4.36401H21H21.0625V4.30151V2.30151C21.0625 2.05287 21.1613 1.81442 21.3371 1.6386C21.5129 1.46279 21.7514 1.36401 22 1.36401C22.2487 1.36401 22.4871 1.46279 22.6629 1.6386C22.8388 1.81442 22.9375 2.05287 22.9375 2.30151V4.30151V4.36401H23H25C25.2487 4.36401 25.4871 4.46279 25.6629 4.6386C25.8388 4.81442 25.9375 5.05287 25.9375 5.30151C25.9375 5.55015 25.8388 5.78861 25.6629 5.96443C25.4871 6.14024 25.2487 6.23901 25 6.23901H23H22.9375V6.30151V8.30151C22.9375 8.55015 22.8388 8.78861 22.6629 8.96443C22.4871 9.14024 22.2487 9.23901 22 9.23901C21.7514 9.23901 21.5129 9.14024 21.3371 8.96443C21.1613 8.78861 21.0625 8.55015 21.0625 8.30151V6.30151ZM28.9375 10.3015V10.364H29H30C30.2487 10.364 30.4871 10.4628 30.6629 10.6386C30.8388 10.8144 30.9375 11.0529 30.9375 11.3015C30.9375 11.5502 30.8388 11.7886 30.6629 11.9644C30.4871 12.1402 30.2487 12.239 30 12.239H29H28.9375V12.3015V13.3015C28.9375 13.5502 28.8388 13.7886 28.6629 13.9644C28.4871 14.1402 28.2487 14.239 28 14.239C27.7514 14.239 27.5129 14.1402 27.3371 13.9644C27.1613 13.7886 27.0625 13.5502 27.0625 13.3015V12.3015V12.239H27H26C25.7514 12.239 25.5129 12.1402 25.3371 11.9644C25.1613 11.7886 25.0625 11.5502 25.0625 11.3015C25.0625 11.0529 25.1613 10.8144 25.3371 10.6386C25.5129 10.4628 25.7514 10.364 26 10.364H27H27.0625V10.3015V9.30151C27.0625 9.05287 27.1613 8.81442 27.3371 8.6386C27.5129 8.46279 27.7514 8.36401 28 8.36401C28.2487 8.36401 28.4871 8.46279 28.6629 8.6386C28.8388 8.81442 28.9375 9.05287 28.9375 9.30151V10.3015Z" fill="white" stroke="white" stroke-width="0.125"/>
</svg>
