<svg width="20" height="20" viewBox="0 0 20 20" fill="none" xmlns="http://www.w3.org/2000/svg">
<path d="M16.2499 7.8125L7.34363 16.7188C7.07725 16.9861 6.76069 17.1983 6.41212 17.3431C6.06354 17.4879 5.68982 17.5624 5.31238 17.5624C4.93494 17.5624 4.56121 17.4879 4.21264 17.3431C3.86407 17.1983 3.54751 16.9861 3.28113 16.7188V16.7188C3.01373 16.4524 2.80156 16.1358 2.65679 15.7872C2.51202 15.4387 2.4375 15.0649 2.4375 14.6875C2.4375 14.3101 2.51202 13.9363 2.65679 13.5878C2.80156 13.2392 3.01373 12.9226 3.28113 12.6562L13.4374 2.5L18.1249 7.1875L16.2499 7.8125Z" stroke="#726C6B" stroke-width="1.5" stroke-linecap="round" stroke-linejoin="round"/>
<path d="M5.3125 10.6249C5.3125 10.6249 6.875 9.37489 9.375 10.6249C11.875 11.8749 13.4375 10.6249 13.4375 10.6249" stroke="#726C6B" stroke-width="1.5" stroke-linecap="round" stroke-linejoin="round"/>
</svg>
