<svg width="32" height="33" viewBox="0 0 32 33" fill="none" xmlns="http://www.w3.org/2000/svg">
<path d="M15.3086 24.6673L15.3087 24.6672L15.3074 24.6644C15.2572 24.5473 15.2313 24.4212 15.2314 24.2938C15.2314 24.1665 15.2575 24.0404 15.3079 23.9234C15.3583 23.8065 15.432 23.701 15.5246 23.6134C15.6171 23.5259 15.7265 23.4581 15.8461 23.4143C15.9657 23.3704 16.093 23.3514 16.2202 23.3584C16.3474 23.3653 16.4718 23.3982 16.5859 23.4548C16.7 23.5115 16.8014 23.5908 16.8838 23.688C16.9662 23.7851 17.0279 23.898 17.0652 24.0198L17.0651 24.0199L17.0665 24.0234C17.1982 24.3761 17.424 24.686 17.7194 24.9195C18.0147 25.153 18.3684 25.3012 18.742 25.348C19.1155 25.3948 19.4948 25.3385 19.8387 25.1851C20.1825 25.0318 20.4778 24.7872 20.6926 24.478C20.9073 24.1687 21.0333 23.8066 21.0569 23.4308C21.0805 23.055 21.0008 22.68 20.8265 22.3463C20.6521 22.0126 20.3897 21.733 20.0678 21.5378C19.7458 21.3426 19.3766 21.2393 19 21.239H19H5C4.75136 21.239 4.5129 21.1402 4.33709 20.9644C4.16127 20.7886 4.0625 20.5502 4.0625 20.3015C4.0625 20.0529 4.16127 19.8144 4.33709 19.6386C4.5129 19.4628 4.75136 19.364 5 19.364H18.9998C20.0431 19.3673 21.0428 19.7832 21.7806 20.5209C22.5183 21.2587 22.9342 22.2583 22.9375 23.3016C22.9364 24.2248 22.6111 25.1182 22.0182 25.8258C21.4253 26.5334 20.6027 27.0103 19.6939 27.173C18.7852 27.3356 17.8481 27.1739 17.0466 26.7159C16.245 26.2579 15.6298 25.5328 15.3086 24.6673ZM15 13.239H15H3C2.75136 13.239 2.5129 13.1402 2.33709 12.9644C2.16127 12.7886 2.0625 12.5502 2.0625 12.3015C2.0625 12.0529 2.16127 11.8144 2.33709 11.6386C2.5129 11.4628 2.75136 11.364 3 11.364H15H15C15.3766 11.3637 15.7458 11.2604 16.0678 11.0652C16.3897 10.87 16.6521 10.5904 16.8265 10.2567C17.0008 9.92304 17.0805 9.54798 17.0569 9.17222C17.0333 8.79646 16.9073 8.43432 16.6926 8.12507C16.4778 7.81583 16.1825 7.57126 15.8387 7.41789C15.4948 7.26452 15.1155 7.2082 14.742 7.25503C14.3684 7.30186 14.0147 7.45006 13.7194 7.68356C13.424 7.91706 13.1982 8.22695 13.0665 8.57964L13.0663 8.5796L13.0652 8.58321C13.0279 8.70501 12.9662 8.81792 12.8838 8.91506C12.8014 9.01221 12.7 9.09153 12.5859 9.1482C12.4718 9.20487 12.3474 9.2377 12.2202 9.24468C12.093 9.25165 11.9657 9.23263 11.8461 9.18878C11.7265 9.14493 11.6171 9.07716 11.5246 8.98961C11.432 8.90207 11.3583 8.79658 11.3079 8.67959C11.2575 8.5626 11.2314 8.43657 11.2314 8.30918C11.2313 8.1818 11.2572 8.05573 11.3074 7.93868L11.3075 7.93871L11.3086 7.93569C11.5582 7.26084 11.9879 6.66727 12.5512 6.21947C13.1144 5.77167 13.7895 5.48676 14.5032 5.39569C15.217 5.30461 15.942 5.41085 16.5997 5.70287C17.2573 5.99488 17.8223 6.46151 18.2333 7.05207C18.6444 7.64263 18.8858 8.33453 18.9313 9.05262C18.9768 9.77071 18.8246 10.4875 18.4913 11.1252C18.1581 11.7629 17.6564 12.2971 17.0409 12.6698C16.4254 13.0424 15.7196 13.2393 15 13.239ZM22.3074 11.9387L22.3075 11.9387L22.3086 11.9358C22.5891 11.1824 23.0928 10.5325 23.7524 10.073C24.4121 9.61342 25.1962 9.36609 26.0002 9.36402C27.0444 9.36406 28.0458 9.7789 28.7842 10.5173C29.5227 11.2557 29.9375 12.2572 29.9375 13.3015C29.9375 14.3458 29.5227 15.3473 28.7842 16.0857C28.0458 16.8242 27.0443 17.239 26 17.239H4C3.75136 17.239 3.5129 17.1402 3.33709 16.9644C3.16127 16.7886 3.0625 16.5502 3.0625 16.3015C3.0625 16.0529 3.16127 15.8144 3.33709 15.6386C3.5129 15.4628 3.75136 15.364 4 15.364H26H26C26.3766 15.3637 26.7458 15.2604 27.0678 15.0652C27.3897 14.87 27.6521 14.5904 27.8265 14.2567C28.0008 13.923 28.0805 13.548 28.0569 13.1722C28.0333 12.7965 27.9073 12.4343 27.6926 12.1251C27.4778 11.8158 27.1825 11.5713 26.8387 11.4179C26.4948 11.2645 26.1155 11.2082 25.742 11.255C25.3684 11.3019 25.0147 11.4501 24.7194 11.6836C24.424 11.9171 24.1982 12.227 24.0665 12.5796L24.0663 12.5796L24.0652 12.5832C24.0279 12.705 23.9662 12.8179 23.8838 12.9151C23.8014 13.0122 23.7 13.0915 23.5859 13.1482C23.4718 13.2049 23.3474 13.2377 23.2202 13.2447C23.093 13.2517 22.9657 13.2326 22.8461 13.1888C22.7265 13.1449 22.6171 13.0772 22.5246 12.9896C22.432 12.9021 22.3583 12.7966 22.3079 12.6796C22.2575 12.5626 22.2314 12.4366 22.2314 12.3092C22.2313 12.1818 22.2572 12.0557 22.3074 11.9387Z" fill="white" stroke="white" stroke-width="0.125"/>
</svg>
