<svg width="32" height="32" viewBox="0 0 32 32" fill="none" xmlns="http://www.w3.org/2000/svg">
<path d="M22.9375 4V4.0625H23H26C26.5139 4.0625 27.0067 4.26663 27.37 4.62998C27.7334 4.99333 27.9375 5.48614 27.9375 6V26C27.9375 26.5139 27.7334 27.0067 27.37 27.37C27.0067 27.7334 26.5139 27.9375 26 27.9375H6C5.48614 27.9375 4.99333 27.7334 4.62998 27.37C4.26663 27.0067 4.0625 26.5139 4.0625 26V6C4.0625 5.48614 4.26663 4.99333 4.62998 4.62998C4.99333 4.26663 5.48614 4.0625 6 4.0625H9H9.0625V4V3C9.0625 2.75136 9.16127 2.5129 9.33709 2.33709C9.5129 2.16127 9.75136 2.0625 10 2.0625C10.2486 2.0625 10.4871 2.16127 10.6629 2.33709C10.8387 2.5129 10.9375 2.75136 10.9375 3V4V4.0625H11H21H21.0625V4V3C21.0625 2.75136 21.1613 2.5129 21.3371 2.33709C21.5129 2.16127 21.7514 2.0625 22 2.0625C22.2486 2.0625 22.4871 2.16127 22.6629 2.33709C22.8387 2.5129 22.9375 2.75136 22.9375 3V4ZM26 10.0625H26.0625V10V6V5.9375H26H23H22.9375V6V7C22.9375 7.24864 22.8387 7.4871 22.6629 7.66291C22.4871 7.83873 22.2486 7.9375 22 7.9375C21.7514 7.9375 21.5129 7.83873 21.3371 7.66291C21.1613 7.4871 21.0625 7.24864 21.0625 7V6V5.9375H21H11H10.9375V6V7C10.9375 7.24864 10.8387 7.4871 10.6629 7.66291C10.4871 7.83873 10.2486 7.9375 10 7.9375C9.75136 7.9375 9.5129 7.83873 9.33709 7.66291C9.16127 7.4871 9.0625 7.24864 9.0625 7V6V5.9375H9H6H5.9375V6V10V10.0625H6H26Z" fill="white" stroke="white" stroke-width="0.125"/>
</svg>
