<svg width="32" height="32" viewBox="0 0 32 32" fill="none" xmlns="http://www.w3.org/2000/svg">
<path d="M27.4375 25V25.0625H27.5H28.5C28.7486 25.0625 28.9871 25.1613 29.1629 25.3371C29.3387 25.5129 29.4375 25.7514 29.4375 26C29.4375 26.2486 29.3387 26.4871 29.1629 26.6629C28.9871 26.8387 28.7486 26.9375 28.5 26.9375H3.5C3.25136 26.9375 3.0129 26.8387 2.83709 26.6629C2.66127 26.4871 2.5625 26.2486 2.5625 26C2.5625 25.7514 2.66127 25.5129 2.83709 25.3371C3.0129 25.1613 3.25136 25.0625 3.5 25.0625H4.5H4.5625V25V17C4.5625 16.7514 4.66127 16.5129 4.83709 16.3371C5.0129 16.1613 5.25136 16.0625 5.5 16.0625H11.5H11.5625V16V11C11.5625 10.7514 11.6613 10.5129 11.8371 10.3371C12.0129 10.1613 12.2514 10.0625 12.5 10.0625H18.5H18.5625V10V5C18.5625 4.75136 18.6613 4.5129 18.8371 4.33709C19.0129 4.16127 19.2514 4.0625 19.5 4.0625H26.5C26.7486 4.0625 26.9871 4.16127 27.1629 4.33709C27.3387 4.5129 27.4375 4.75136 27.4375 5V25ZM13.5 11.9375H13.4375V12V25V25.0625H13.5H18.5H18.5625V25V12V11.9375H18.5H13.5ZM6.5 17.9375H6.4375V18V25V25.0625H6.5H11.5H11.5625V25V18V17.9375H11.5H6.5Z" fill="white" stroke="white" stroke-width="0.125"/>
</svg>
