<svg width="32" height="32" viewBox="0 0 32 32" fill="none" xmlns="http://www.w3.org/2000/svg">
<path d="M4.49069 17.7297L4.49097 17.7301C6.24778 20.6332 8.90975 23.0996 11.1852 24.8694C13.4591 26.638 15.3431 27.708 15.5429 27.8204C15.683 27.8973 15.8402 27.9376 16 27.9376C16.1596 27.9376 16.3167 27.8974 16.4567 27.8206C18.7524 26.4785 20.9056 24.9064 22.8832 23.1285C27.2396 19.209 29.4375 15.2996 29.4375 11.5C29.4375 9.939 28.9463 8.41757 28.0336 7.15122C27.1209 5.88487 25.8328 4.9378 24.3519 4.44417C22.871 3.95054 21.2724 3.93537 19.7824 4.40081C18.2924 4.86625 16.9866 5.7887 16.05 7.0375L16 7.10417L15.95 7.0375C15.0134 5.7887 13.7076 4.86625 12.2176 4.40081C10.7276 3.93537 9.12895 3.95054 7.64806 4.44417C6.16716 4.9378 4.87912 5.88487 3.96639 7.15122C3.05371 8.41749 2.56256 9.93882 2.5625 11.4997C2.57195 12.5624 2.73949 13.6178 3.0596 14.6312L3.05962 14.6313C3.08746 14.7198 3.14273 14.7972 3.21745 14.8522C3.2921 14.9072 3.3823 14.9371 3.47502 14.9375C3.4751 14.9375 3.47517 14.9375 3.47525 14.9375L8.429 14.9375L10.098 12.4279L10.0985 12.427C10.2373 12.2256 10.4361 12.073 10.6666 11.9911L10.6684 11.9905L10.6684 11.9905C10.8905 11.9193 11.1296 11.9222 11.3499 11.9988C11.5701 12.0754 11.7595 12.2215 11.8894 12.4152L11.8895 12.4154L14.9999 17.0871L16.1101 15.416C16.1101 15.4159 16.1102 15.4158 16.1103 15.4157C16.2064 15.2676 16.3384 15.1461 16.4939 15.0625C16.6495 14.9789 16.8237 14.9359 17.0003 14.9375M4.49069 17.7297L17 15M4.49069 17.7297C4.44983 17.6634 4.42738 17.5875 4.42566 17.5097C4.42394 17.4319 4.44301 17.355 4.4809 17.287C4.5188 17.219 4.57415 17.1624 4.64124 17.1229C4.70833 17.0834 4.78473 17.0626 4.86257 17.0625M4.49069 17.7297L4.8625 17M17.0003 14.9375C17.0004 14.9375 17.0005 14.9375 17.0006 14.9375L17 15M17.0003 14.9375H17V15M17.0003 14.9375H19.9999M17 15H20M19.9999 14.9375L20 15M19.9999 14.9375H20V15M19.9999 14.9375C20.1452 14.9372 20.289 14.9667 20.4224 15.0242C20.5559 15.0817 20.6761 15.166 20.7757 15.2718C20.8752 15.3776 20.9521 15.5027 21.0014 15.6394C21.0507 15.7761 21.0715 15.9214 21.0624 16.0664L21.0623 16.0678C21.0388 16.3422 20.9121 16.5974 20.7078 16.782C20.5037 16.9665 20.2371 17.0667 19.962 17.0625H17.571L15.902 19.5721L15.9015 19.573C15.7627 19.7744 15.5639 19.927 15.3334 20.0089L15.3316 20.0095L15.3316 20.0095C15.1095 20.0807 14.8704 20.0778 14.6501 20.0012C14.4299 19.9246 14.2405 19.7785 14.1106 19.5848L14.1105 19.5846L11.0001 14.9129L9.88993 16.584C9.88987 16.5841 9.88981 16.5842 9.88975 16.5843C9.79358 16.7324 9.66162 16.8539 9.50605 16.9375C9.35048 17.0211 9.17634 17.0641 8.99974 17.0625M20 15L9 17M8.99974 17.0625C8.99964 17.0625 8.99953 17.0625 8.99943 17.0625L9 17M8.99974 17.0625H9V17M8.99974 17.0625H4.86257M9 17H4.8625M4.86257 17.0625L4.8625 17M4.86257 17.0625H4.8625V17M10.9625 14.8565L11 14.8L11.0376 14.8564L10.9625 14.8565ZM3 14.65C2.67799 13.6306 2.50948 12.569 2.5 11.5L3 14.65Z" fill="white" stroke="white" stroke-width="0.125"/>
</svg>
