<svg width="270" height="56" viewBox="0 0 270 56" fill="none" xmlns="http://www.w3.org/2000/svg">
<g clip-path="url(#clip0_123_1519)">
<path d="M33.1474 6.72546L32.4944 7.36578L31.8415 6.72546C31.0187 5.91851 30.5564 4.82407 30.5564 3.68289C30.5564 2.54171 31.0187 1.44727 31.8415 0.640317L32.4944 0L33.1474 0.640317C33.9702 1.44727 34.4324 2.54171 34.4324 3.68289C34.4324 4.82407 33.9702 5.91851 33.1474 6.72546Z" fill="url(#paint0_linear_123_1519)"/>
<path d="M33.1474 23.4015L32.4944 24.0418L31.8415 23.4015C31.0187 22.5945 30.5564 21.5001 30.5564 20.3589C30.5564 19.2177 31.0187 18.1233 31.8415 17.3163L32.4944 16.676L33.1474 17.3163C33.9702 18.1233 34.4324 19.2177 34.4324 20.3589C34.4324 21.5001 33.9702 22.5945 33.1474 23.4015Z" fill="url(#paint1_linear_123_1519)"/>
<path d="M33.1474 32.59L32.4944 33.2303L31.8415 32.59C31.0187 31.783 30.5564 30.6886 30.5564 29.5474C30.5564 28.4062 31.0187 27.3118 31.8415 26.5048L32.4944 25.8645L33.1474 26.5048C33.9702 27.3118 34.4324 28.4062 34.4324 29.5474C34.4324 30.6886 33.9702 31.783 33.1474 32.59Z" fill="url(#paint2_linear_123_1519)"/>
<path d="M15.1917 11.5257L14.9936 12.4093L14.0904 12.2151C12.9548 11.97 11.965 11.2927 11.3385 10.3321C10.712 9.37153 10.5002 8.20629 10.7495 7.09256L10.9476 6.20679L11.8486 6.40315C12.9843 6.64828 13.9743 7.32548 14.6011 8.28598C15.2279 9.24647 15.4403 10.4117 15.1917 11.5257Z" fill="url(#paint3_linear_123_1519)"/>
<path d="M9.83332 24.3512L9.18038 24.9915L8.52744 24.3512C8.11976 23.9518 7.79634 23.4775 7.57569 22.9554C7.35503 22.4334 7.24146 21.8738 7.24146 21.3086C7.24146 20.7435 7.35503 20.1839 7.57569 19.6618C7.79634 19.1398 8.11976 18.6655 8.52744 18.266L9.18038 17.6257L9.83332 18.266C10.6561 19.073 11.1184 20.1674 11.1184 21.3086C11.1184 22.4498 10.6561 23.5442 9.83332 24.3512Z" fill="url(#paint4_linear_123_1519)"/>
<path d="M22.9703 17.9885L22.1694 18.441L21.7079 17.6556C21.1266 16.6671 20.9693 15.4927 21.2705 14.3905C21.5717 13.2883 22.3067 12.3484 23.3142 11.7774L24.1151 11.325L24.5765 12.1083C25.1585 13.097 25.3163 14.2719 25.015 15.3746C24.7138 16.4773 23.9783 17.4175 22.9703 17.9885Z" fill="url(#paint5_linear_123_1519)"/>
<path d="M11.0021 34.3638L11.2589 35.2175L10.3731 35.4694C9.81944 35.6275 9.23946 35.6771 8.66628 35.6153C8.09311 35.5534 7.53798 35.3814 7.03264 35.1091C6.5273 34.8367 6.08166 34.4693 5.7212 34.0279C5.36074 33.5866 5.09253 33.0798 4.93191 32.5367L4.67944 31.6744L5.56526 31.4226C6.11917 31.2652 6.69928 31.2165 7.2724 31.2792C7.84553 31.3419 8.40043 31.5148 8.90537 31.7879C9.41031 32.0611 9.8554 32.4292 10.2152 32.8712C10.5749 33.3132 10.8423 33.8204 11.0021 34.3638Z" fill="url(#paint6_linear_123_1519)"/>
<path d="M7.33686 40.816L8.23574 41.0294L8.01809 41.9109C7.75392 43.0191 7.05263 43.9795 6.06784 44.5816C5.08305 45.1836 3.89505 45.3784 2.76411 45.1232L1.86523 44.9204L2.072 44.0368C2.20204 43.4863 2.44138 42.9663 2.77634 42.5065C3.1113 42.0467 3.53533 41.6561 4.02422 41.3571C4.51311 41.058 5.05728 40.8563 5.62567 40.7634C6.19405 40.6706 6.77551 40.6884 7.33686 40.816Z" fill="url(#paint7_linear_123_1519)"/>
<path d="M19.0461 40.5128L19.9645 40.5875L19.8905 41.4882C19.8436 42.0515 19.6839 42.6002 19.4207 43.1029C19.1575 43.6057 18.7959 44.0527 18.3565 44.4183C17.9171 44.784 17.4086 45.0613 16.8599 45.2342C16.3113 45.4071 15.7333 45.4723 15.1589 45.4262L14.2383 45.3536L14.3145 44.4507C14.3614 43.8875 14.5211 43.3388 14.7843 42.836C15.0475 42.3333 15.4091 41.8863 15.8485 41.5206C16.2879 41.1549 16.7964 40.8777 17.3451 40.7048C17.8937 40.5319 18.4717 40.4666 19.0461 40.5128Z" fill="url(#paint8_linear_123_1519)"/>
<path d="M20.894 31.1407V32.0457H19.9625C18.7995 32.0457 17.6841 31.5929 16.8614 30.7869C16.0386 29.9809 15.5759 28.8875 15.5747 27.747V26.842H16.4975C17.0741 26.8409 17.6452 26.9513 18.1783 27.1667C18.7114 27.3822 19.1959 27.6986 19.6042 28.0978C20.0125 28.497 20.3366 28.9713 20.5579 29.4934C20.7792 30.0155 20.8934 30.5753 20.894 31.1407Z" fill="url(#paint9_linear_123_1519)"/>
<path d="M49.8083 11.5257L50.0064 12.4093L50.9096 12.2151C52.0449 11.9695 53.0343 11.2921 53.6607 10.3316C54.2871 9.37119 54.4992 8.20622 54.2505 7.09254L54.0524 6.1897L53.1514 6.38393C52.5872 6.50545 52.0529 6.73498 51.5793 7.05936C51.1058 7.38375 50.7021 7.79661 50.3915 8.27428C50.081 8.75195 49.8696 9.28504 49.7695 9.84298C49.6694 10.4009 49.6826 10.9727 49.8083 11.5257Z" fill="url(#paint10_linear_123_1519)"/>
<path d="M55.1667 24.3427L55.8196 24.983L56.4725 24.3427C57.2954 23.5357 57.7576 22.4413 57.7576 21.3001C57.7576 20.1589 57.2954 19.0645 56.4725 18.2575L55.8196 17.6172L55.1667 18.2575C54.3438 19.0645 53.8816 20.1589 53.8816 21.3001C53.8816 22.4413 54.3438 23.5357 55.1667 24.3427Z" fill="url(#paint11_linear_123_1519)"/>
<path d="M42.0295 17.978L42.8283 18.4304L43.2897 17.6471C43.8717 16.659 44.0298 15.4846 43.7289 14.3823C43.4281 13.28 42.6931 12.3399 41.6856 11.769L40.8847 11.3123L40.4233 12.0956C40.1345 12.5851 39.9469 13.1257 39.8713 13.6865C39.7958 14.2472 39.8336 14.817 39.9828 15.3633C40.132 15.9097 40.3896 16.4218 40.7407 16.8704C41.0919 17.3191 41.5299 17.6954 42.0295 17.978Z" fill="url(#paint12_linear_123_1519)"/>
<path d="M53.998 34.3465L53.739 35.2174L54.627 35.4714C55.1808 35.6295 55.7609 35.6789 56.3342 35.617C56.9075 35.555 57.4627 35.3828 57.968 35.1102C58.4734 34.8377 58.919 34.4701 59.2794 34.0284C59.6397 33.5868 59.9078 33.0799 60.0682 32.5366L60.325 31.6679L59.4392 31.416C58.8857 31.2575 58.3058 31.2077 57.7326 31.2692C57.1594 31.3308 56.6043 31.5026 56.0989 31.7747C55.5935 32.0469 55.1478 32.4142 54.7873 32.8555C54.4268 33.2968 54.1586 33.8035 53.998 34.3465Z" fill="url(#paint13_linear_123_1519)"/>
<path d="M57.663 40.8074L56.762 41.0101L56.9796 41.8938C57.1096 42.4445 57.349 42.9647 57.6842 43.4246C58.0193 43.8846 58.4435 44.2753 58.9326 44.5744C59.4218 44.8735 59.9662 45.0751 60.5348 45.1678C61.1035 45.2605 61.6852 45.2424 62.2466 45.1146L63.1455 44.9011L62.9388 44.0196C62.8076 43.4689 62.567 42.949 62.2308 42.4894C61.8947 42.0299 61.4695 41.6399 60.9795 41.3416C60.4896 41.0433 59.9445 40.8426 59.3755 40.7509C58.8064 40.6592 58.2245 40.6784 57.663 40.8074Z" fill="url(#paint14_linear_123_1519)"/>
<path d="M45.9538 40.5043L45.0332 40.5768L45.1094 41.4797C45.1563 42.0429 45.316 42.5916 45.5792 43.0944C45.8424 43.5971 46.204 44.0441 46.6434 44.4098C47.0828 44.7755 47.5913 45.0527 48.14 45.2256C48.6886 45.3986 49.2666 45.4638 49.841 45.4176L50.7595 45.3451L50.6855 44.4422C50.6385 43.8789 50.4789 43.3303 50.2157 42.8275C49.9524 42.3247 49.5908 41.8778 49.1514 41.5121C48.7121 41.1464 48.2035 40.8692 47.6549 40.6962C47.1062 40.5233 46.5282 40.4581 45.9538 40.5043Z" fill="url(#paint15_linear_123_1519)"/>
<path d="M44.1125 31.1323V32.0373H45.0375C46.2012 32.0373 47.3173 31.5839 48.1401 30.777C48.963 29.97 49.4253 28.8755 49.4253 27.7343V26.8293H48.5025C47.9261 26.8291 47.3553 26.9402 46.8227 27.1563C46.2901 27.3724 45.8061 27.6893 45.3985 28.0889C44.9908 28.4885 44.6674 28.9629 44.4468 29.4851C44.2261 30.0073 44.1125 30.567 44.1125 31.1323Z" fill="url(#paint16_linear_123_1519)"/>
<path d="M26.3591 42.9481C25.9029 42.0076 25.3501 41.1151 24.7094 40.2844C24.0789 39.4612 23.3878 38.6844 22.6417 37.96C21.1664 36.5331 19.5753 35.2261 17.884 34.052C17.4618 33.7638 17.0461 33.4693 16.6173 33.1982L16.1058 32.8482C15.7532 32.5195 15.4137 32.1908 15.0938 31.8493C14.2558 30.9528 13.5267 30.0158 13.0827 28.9871C12.6304 27.9504 12.4624 26.8158 12.5952 25.6958C12.659 25.0978 12.7822 24.5074 12.963 23.9328C13.1505 23.3195 13.3795 22.7191 13.6486 22.1357C13.3635 22.3201 13.1 22.5348 12.8629 22.776C12.6245 23.0175 12.4062 23.2773 12.21 23.5529C11.7983 24.1184 11.481 24.7445 11.2697 25.4077C11.0488 26.0974 10.9545 26.82 10.9911 27.5421C10.9911 27.6317 10.9911 27.7235 11.0064 27.8131L11.0434 28.0842L11.0847 28.3553L11.1457 28.6221C11.1842 28.801 11.2351 28.9771 11.298 29.1493C11.3535 29.3225 11.4181 29.4928 11.4917 29.6594C11.544 29.7832 11.6049 29.9027 11.6658 30.0201L11.5657 29.9518L10.9781 29.5249L10.6821 29.3115L10.3991 29.0831L9.82021 28.6007L9.27609 28.1184C9.08892 27.9625 8.92351 27.7875 8.74939 27.6189C8.57527 27.4503 8.40116 27.2838 8.24445 27.1024C8.08775 26.921 7.91145 26.7523 7.7591 26.5667L7.29987 26.0117L6.87764 25.4333L6.48152 24.8335C5.97203 24.0243 5.58219 23.1483 5.32364 22.2317L5.22353 21.8923L5.14735 21.5423C5.08858 21.3097 5.06682 21.0706 5.02764 20.8337C4.97499 20.3539 4.95609 19.8711 4.97106 19.3887C4.98788 18.9007 5.04832 18.415 5.1517 17.9373C5.2461 17.452 5.39199 16.9777 5.58699 16.5222C5.03165 17.3781 4.6599 18.336 4.49441 19.3375C4.40243 19.8441 4.3551 20.3575 4.35294 20.8721C4.35294 21.1282 4.35294 21.3886 4.38994 21.6448L4.42476 22.0332L4.4857 22.4174C4.84047 24.4728 5.86993 26.3874 7.20193 27.9818C7.86361 28.782 8.59157 29.5273 9.37839 30.2101L9.67003 30.4683L9.97039 30.7138L10.5776 31.2004C10.9955 31.5056 11.409 31.8173 11.8378 32.1075L12.4907 32.5344L12.815 32.7478L13.1328 32.9485C13.5528 33.2174 13.9751 33.4842 14.3908 33.7617C15.2309 34.3052 16.0565 34.8616 16.8676 35.4308C17.3174 35.7495 17.7636 36.0732 18.2061 36.4019C17.2022 36.368 16.1975 36.4396 15.2091 36.6154C12.9064 36.9889 10.7147 37.5545 8.53827 37.7445C8.00008 37.7947 7.45959 37.8175 6.91899 37.8128C6.78405 37.8128 6.65128 37.8128 6.51852 37.8021C6.38688 37.8009 6.25539 37.7931 6.12458 37.7786L5.73935 37.7445L5.36282 37.6847C4.86903 37.5992 4.38749 37.4559 3.92853 37.2578C3.47694 37.0508 3.05892 36.7797 2.68795 36.4531C1.91836 35.7435 1.33007 34.866 0.970721 33.8919C0.570711 32.8516 0.310967 31.7645 0.198077 30.6583C0.0717341 31.2191 0.00607693 31.7915 0.00219594 32.3658C-0.00858965 32.9504 0.040261 33.5345 0.148019 34.1096C0.353741 35.3225 0.894179 36.457 1.71072 37.3901C2.14179 37.8688 2.65071 38.2741 3.21683 38.5897C3.78245 38.8979 4.38893 39.1278 5.01894 39.2727C6.22773 39.5167 7.46776 39.5757 8.69498 39.4477C9.94509 39.3229 11.1826 39.0973 12.395 38.7732C12.1382 39.065 11.9032 39.3746 11.692 39.6996C11.3223 40.2621 11.0213 40.8653 10.7953 41.4967C10.5652 42.1147 10.4245 42.7614 10.3774 43.4177C11.0978 42.3916 11.8983 41.4218 12.7715 40.517C13.5561 39.6831 14.5054 39.0143 15.5617 38.5513C16.6124 38.1378 17.7542 37.9974 18.8765 38.1436C19.5378 38.22 20.1925 38.3441 20.8353 38.515C21.0529 38.7113 21.2706 38.9098 21.4882 39.1105C22.9323 40.3962 24.1643 41.8939 25.1403 43.55C26.0946 45.2097 26.6003 47.081 26.6094 48.9863C26.6443 50.9179 26.1872 52.8645 25.5952 54.7705C26.5883 52.9905 27.2231 51.0398 27.4648 49.0247C27.6711 46.9362 27.2895 44.8323 26.3613 42.9417L26.3591 42.9481Z" fill="url(#paint17_linear_123_1519)"/>
<path d="M38.0879 33.51C39.0347 32.5858 39.9923 31.6701 40.9173 30.7033C41.8645 29.7248 42.7374 28.6797 43.5291 27.5764C44.3059 26.4723 45.0167 25.325 45.6577 24.14L46.1234 23.2521C46.278 22.9576 46.4325 22.6609 46.5761 22.3599L47.0114 21.4592C47.1565 21.1604 47.2965 20.8594 47.4315 20.5564L48.2259 18.7464C48.4721 18.1629 48.7504 17.5929 49.0595 17.0389C49.3618 16.4982 49.7121 15.9847 50.1063 15.5043C50.49 15.0298 50.945 14.6152 51.4558 14.2749C51.9758 13.9359 52.5621 13.7069 53.1773 13.6025C53.8308 13.5112 54.4936 13.5033 55.1492 13.579C54.8335 13.4537 54.51 13.3482 54.1807 13.2632C53.8421 13.1789 53.4958 13.1281 53.1469 13.1116C52.4211 13.0818 51.6982 13.2185 51.0357 13.5107C50.7046 13.6608 50.3865 13.8371 50.0846 14.0379C49.7842 14.2481 49.4992 14.4784 49.2314 14.7273C49.1161 14.8362 49.0138 14.9408 48.8962 15.0603C48.9078 14.8953 48.9165 14.7309 48.9224 14.5673L48.9071 13.927C48.8875 13.7135 48.8636 13.5001 48.8353 13.2866C48.714 12.4293 48.418 11.6047 47.9647 10.862C47.528 10.1463 46.9353 9.53424 46.229 9.06966C45.5227 8.60508 44.7204 8.29948 43.8795 8.17477C45.1545 8.96279 46.1543 10.1131 46.7459 11.4724C47.2704 12.753 47.3183 14.1575 47.0898 15.564C46.8367 17.0119 46.4273 18.4292 45.8688 19.7923C45.7882 20.0057 45.7012 20.2191 45.6163 20.4326C45.1244 21.413 44.6231 22.3834 44.1124 23.3439C43.4856 24.4794 42.8609 25.6149 42.1536 26.6906C41.4462 27.7663 40.6997 28.8143 39.89 29.8324C39.8226 29.9221 39.7507 30.0096 39.6724 30.0971C40.0577 29.2797 40.3617 28.4276 40.58 27.5529C40.8489 26.4996 40.9841 25.4179 40.9826 24.3321C40.9736 23.2525 40.834 22.1779 40.5669 21.1305C40.0143 19.0503 39.0064 17.1129 37.6135 15.453C36.9319 14.6382 36.1812 13.8814 35.3695 13.1906C34.7234 12.6374 34.0423 12.1249 33.3302 11.656L34.6557 10.2195L35.5262 9.25477C35.8244 8.92821 36.1095 8.58884 36.3794 8.24307C36.9219 7.55152 37.406 6.8177 37.8268 6.04892C38.2482 5.28771 38.6035 4.49304 38.8889 3.67334C38.4843 4.43278 38.0299 5.1657 37.5286 5.86749C37.0303 6.56072 36.4842 7.21966 35.8941 7.83967C35.6002 8.14916 35.2977 8.44584 34.9799 8.73184L34.0245 9.60481L32.501 11.0306L30.9774 9.61335L30.0154 8.75105C29.6977 8.46505 29.3951 8.16837 29.1013 7.85888C28.5112 7.23886 27.9651 6.57993 27.4668 5.8867C26.9693 5.1816 26.5186 4.44585 26.1174 3.68401C26.403 4.50262 26.7575 5.2965 27.1773 6.05745C27.5989 6.82628 28.0836 7.5601 28.6269 8.25161C28.8967 8.59738 29.1819 8.93888 29.48 9.26331L30.3506 10.2281L31.6761 11.6645C30.9632 12.1323 30.282 12.645 29.6367 13.1991C28.8256 13.8904 28.075 14.6472 27.3928 15.4616C25.9978 17.1178 24.9877 19.0524 24.4328 21.1305C24.1657 22.1779 24.0262 23.2525 24.0171 24.3321C24.0121 25.4167 24.1437 26.4978 24.4089 27.5508C24.6273 28.4264 24.932 29.2792 25.3186 30.0971C25.249 30.0074 25.1772 29.9199 25.101 29.8324C24.2892 28.8058 23.5339 27.7663 22.8353 26.6842C22.1367 25.6021 21.5077 24.4751 20.8765 23.3396C20.3657 22.3763 19.8644 21.4059 19.3725 20.4283C19.2877 20.2149 19.2006 20.0014 19.1201 19.788C18.5825 18.3793 18.1058 16.9685 17.8969 15.5576C17.688 14.1468 17.7184 12.7466 18.243 11.466C18.8376 10.1118 19.838 8.96695 21.1115 8.18331C20.2731 8.31022 19.4735 8.61682 18.7697 9.08128C18.0658 9.54574 17.4751 10.1566 17.0394 10.8705C16.5875 11.6138 16.2915 12.4382 16.1688 13.2952C16.1427 13.5086 16.1166 13.722 16.0991 13.9355L16.0839 14.5758C16.0839 14.7409 16.0926 14.9052 16.11 15.0688C16.0012 14.9557 15.8924 14.8554 15.7727 14.7359C15.5102 14.4923 15.2302 14.2676 14.9347 14.0636C14.634 13.8604 14.3157 13.6833 13.9836 13.5342C13.3216 13.2428 12.5997 13.1062 11.8746 13.1351C11.5258 13.1526 11.1796 13.2034 10.8408 13.2866C10.5113 13.3736 10.1872 13.4791 9.87012 13.6025C10.5264 13.5264 11.1901 13.535 11.8442 13.6281C12.4573 13.7327 13.0415 13.9617 13.5592 14.3005C14.0703 14.6405 14.5247 15.0559 14.9064 15.532C15.3025 16.0115 15.6537 16.5252 15.9555 17.0666C16.2642 17.6164 16.5425 18.1822 16.7891 18.7613L17.5835 20.5713C17.7184 20.8744 17.8585 21.1761 18.0036 21.4763L18.4388 22.3749C18.5825 22.6758 18.737 22.9725 18.8915 23.2692L19.3573 24.1549C19.9973 25.3404 20.7081 26.4879 21.4859 27.5913C22.2731 28.6911 23.1417 29.7326 24.0846 30.7075C25.0161 31.6765 25.9738 32.5901 26.914 33.5142C27.4603 34.0393 28.0022 34.5814 28.5354 35.1108L29.0273 35.7831C29.6289 36.5713 30.1834 37.393 30.688 38.2441C31.1529 39.0676 31.4827 39.9579 31.6652 40.8822C31.827 41.8508 31.9042 42.8312 31.8959 43.8127C32.0374 47.868 32.2028 51.9362 32.5031 56V55.9189C32.5031 55.9424 32.5031 55.9659 32.5031 55.9894C32.8035 51.934 32.9667 47.8659 33.1082 43.8041C33.1016 42.8226 33.1795 41.8423 33.3411 40.8736C33.5235 39.9494 33.8533 39.0591 34.3183 38.2355C34.8194 37.3826 35.3702 36.5588 35.9681 35.7682L36.4621 35.0958C36.9997 34.5601 37.5373 34.0244 38.0879 33.51ZM32.982 37.5653C32.8601 37.8086 32.7447 38.0562 32.6337 38.3038C32.5924 38.4169 32.5467 38.5173 32.5031 38.6368C32.4596 38.5279 32.4161 38.4233 32.3747 38.3145C32.2637 38.0648 32.1571 37.8172 32.0265 37.576C31.5262 36.6508 30.9702 35.7556 30.3615 34.8952C29.7847 34.0414 29.2036 33.2133 28.6464 32.3723C28.3613 31.9455 28.0958 31.5186 27.8216 31.1045L27.445 30.4855L27.1033 29.8452C26.673 28.9912 26.3366 28.0947 26.1 27.1708C25.6297 25.3207 25.6126 23.3876 26.0499 21.5296C26.2677 20.5965 26.5911 19.6902 27.0141 18.8275C27.4392 17.9546 27.9494 17.124 28.5376 16.3473C29.1258 15.5581 29.7811 14.819 30.4964 14.1383C31.1346 13.5384 31.8051 12.9727 32.5053 12.4435C33.2016 12.9693 33.8679 13.5322 34.5011 14.1297C35.2164 14.8098 35.8717 15.5481 36.4599 16.3367C37.0475 17.1145 37.5576 17.9457 37.9835 18.819C38.4116 19.6754 38.7388 20.577 38.9585 21.5062C39.3977 23.3631 39.3812 25.2957 38.9106 27.1452C38.674 28.0698 38.3376 28.967 37.9073 29.8218L37.5656 30.4621L37.1891 31.0832C36.9148 31.5101 36.6471 31.9369 36.3642 32.351C35.8048 33.192 35.2259 34.0222 34.6469 34.8717C34.0379 35.7306 33.4805 36.6235 32.9776 37.5461L32.982 37.5653Z" fill="url(#paint18_linear_123_1519)"/>
<path d="M64.8019 30.6498C64.6875 31.754 64.427 32.8388 64.0271 33.877C63.6694 34.8515 63.0817 35.7291 62.3121 36.4383C61.9409 36.7656 61.522 37.0368 61.0693 37.243C60.6115 37.4419 60.1305 37.5853 59.6372 37.6698C59.511 37.6869 59.3847 37.7061 59.2607 37.7296L58.8754 37.7637C58.7492 37.7787 58.6164 37.783 58.4815 37.7872C58.3466 37.7915 58.216 37.8 58.081 37.7872C57.5404 37.792 56.9999 37.7692 56.4618 37.7189C54.2853 37.5311 52.0936 36.9655 49.7909 36.5898C48.8024 36.4152 47.7978 36.3437 46.7939 36.3764C47.2292 36.0477 47.6754 35.7233 48.1324 35.4031C48.9443 34.8311 49.767 34.2698 50.6049 33.7298C51.0184 33.4523 51.4428 33.1855 51.8629 32.9165L52.1785 32.7031L52.5028 32.4897L53.1557 32.0628C53.591 31.7725 53.998 31.4609 54.4137 31.1535L55.0209 30.6669L55.3235 30.4236L55.6151 30.1632C56.4024 29.481 57.1304 28.7356 57.7916 27.9349C59.1236 26.3426 60.153 24.4281 60.5078 22.3727L60.5666 21.9885L60.6036 21.6C60.6362 21.3439 60.6297 21.0835 60.6406 20.8252C60.6397 20.3108 60.5938 19.7974 60.5034 19.2906C60.3359 18.2884 59.9611 17.3303 59.4021 16.4753C59.6045 16.9428 59.7556 17.43 59.8527 17.9289C59.955 18.4067 60.0154 18.8923 60.0333 19.3802C60.0483 19.8619 60.0294 20.344 59.9767 20.8231C59.9376 21.0621 59.9158 21.2991 59.857 21.5338L59.7809 21.8839L59.6829 22.2275C59.425 23.1454 59.0343 24.0223 58.5229 24.8315L58.1289 25.4291L57.7045 26.0097L57.2475 26.5646C57.0929 26.7482 56.9232 26.921 56.7621 27.1003C56.601 27.2796 56.4291 27.4482 56.2572 27.6169C56.0852 27.7855 55.9176 27.9584 55.7305 28.1163L55.1863 28.5987L54.6205 29.0597L54.3375 29.2881L54.0415 29.5015L53.4539 29.9284L53.3538 29.9967C53.4125 29.8772 53.4735 29.7598 53.5279 29.636C53.6011 29.4692 53.6658 29.299 53.7216 29.1259C53.7835 28.9534 53.8344 28.7774 53.8739 28.5987L53.9349 28.3319L53.9741 28.0608L54.0132 27.7897C54.0241 27.7001 54.0241 27.6083 54.0285 27.5165C54.0648 26.7945 53.9705 26.0719 53.7499 25.3822C53.5382 24.7198 53.2209 24.0945 52.8096 23.5295C52.6105 23.2531 52.3885 22.9932 52.1458 22.7526C51.909 22.512 51.6463 22.2973 51.3623 22.1123C51.6314 22.6949 51.8604 23.2946 52.0479 23.9073C52.2274 24.4829 52.3506 25.0739 52.4157 25.6724C52.5478 26.7926 52.3789 27.9272 51.926 28.9637C51.4907 29.9903 50.7551 30.9294 49.9171 31.8259C49.5972 32.1652 49.2642 32.4961 48.9051 32.8226L48.3871 33.1663C47.9518 33.4437 47.5426 33.7404 47.1226 34.02C45.4313 35.1934 43.8402 36.4997 42.3648 37.926C41.6193 38.6515 40.9282 39.429 40.2972 40.2524C39.657 41.0831 39.1036 41.9748 38.6452 42.914C37.7194 44.806 37.3385 46.9103 37.544 48.9992C37.786 51.0142 38.4207 52.9649 39.4135 54.745C38.8215 52.8389 38.3645 50.8924 38.3971 48.9608C38.4097 47.0622 38.9129 45.1977 39.8597 43.5415C40.8377 41.8874 42.0695 40.3908 43.5118 39.1041C43.7295 38.9035 43.9471 38.705 44.1647 38.5087C44.8075 38.3378 45.4622 38.2137 46.1236 38.1373C47.2458 37.991 48.3876 38.1315 49.4383 38.5449C50.4977 39.0078 51.4495 39.6782 52.2351 40.515C53.1083 41.4198 53.9087 42.3896 54.6292 43.4156C54.582 42.7593 54.4414 42.1127 54.2113 41.4947C53.9848 40.8627 53.6838 40.2589 53.3146 39.6954C53.0998 39.3719 52.862 39.0638 52.6029 38.7733C53.8157 39.0952 55.0531 39.3208 56.3029 39.4478C57.5294 39.5748 58.7685 39.5158 59.9767 39.2728C60.607 39.1285 61.2135 38.8987 61.7788 38.5898C62.3464 38.2763 62.8563 37.8715 63.2871 37.3924C64.1082 36.4578 64.6518 35.3201 64.8585 34.1033C64.9663 33.5282 65.0151 32.9441 65.0044 32.3595C64.9985 31.7842 64.9306 31.2111 64.8019 30.6498Z" fill="url(#paint19_linear_123_1519)"/>
</g>
<path d="M77.9492 26V24.5234L79.8594 24.1953V10.7539L77.9492 10.4258V8.9375H79.8594H85.7891C87.0078 8.9375 88.0469 9.15234 88.9062 9.58203C89.7656 10.0039 90.4219 10.5977 90.875 11.3633C91.3281 12.1289 91.5547 13.0234 91.5547 14.0469C91.5547 15.0781 91.3281 15.9766 90.875 16.7422C90.4219 17.5078 89.7656 18.1016 88.9062 18.5234C88.0469 18.9453 87.0078 19.1562 85.7891 19.1562H82.168V24.1953L84.0781 24.5234V26H77.9492ZM82.168 17.3516H85.7891C86.9453 17.3516 87.8086 17.043 88.3789 16.4258C88.957 15.8008 89.2461 15.0156 89.2461 14.0703C89.2461 13.125 88.957 12.3359 88.3789 11.7031C87.8086 11.0703 86.9453 10.7539 85.7891 10.7539H82.168V17.3516ZM95.2531 26V24.5234L96.5187 24.3477L102.484 8.9375H104.464L110.323 24.3477L111.577 24.5234V26H106.679V24.5234L107.968 24.3008L106.843 21.1602H100.011L98.8508 24.3008L100.14 24.5234V26H95.2531ZM100.726 19.2266H106.14L103.632 12.2891L103.491 11.9023H103.421L103.28 12.2891L100.726 19.2266ZM118.159 26V24.5234L120.069 24.1953V10.7539L118.159 10.4258V8.94922H125.764C127.006 8.94922 128.053 9.13672 128.905 9.51172C129.764 9.87891 130.416 10.4141 130.862 11.1172C131.307 11.8203 131.53 12.6797 131.53 13.6953C131.53 14.6953 131.311 15.5352 130.873 16.2148C130.444 16.8945 129.83 17.4102 129.034 17.7617C128.237 18.1055 127.291 18.2891 126.198 18.3125L122.377 18.3828V24.1953L124.287 24.5234V26H118.159ZM129.42 26L125.623 17.4805L127.932 17.457L131.084 24.2773L132.268 24.4883V26H129.42ZM122.377 16.5664H125.53C126.819 16.5664 127.756 16.3203 128.342 15.8281C128.928 15.3359 129.221 14.6172 129.221 13.6719C129.221 12.7734 128.94 12.0625 128.377 11.5391C127.815 11.0156 126.944 10.7539 125.764 10.7539H122.377V16.5664ZM139.072 26V24.5234L140.338 24.3477L146.302 8.9375H148.283L154.142 24.3477L155.396 24.5234V26H150.498V24.5234L151.787 24.3008L150.662 21.1602H143.83L142.67 24.3008L143.959 24.5234V26H139.072ZM144.545 19.2266H149.959L147.451 12.2891L147.31 11.9023H147.24L147.099 12.2891L144.545 19.2266ZM162.13 26V24.5234L164.04 24.1953V10.7539L162.13 10.4258V8.9375H164.04H167.122L172.618 21.8867H172.688L178.009 8.9375H183.153V10.4258L181.243 10.7539V24.1953L183.153 24.5234V26H177.024V24.5234L179.04 24.1953V19.25V12.0898L178.981 12.0781L173.438 25.3906H171.903L166.173 12.1016L166.114 12.1133L166.196 19.25V24.1953L168.259 24.5234V26H162.13ZM190.004 26V24.5234L191.914 24.1953V10.7539L190.004 10.4258V8.9375H191.914H197.844C199.062 8.9375 200.102 9.15234 200.961 9.58203C201.82 10.0039 202.477 10.5977 202.93 11.3633C203.383 12.1289 203.609 13.0234 203.609 14.0469C203.609 15.0781 203.383 15.9766 202.93 16.7422C202.477 17.5078 201.82 18.1016 200.961 18.5234C200.102 18.9453 199.062 19.1562 197.844 19.1562H194.223V24.1953L196.133 24.5234V26H190.004ZM194.223 17.3516H197.844C199 17.3516 199.863 17.043 200.434 16.4258C201.012 15.8008 201.301 15.0156 201.301 14.0703C201.301 13.125 201.012 12.3359 200.434 11.7031C199.863 11.0703 199 10.7539 197.844 10.7539H194.223V17.3516ZM207.308 26V24.5234L208.573 24.3477L214.538 8.9375H216.519L222.378 24.3477L223.632 24.5234V26H218.734V24.5234L220.023 24.3008L218.898 21.1602H212.066L210.905 24.3008L212.195 24.5234V26H207.308ZM212.78 19.2266H218.195L215.687 12.2891L215.546 11.9023H215.476L215.335 12.2891L212.78 19.2266ZM230.213 26V24.5234L232.123 24.1953V10.7539L230.213 10.4258V8.94922H237.819C239.061 8.94922 240.108 9.13672 240.959 9.51172C241.819 9.87891 242.471 10.4141 242.916 11.1172C243.362 11.8203 243.584 12.6797 243.584 13.6953C243.584 14.6953 243.366 15.5352 242.928 16.2148C242.498 16.8945 241.885 17.4102 241.088 17.7617C240.291 18.1055 239.346 18.2891 238.252 18.3125L234.432 18.3828V24.1953L236.342 24.5234V26H230.213ZM241.475 26L237.678 17.4805L239.987 17.457L243.139 24.2773L244.323 24.4883V26H241.475ZM234.432 16.5664H237.584C238.873 16.5664 239.811 16.3203 240.397 15.8281C240.983 15.3359 241.276 14.6172 241.276 13.6719C241.276 12.7734 240.995 12.0625 240.432 11.5391C239.87 11.0156 238.998 10.7539 237.819 10.7539H234.432V16.5664ZM251.127 26V24.5234L252.392 24.3477L258.357 8.9375H260.337L266.197 24.3477L267.451 24.5234V26H262.552V24.5234L263.841 24.3008L262.716 21.1602H255.884L254.724 24.3008L256.013 24.5234V26H251.127ZM256.599 19.2266H262.013L259.505 12.2891L259.365 11.9023H259.295L259.154 12.2891L256.599 19.2266Z" fill="#543731"/>
<path d="M77 33H269" stroke="#E7E6E6" stroke-linecap="round" stroke-linejoin="round"/>
<path d="M83.187 49.21C82.179 49.21 81.3203 48.9907 80.611 48.552C79.9017 48.1087 79.358 47.4927 78.98 46.704C78.6067 45.9153 78.42 45.0007 78.42 43.96C78.42 42.9193 78.6067 42.0047 78.98 41.216C79.358 40.4273 79.9017 39.8137 80.611 39.375C81.3203 38.9317 82.179 38.71 83.187 38.71C84.349 38.71 85.3103 39.004 86.071 39.592C86.8363 40.18 87.3683 40.971 87.667 41.965L86.183 42.364C85.987 41.6593 85.637 41.1063 85.133 40.705C84.6337 40.3037 83.985 40.103 83.187 40.103C82.473 40.103 81.878 40.264 81.402 40.586C80.926 40.908 80.5667 41.3583 80.324 41.937C80.086 42.5157 79.967 43.19 79.967 43.96C79.9623 44.73 80.079 45.4043 80.317 45.983C80.5597 46.5617 80.919 47.012 81.395 47.334C81.8757 47.656 82.473 47.817 83.187 47.817C83.985 47.817 84.6337 47.6163 85.133 47.215C85.637 46.809 85.987 46.256 86.183 45.556L87.667 45.955C87.3683 46.949 86.8363 47.74 86.071 48.328C85.3103 48.916 84.349 49.21 83.187 49.21ZM97.6136 49.21C96.6056 49.21 95.7469 48.9907 95.0376 48.552C94.3282 48.1087 93.7846 47.4927 93.4066 46.704C93.0332 45.9153 92.8466 45.0007 92.8466 43.96C92.8466 42.9193 93.0332 42.0047 93.4066 41.216C93.7846 40.4273 94.3282 39.8137 95.0376 39.375C95.7469 38.9317 96.6056 38.71 97.6136 38.71C98.6169 38.71 99.4732 38.9317 100.183 39.375C100.897 39.8137 101.44 40.4273 101.814 41.216C102.187 42.0047 102.374 42.9193 102.374 43.96C102.374 45.0007 102.187 45.9153 101.814 46.704C101.44 47.4927 100.897 48.1087 100.183 48.552C99.4732 48.9907 98.6169 49.21 97.6136 49.21ZM97.6136 47.817C98.3276 47.8263 98.9202 47.67 99.3916 47.348C99.8676 47.0213 100.225 46.5687 100.463 45.99C100.701 45.4067 100.82 44.73 100.82 43.96C100.82 43.19 100.701 42.518 100.463 41.944C100.225 41.3653 99.8676 40.915 99.3916 40.593C98.9202 40.271 98.3276 40.1077 97.6136 40.103C96.8996 40.0937 96.3046 40.25 95.8286 40.572C95.3572 40.894 95.0026 41.3467 94.7646 41.93C94.5266 42.5133 94.4052 43.19 94.4006 43.96C94.3959 44.73 94.5126 45.4043 94.7506 45.983C94.9886 46.557 95.3456 47.005 95.8216 47.327C96.3022 47.649 96.8996 47.8123 97.6136 47.817ZM108.11 49V38.92H109.573V47.621H114.137V49H108.11ZM119.525 49V38.92H122.682C122.776 38.92 122.948 38.9223 123.2 38.927C123.457 38.9317 123.702 38.9503 123.935 38.983C124.724 39.081 125.387 39.3633 125.923 39.83C126.465 40.2967 126.873 40.8893 127.148 41.608C127.424 42.322 127.561 43.106 127.561 43.96C127.561 44.8187 127.424 45.6073 127.148 46.326C126.873 47.04 126.465 47.6303 125.923 48.097C125.387 48.559 124.724 48.839 123.935 48.937C123.702 48.9697 123.457 48.9883 123.2 48.993C122.948 48.9977 122.776 49 122.682 49H119.525ZM121.023 47.607H122.682C122.841 47.607 123.03 47.6023 123.249 47.593C123.469 47.5837 123.662 47.565 123.83 47.537C124.344 47.439 124.759 47.2173 125.076 46.872C125.398 46.522 125.634 46.0927 125.783 45.584C125.933 45.0753 126.007 44.534 126.007 43.96C126.007 43.3673 125.93 42.819 125.776 42.315C125.622 41.8063 125.384 41.3817 125.062 41.041C124.745 40.6957 124.334 40.4763 123.83 40.383C123.662 40.3503 123.466 40.3317 123.242 40.327C123.023 40.3177 122.836 40.313 122.682 40.313H121.023V47.607ZM140.394 49V38.92H144.468C144.566 38.92 144.687 38.9247 144.832 38.934C144.977 38.9387 145.114 38.9527 145.245 38.976C145.805 39.0647 146.272 39.256 146.645 39.55C147.023 39.844 147.305 40.215 147.492 40.663C147.679 41.111 147.772 41.6057 147.772 42.147C147.772 42.693 147.679 43.19 147.492 43.638C147.305 44.086 147.023 44.457 146.645 44.751C146.272 45.045 145.805 45.2363 145.245 45.325C145.114 45.3437 144.974 45.3577 144.825 45.367C144.68 45.3763 144.561 45.381 144.468 45.381H141.857V49H140.394ZM141.857 43.995H144.412C144.505 43.995 144.608 43.9903 144.72 43.981C144.837 43.9717 144.946 43.9553 145.049 43.932C145.348 43.862 145.588 43.7337 145.77 43.547C145.952 43.3557 146.083 43.1363 146.162 42.889C146.241 42.6417 146.281 42.3943 146.281 42.147C146.281 41.8997 146.241 41.6547 146.162 41.412C146.083 41.1647 145.952 40.9477 145.77 40.761C145.588 40.5697 145.348 40.439 145.049 40.369C144.946 40.341 144.837 40.3223 144.72 40.313C144.608 40.3037 144.505 40.299 144.412 40.299H141.857V43.995ZM153.371 49V38.92H157.445C157.543 38.92 157.665 38.9247 157.809 38.934C157.954 38.9387 158.092 38.9527 158.222 38.976C158.782 39.0647 159.249 39.256 159.622 39.55C160 39.844 160.283 40.215 160.469 40.663C160.656 41.111 160.749 41.6057 160.749 42.147C160.749 42.9497 160.544 43.6427 160.133 44.226C159.723 44.8047 159.107 45.1663 158.285 45.311L157.69 45.381H154.834V49H153.371ZM159.265 49L157.277 44.898L158.754 44.52L160.938 49H159.265ZM154.834 43.995H157.389C157.483 43.995 157.585 43.9903 157.697 43.981C157.814 43.9717 157.924 43.9553 158.026 43.932C158.325 43.862 158.565 43.7337 158.747 43.547C158.929 43.3557 159.06 43.1363 159.139 42.889C159.219 42.6417 159.258 42.3943 159.258 42.147C159.258 41.8997 159.219 41.6547 159.139 41.412C159.06 41.1647 158.929 40.9477 158.747 40.761C158.565 40.5697 158.325 40.439 158.026 40.369C157.924 40.341 157.814 40.3223 157.697 40.313C157.585 40.3037 157.483 40.299 157.389 40.299H154.834V43.995ZM166.677 49V38.92H173.117V40.299H168.14V43.127H172.277V44.506H168.14V47.621H173.117V49H166.677ZM182.461 49.21C181.737 49.21 181.084 49.0863 180.501 48.839C179.922 48.587 179.444 48.23 179.066 47.768C178.692 47.3013 178.45 46.7483 178.338 46.109L179.864 45.878C180.018 46.494 180.34 46.9747 180.83 47.32C181.32 47.6607 181.891 47.831 182.545 47.831C182.951 47.831 183.324 47.768 183.665 47.642C184.005 47.5113 184.278 47.327 184.484 47.089C184.694 46.8463 184.799 46.557 184.799 46.221C184.799 46.039 184.766 45.878 184.701 45.738C184.64 45.598 184.554 45.4767 184.442 45.374C184.334 45.2667 184.201 45.1757 184.043 45.101C183.889 45.0217 183.718 44.954 183.532 44.898L180.949 44.135C180.697 44.0603 180.44 43.9647 180.179 43.848C179.917 43.7267 179.677 43.5703 179.458 43.379C179.243 43.183 179.068 42.9427 178.933 42.658C178.797 42.3687 178.73 42.0187 178.73 41.608C178.73 40.9873 178.888 40.4623 179.206 40.033C179.528 39.599 179.962 39.2723 180.508 39.053C181.054 38.829 181.665 38.717 182.342 38.717C183.023 38.7263 183.632 38.8477 184.169 39.081C184.71 39.3143 185.158 39.6503 185.513 40.089C185.872 40.523 186.119 41.0503 186.255 41.671L184.687 41.937C184.617 41.559 184.467 41.2347 184.239 40.964C184.01 40.6887 183.73 40.4787 183.399 40.334C183.067 40.1847 182.708 40.1077 182.321 40.103C181.947 40.0937 181.604 40.1497 181.292 40.271C180.984 40.3923 180.736 40.5627 180.55 40.782C180.368 41.0013 180.277 41.2533 180.277 41.538C180.277 41.818 180.358 42.0443 180.522 42.217C180.685 42.3897 180.886 42.5273 181.124 42.63C181.366 42.728 181.607 42.8097 181.845 42.875L183.707 43.4C183.94 43.4653 184.204 43.554 184.498 43.666C184.796 43.7733 185.083 43.925 185.359 44.121C185.639 44.317 185.87 44.5783 186.052 44.905C186.234 45.227 186.325 45.633 186.325 46.123C186.325 46.6317 186.222 47.0797 186.017 47.467C185.811 47.8497 185.529 48.1717 185.17 48.433C184.815 48.6897 184.404 48.8833 183.938 49.014C183.471 49.1447 182.979 49.21 182.461 49.21ZM195.875 49.21C195.152 49.21 194.499 49.0863 193.915 48.839C193.337 48.587 192.858 48.23 192.48 47.768C192.107 47.3013 191.864 46.7483 191.752 46.109L193.278 45.878C193.432 46.494 193.754 46.9747 194.244 47.32C194.734 47.6607 195.306 47.831 195.959 47.831C196.365 47.831 196.739 47.768 197.079 47.642C197.42 47.5113 197.693 47.327 197.898 47.089C198.108 46.8463 198.213 46.557 198.213 46.221C198.213 46.039 198.181 45.878 198.115 45.738C198.055 45.598 197.968 45.4767 197.856 45.374C197.749 45.2667 197.616 45.1757 197.457 45.101C197.303 45.0217 197.133 44.954 196.946 44.898L194.363 44.135C194.111 44.0603 193.855 43.9647 193.593 43.848C193.332 43.7267 193.092 43.5703 192.872 43.379C192.658 43.183 192.483 42.9427 192.347 42.658C192.212 42.3687 192.144 42.0187 192.144 41.608C192.144 40.9873 192.303 40.4623 192.62 40.033C192.942 39.599 193.376 39.2723 193.922 39.053C194.468 38.829 195.08 38.717 195.756 38.717C196.438 38.7263 197.047 38.8477 197.583 39.081C198.125 39.3143 198.573 39.6503 198.927 40.089C199.287 40.523 199.534 41.0503 199.669 41.671L198.101 41.937C198.031 41.559 197.882 41.2347 197.653 40.964C197.425 40.6887 197.145 40.4787 196.813 40.334C196.482 40.1847 196.123 40.1077 195.735 40.103C195.362 40.0937 195.019 40.1497 194.706 40.271C194.398 40.3923 194.151 40.5627 193.964 40.782C193.782 41.0013 193.691 41.2533 193.691 41.538C193.691 41.818 193.773 42.0443 193.936 42.217C194.1 42.3897 194.3 42.5273 194.538 42.63C194.781 42.728 195.021 42.8097 195.259 42.875L197.121 43.4C197.355 43.4653 197.618 43.554 197.912 43.666C198.211 43.7733 198.498 43.925 198.773 44.121C199.053 44.317 199.284 44.5783 199.466 44.905C199.648 45.227 199.739 45.633 199.739 46.123C199.739 46.6317 199.637 47.0797 199.431 47.467C199.226 47.8497 198.944 48.1717 198.584 48.433C198.23 48.6897 197.819 48.8833 197.352 49.014C196.886 49.1447 196.393 49.21 195.875 49.21ZM205.431 49V38.92H211.871V40.299H206.894V43.127H211.031V44.506H206.894V47.621H211.871V49H205.431ZM217.752 49V38.92H220.909C221.003 38.92 221.175 38.9223 221.427 38.927C221.684 38.9317 221.929 38.9503 222.162 38.983C222.951 39.081 223.614 39.3633 224.15 39.83C224.692 40.2967 225.1 40.8893 225.375 41.608C225.651 42.322 225.788 43.106 225.788 43.96C225.788 44.8187 225.651 45.6073 225.375 46.326C225.1 47.04 224.692 47.6303 224.15 48.097C223.614 48.559 222.951 48.839 222.162 48.937C221.929 48.9697 221.684 48.9883 221.427 48.993C221.175 48.9977 221.003 49 220.909 49H217.752ZM219.25 47.607H220.909C221.068 47.607 221.257 47.6023 221.476 47.593C221.696 47.5837 221.889 47.565 222.057 47.537C222.571 47.439 222.986 47.2173 223.303 46.872C223.625 46.522 223.861 46.0927 224.01 45.584C224.16 45.0753 224.234 44.534 224.234 43.96C224.234 43.3673 224.157 42.819 224.003 42.315C223.849 41.8063 223.611 41.3817 223.289 41.041C222.972 40.6957 222.561 40.4763 222.057 40.383C221.889 40.3503 221.693 40.3317 221.469 40.327C221.25 40.3177 221.063 40.313 220.909 40.313H219.25V47.607ZM242.828 49.21C241.82 49.21 240.961 48.9907 240.252 48.552C239.543 48.1087 238.999 47.4927 238.621 46.704C238.248 45.9153 238.061 45.0007 238.061 43.96C238.061 42.9193 238.248 42.0047 238.621 41.216C238.999 40.4273 239.543 39.8137 240.252 39.375C240.961 38.9317 241.82 38.71 242.828 38.71C243.831 38.71 244.688 38.9317 245.397 39.375C246.111 39.8137 246.655 40.4273 247.028 41.216C247.401 42.0047 247.588 42.9193 247.588 43.96C247.588 45.0007 247.401 45.9153 247.028 46.704C246.655 47.4927 246.111 48.1087 245.397 48.552C244.688 48.9907 243.831 49.21 242.828 49.21ZM242.828 47.817C243.542 47.8263 244.135 47.67 244.606 47.348C245.082 47.0213 245.439 46.5687 245.677 45.99C245.915 45.4067 246.034 44.73 246.034 43.96C246.034 43.19 245.915 42.518 245.677 41.944C245.439 41.3653 245.082 40.915 244.606 40.593C244.135 40.271 243.542 40.1077 242.828 40.103C242.114 40.0937 241.519 40.25 241.043 40.572C240.572 40.894 240.217 41.3467 239.979 41.93C239.741 42.5133 239.62 43.19 239.615 43.96C239.61 44.73 239.727 45.4043 239.965 45.983C240.203 46.557 240.56 47.005 241.036 47.327C241.517 47.649 242.114 47.8123 242.828 47.817ZM253.324 49V38.92H254.787V49H253.324ZM261.229 49V38.92H262.692V47.621H267.256V49H261.229Z" fill="#228B22"/>
<defs>
<linearGradient id="paint0_linear_123_1519" x1="30.5564" y1="3.80207" x2="34.4324" y2="3.80207" gradientUnits="userSpaceOnUse">
<stop stop-color="#228B22"/>
<stop offset="1" stop-color="#89C01C"/>
</linearGradient>
<linearGradient id="paint1_linear_123_1519" x1="30.5564" y1="20.4781" x2="34.4324" y2="20.4781" gradientUnits="userSpaceOnUse">
<stop stop-color="#228B22"/>
<stop offset="1" stop-color="#89C01C"/>
</linearGradient>
<linearGradient id="paint2_linear_123_1519" x1="30.5564" y1="29.6666" x2="34.4324" y2="29.6666" gradientUnits="userSpaceOnUse">
<stop stop-color="#228B22"/>
<stop offset="1" stop-color="#89C01C"/>
</linearGradient>
<linearGradient id="paint3_linear_123_1519" x1="10.6475" y1="9.40841" x2="15.2932" y2="9.40841" gradientUnits="userSpaceOnUse">
<stop stop-color="#228B22"/>
<stop offset="1" stop-color="#89C01C"/>
</linearGradient>
<linearGradient id="paint4_linear_123_1519" x1="7.24146" y1="21.4278" x2="11.1184" y2="21.4278" gradientUnits="userSpaceOnUse">
<stop stop-color="#228B22"/>
<stop offset="1" stop-color="#89C01C"/>
</linearGradient>
<linearGradient id="paint5_linear_123_1519" x1="21.1208" y1="14.9981" x2="25.1646" y2="14.9981" gradientUnits="userSpaceOnUse">
<stop stop-color="#228B22"/>
<stop offset="1" stop-color="#89C01C"/>
</linearGradient>
<linearGradient id="paint6_linear_123_1519" x1="4.67944" y1="33.5179" x2="11.2589" y2="33.5179" gradientUnits="userSpaceOnUse">
<stop stop-color="#228B22"/>
<stop offset="1" stop-color="#89C01C"/>
</linearGradient>
<linearGradient id="paint7_linear_123_1519" x1="1.86523" y1="43.0421" x2="8.23574" y2="43.0421" gradientUnits="userSpaceOnUse">
<stop stop-color="#228B22"/>
<stop offset="1" stop-color="#89C01C"/>
</linearGradient>
<linearGradient id="paint8_linear_123_1519" x1="14.2383" y1="43.0494" x2="19.9645" y2="43.0494" gradientUnits="userSpaceOnUse">
<stop stop-color="#228B22"/>
<stop offset="1" stop-color="#89C01C"/>
</linearGradient>
<linearGradient id="paint9_linear_123_1519" x1="15.5747" y1="29.5281" x2="20.894" y2="29.5281" gradientUnits="userSpaceOnUse">
<stop stop-color="#228B22"/>
<stop offset="1" stop-color="#89C01C"/>
</linearGradient>
<linearGradient id="paint10_linear_123_1519" x1="49.7031" y1="9.40014" x2="54.3521" y2="9.40014" gradientUnits="userSpaceOnUse">
<stop stop-color="#228B22"/>
<stop offset="1" stop-color="#89C01C"/>
</linearGradient>
<linearGradient id="paint11_linear_123_1519" x1="53.8816" y1="21.4193" x2="57.7576" y2="21.4193" gradientUnits="userSpaceOnUse">
<stop stop-color="#228B22"/>
<stop offset="1" stop-color="#89C01C"/>
</linearGradient>
<linearGradient id="paint12_linear_123_1519" x1="39.8335" y1="14.9865" x2="43.8781" y2="14.9865" gradientUnits="userSpaceOnUse">
<stop stop-color="#228B22"/>
<stop offset="1" stop-color="#89C01C"/>
</linearGradient>
<linearGradient id="paint13_linear_123_1519" x1="53.739" y1="33.5144" x2="60.325" y2="33.5144" gradientUnits="userSpaceOnUse">
<stop stop-color="#228B22"/>
<stop offset="1" stop-color="#89C01C"/>
</linearGradient>
<linearGradient id="paint14_linear_123_1519" x1="56.762" y1="43.0333" x2="63.1455" y2="43.0333" gradientUnits="userSpaceOnUse">
<stop stop-color="#228B22"/>
<stop offset="1" stop-color="#89C01C"/>
</linearGradient>
<linearGradient id="paint15_linear_123_1519" x1="45.0332" y1="43.0409" x2="50.7595" y2="43.0409" gradientUnits="userSpaceOnUse">
<stop stop-color="#228B22"/>
<stop offset="1" stop-color="#89C01C"/>
</linearGradient>
<linearGradient id="paint16_linear_123_1519" x1="44.1125" y1="29.5176" x2="49.4253" y2="29.5176" gradientUnits="userSpaceOnUse">
<stop stop-color="#228B22"/>
<stop offset="1" stop-color="#89C01C"/>
</linearGradient>
<linearGradient id="paint17_linear_123_1519" x1="13.76" y1="16.5222" x2="13.76" y2="54.7705" gradientUnits="userSpaceOnUse">
<stop stop-color="#543731"/>
<stop offset="1" stop-color="#9F7143"/>
</linearGradient>
<linearGradient id="paint18_linear_123_1519" x1="32.5097" y1="3.67334" x2="32.5097" y2="56" gradientUnits="userSpaceOnUse">
<stop stop-color="#543731"/>
<stop offset="1" stop-color="#9F7143"/>
</linearGradient>
<linearGradient id="paint19_linear_123_1519" x1="51.2478" y1="16.4753" x2="51.2478" y2="54.745" gradientUnits="userSpaceOnUse">
<stop stop-color="#543731"/>
<stop offset="1" stop-color="#9F7143"/>
</linearGradient>
<clipPath id="clip0_123_1519">
<rect width="65" height="56" fill="white"/>
</clipPath>
</defs>
</svg>
