<svg width="24" height="25" viewBox="0 0 24 25" fill="none" xmlns="http://www.w3.org/2000/svg">
<path d="M12 13.5718C13.6569 13.5718 15 12.2286 15 10.5718C15 8.91492 13.6569 7.57178 12 7.57178C10.3431 7.57178 9 8.91492 9 10.5718C9 12.2286 10.3431 13.5718 12 13.5718Z" stroke="white" stroke-width="2" stroke-linecap="round" stroke-linejoin="round"/>
<path d="M19.5 10.5718C19.5 17.3218 12 22.5718 12 22.5718C12 22.5718 4.5 17.3218 4.5 10.5718C4.5 8.58265 5.29018 6.675 6.6967 5.26848C8.10322 3.86195 10.0109 3.07178 12 3.07178C13.9891 3.07178 15.8968 3.86195 17.3033 5.26848C18.7098 6.675 19.5 8.58265 19.5 10.5718V10.5718Z" stroke="white" stroke-width="2" stroke-linecap="round" stroke-linejoin="round"/>
</svg>
