<svg width="20" height="20" viewBox="0 0 20 20" fill="none" xmlns="http://www.w3.org/2000/svg">
<path d="M17.3438 12.3749L13.6797 10.8124C13.4906 10.7277 13.2831 10.6926 13.0767 10.7103C12.8703 10.7281 12.6718 10.7982 12.5 10.914L10.5391 12.2187C9.34394 11.6382 8.37631 10.6761 7.78906 9.48432L9.08594 7.49994C9.20097 7.32797 9.27123 7.12999 9.29033 6.92398C9.30943 6.71797 9.27677 6.51045 9.19531 6.32026L7.625 2.6562C7.51542 2.40878 7.32989 2.20271 7.09529 2.06785C6.8607 1.933 6.58925 1.87638 6.32031 1.9062C5.26531 2.0444 4.29638 2.56102 3.59369 3.35999C2.891 4.15896 2.50235 5.18593 2.5 6.24995C2.5 12.4531 7.54688 17.4999 13.75 17.4999C14.814 17.4976 15.841 17.1089 16.64 16.4063C17.4389 15.7036 17.9555 14.7346 18.0938 13.6796C18.1236 13.4107 18.0669 13.1392 17.9321 12.9046C17.7972 12.6701 17.5912 12.4845 17.3438 12.3749Z" fill="#726C6B"/>
<path d="M12.2968 3.7266C13.2482 3.98651 14.1153 4.48998 14.8126 5.18734C15.51 5.88469 16.0135 6.75182 16.2734 7.70316C16.3079 7.83673 16.3856 7.95513 16.4944 8.03992C16.6032 8.12471 16.737 8.17112 16.8749 8.17191C16.9305 8.17181 16.9857 8.16392 17.039 8.14847C17.1185 8.12769 17.193 8.09125 17.2582 8.0413C17.3233 7.99136 17.3779 7.9289 17.4187 7.8576C17.4594 7.78629 17.4855 7.70758 17.4954 7.62606C17.5054 7.54454 17.4989 7.46185 17.4765 7.38285C17.164 6.21776 16.5505 5.15539 15.6975 4.30244C14.8446 3.44948 13.7822 2.83595 12.6171 2.52347C12.5356 2.49377 12.4488 2.48137 12.3622 2.48706C12.2756 2.49275 12.1912 2.51641 12.1142 2.55652C12.0373 2.59664 11.9696 2.65233 11.9153 2.72006C11.8611 2.7878 11.8216 2.86608 11.7992 2.94992C11.7769 3.03377 11.7723 3.12135 11.7857 3.20708C11.799 3.29281 11.8301 3.37481 11.8769 3.44787C11.9237 3.52093 11.9853 3.58345 12.0575 3.63143C12.1298 3.67942 12.2113 3.71183 12.2968 3.7266Z" fill="#726C6B"/>
<path d="M11.6484 6.14066C12.1772 6.28542 12.6592 6.56543 13.0469 6.95311C13.4346 7.3408 13.7146 7.82278 13.8593 8.3516C13.8926 8.48583 13.97 8.605 14.079 8.69C14.1881 8.775 14.3226 8.82091 14.4609 8.82035C14.5139 8.82087 14.5666 8.81296 14.6171 8.79691C14.6973 8.77698 14.7726 8.74116 14.8387 8.69158C14.9047 8.642 14.9602 8.57967 15.0017 8.50827C15.0432 8.43687 15.07 8.35787 15.0804 8.27594C15.0909 8.194 15.0848 8.11081 15.0624 8.03129C14.8651 7.28872 14.4751 6.61148 13.9318 6.06819C13.3885 5.52489 12.7113 5.13484 11.9687 4.93754C11.8872 4.90784 11.8004 4.89544 11.7138 4.90113C11.6272 4.90682 11.5427 4.93047 11.4658 4.97059C11.3889 5.0107 11.3211 5.0664 11.2669 5.13413C11.2127 5.20186 11.1731 5.28014 11.1508 5.36399C11.1285 5.44783 11.1239 5.53541 11.1372 5.62114C11.1506 5.70687 11.1817 5.78888 11.2285 5.86194C11.2753 5.935 11.3368 5.99751 11.4091 6.0455C11.4814 6.09348 11.5629 6.12589 11.6484 6.14066Z" fill="#726C6B"/>
</svg>
