<svg width="114" height="114" viewBox="0 0 114 114" fill="none" xmlns="http://www.w3.org/2000/svg">
<path d="M92.9345 63.9072C92.9452 65.3633 92.5022 66.7865 91.6672 67.9795C90.8321 69.1724 89.6464 70.0757 88.2747 70.5641L65.1084 79.0851L56.5875 102.251C56.0831 103.61 55.1748 104.782 53.9848 105.61C52.7948 106.438 51.38 106.881 49.9305 106.881C48.481 106.881 47.0662 106.438 45.8762 105.61C44.6862 104.782 43.7779 103.61 43.2735 102.251L34.7526 79.0851L11.5863 70.5641C10.2274 70.0597 9.05542 69.1515 8.22779 67.9615C7.40016 66.7715 6.95654 65.3567 6.95654 63.9072C6.95654 62.4576 7.40016 61.0428 8.22779 59.8528C9.05542 58.6628 10.2274 57.7546 11.5863 57.2502L34.7526 48.7293L43.2735 25.563C43.7779 24.2041 44.6862 23.0321 45.8762 22.2045C47.0662 21.3768 48.481 20.9332 49.9305 20.9332C51.38 20.9332 52.7948 21.3768 53.9848 22.2045C55.1748 23.0321 56.0831 24.2041 56.5875 25.563L65.1084 48.7293L88.2747 57.2502C89.6464 57.7386 90.8321 58.642 91.6672 59.8349C92.5022 61.0278 92.9452 62.4511 92.9345 63.9072ZM67.6824 21.3026H74.7832V28.4033C74.7832 29.3449 75.1572 30.248 75.8231 30.9138C76.4889 31.5796 77.392 31.9537 78.3336 31.9537C79.2752 31.9537 80.1783 31.5796 80.8441 30.9138C81.5099 30.248 81.884 29.3449 81.884 28.4033V21.3026H88.9847C89.9263 21.3026 90.8294 20.9285 91.4952 20.2627C92.1611 19.5968 92.5351 18.6938 92.5351 17.7522C92.5351 16.8105 92.1611 15.9075 91.4952 15.2417C90.8294 14.5758 89.9263 14.2018 88.9847 14.2018H81.884V7.10101C81.884 6.15939 81.5099 5.25634 80.8441 4.59051C80.1783 3.92469 79.2752 3.55063 78.3336 3.55063C77.392 3.55063 76.4889 3.92469 75.8231 4.59051C75.1572 5.25634 74.7832 6.15939 74.7832 7.10101V14.2018H67.6824C66.7408 14.2018 65.8377 14.5758 65.1719 15.2417C64.5061 15.9075 64.132 16.8105 64.132 17.7522C64.132 18.6938 64.5061 19.5968 65.1719 20.2627C65.8377 20.9285 66.7408 21.3026 67.6824 21.3026ZM106.737 35.5041H103.186V31.9537C103.186 31.0121 102.812 30.109 102.146 29.4432C101.481 28.7774 100.577 28.4033 99.6359 28.4033C98.6943 28.4033 97.7912 28.7774 97.1254 29.4432C96.4595 30.109 96.0855 31.0121 96.0855 31.9537V35.5041H92.5351C91.5935 35.5041 90.6904 35.8781 90.0246 36.544C89.3588 37.2098 88.9847 38.1129 88.9847 39.0545C88.9847 39.9961 89.3588 40.8991 90.0246 41.565C90.6904 42.2308 91.5935 42.6049 92.5351 42.6049H96.0855V46.1552C96.0855 47.0969 96.4595 47.9999 97.1254 48.6657C97.7912 49.3316 98.6943 49.7056 99.6359 49.7056C100.577 49.7056 101.481 49.3316 102.146 48.6657C102.812 47.9999 103.186 47.0969 103.186 46.1552V42.6049H106.737C107.678 42.6049 108.581 42.2308 109.247 41.565C109.913 40.8991 110.287 39.9961 110.287 39.0545C110.287 38.1129 109.913 37.2098 109.247 36.544C108.581 35.8781 107.678 35.5041 106.737 35.5041Z" fill="#F2AF29"/>
</svg>
