<svg width="20" height="20" viewBox="0 0 20 20" fill="none" xmlns="http://www.w3.org/2000/svg">
<path d="M16.5625 7.8125C17.4254 7.8125 18.125 7.11294 18.125 6.25C18.125 5.38706 17.4254 4.6875 16.5625 4.6875C15.6996 4.6875 15 5.38706 15 6.25C15 7.11294 15.6996 7.8125 16.5625 7.8125Z" stroke="#726C6B" stroke-width="1.5" stroke-linecap="round" stroke-linejoin="round"/>
<path d="M6.875 11.4844V3.75C6.875 3.08696 7.13839 2.45107 7.60723 1.98223C8.07607 1.51339 8.71196 1.25 9.375 1.25C10.038 1.25 10.6739 1.51339 11.1428 1.98223C11.6116 2.45107 11.875 3.08696 11.875 3.75V11.4844C12.5418 12.0049 13.0294 12.7207 13.2699 13.5317C13.5104 14.3427 13.4917 15.2086 13.2164 16.0085C12.9411 16.8084 12.423 17.5024 11.7344 17.9937C11.0458 18.485 10.2209 18.749 9.375 18.749C8.52907 18.749 7.70424 18.485 7.0156 17.9937C6.32696 17.5024 5.80887 16.8084 5.5336 16.0085C5.25833 15.2086 5.23963 14.3427 5.4801 13.5317C5.72057 12.7207 6.20822 12.0049 6.875 11.4844V11.4844Z" stroke="#726C6B" stroke-width="1.5" stroke-linecap="round" stroke-linejoin="round"/>
<path d="M9.375 16.25C10.2379 16.25 10.9375 15.5504 10.9375 14.6875C10.9375 13.8246 10.2379 13.125 9.375 13.125C8.51206 13.125 7.8125 13.8246 7.8125 14.6875C7.8125 15.5504 8.51206 16.25 9.375 16.25Z" stroke="#726C6B" stroke-width="1.5" stroke-linecap="round" stroke-linejoin="round"/>
<path d="M9.375 13.125V6.875" stroke="#726C6B" stroke-width="1.5" stroke-linecap="round" stroke-linejoin="round"/>
</svg>
